<svg viewBox="0 0 20 20" fill="none" xmlns="http://www.w3.org/2000/svg"><path d="M10.8571 11.1429H12.4286C12.7441 11.1429 13 11.3988 13 11.7143V12.2857C13 12.6013 12.7441 12.8571 12.4286 12.8571H10.8571V14.4286C10.8571 14.7441 10.6013 15 10.2857 15H9.71429C9.39875 15 9.14286 14.7441 9.14286 14.4286V12.8571H7.57143C7.25589 12.8571 7 12.6013 7 12.2857V11.7143C7 11.3988 7.25589 11.1429 7.57143 11.1429H9.14286V9.57143C9.14286 9.25589 9.39875 9 9.71429 9H10.2857C10.6013 9 10.8571 9.25589 10.8571 9.57143V11.1429Z" fill="#616161"/><path fill-rule="evenodd" clip-rule="evenodd" d="M12.9375 2.4375L15.5312 5.0625C15.8125 5.34375 16 5.75 16 6.125V16.5C16 17.3438 15.3125 18 14.5 18H5.5C4.65625 18 4 17.3438 4 16.5V3.5C4 2.6875 4.65625 2 5.5 2H11.875C12.25 2 12.6562 2.15625 12.9375 2.4375ZM12 6H14.375L12 3.625V6ZM5.5 3.5V16.5H14.5V7.5H11.25C10.8125 7.5 10.5 7.1875 10.5 6.75V3.5H5.5Z" fill="#616161"/></svg>