<svg viewBox="0 0 20 20" xmlns="http://www.w3.org/2000/svg"><path d="M13.5,14 L6.5,14 C5.95,14.0802639 5.5,14.447 5.5,15 C5.5,15.553 5.948,16 6.5,16 L13.5,16 C14.052,16 14.5,15.553 14.5,15 C14.5,14.447 14.05,14 13.5,14 Z M17,9 L3,9 C2.45,9.08026387 2,9.447 2,10 C2,10.553 2.448,11 3,11 L17,11 C17.552,11 18,10.553 18,10 C18,9.447 17.55,9 17,9 Z M14.5,5 C14.5,4.447 14.052,4 13.5,4 L6.5,4 C5.948,4 5.5,4.447 5.5,5 C5.5,5.553 6.19484023,6 6.5,6 L13.5,6 C14.05,6 14.5,5.553 14.5,5 Z" fill="#31373D" fill-rule="evenodd"/></svg>