<svg viewBox="0 0 20 20" fill="none" xmlns="http://www.w3.org/2000/svg"><path fill-rule="evenodd" clip-rule="evenodd" d="M6.5 1C6.22386 1 6 1.22386 6 1.5V4.5C6 4.77614 6.22386 5 6.5 5C6.77614 5 7 4.77614 7 4.5V1.5C7 1.22386 6.77614 1 6.5 1ZM8 3H12V4.5C12 5.32843 12.6716 6 13.5 6C14.3284 6 15 5.32843 15 4.5V3H16C17.1046 3 18 3.89543 18 5V16C18 17.1046 17.1046 18 16 18H4C2.89543 18 2 17.1046 2 16V5C2 3.89543 2.89543 3 4 3H5V4.5C5 5.32843 5.67157 6 6.5 6C7.32843 6 8 5.32843 8 4.5V3ZM3 7H17V16C17 16.5523 16.5523 17 16 17H4C3.44772 17 3 16.5523 3 16V7ZM13 1.5C13 1.22386 13.2239 1 13.5 1C13.7761 1 14 1.22386 14 1.5V4.5C14 4.77614 13.7761 5 13.5 5C13.2239 5 13 4.77614 13 4.5V1.5ZM10.2969 15.8437C10.1562 16.0625 9.82812 16.0625 9.6875 15.8437C9.3218 15.3177 9.00429 14.8672 8.7289 14.4765C7.28644 12.4298 7 12.0234 7 11C7 9.34375 8.32812 8 10 8C11.6562 8 13 9.34375 13 11C13 12.009 12.7108 12.4183 11.3167 14.3913C11.0269 14.8014 10.6894 15.2791 10.2969 15.8437ZM8.75 11C8.75 11.7031 9.29688 12.25 10 12.25C10.6875 12.25 11.25 11.7031 11.25 11C11.25 10.3125 10.6875 9.75 10 9.75C9.29688 9.75 8.75 10.3125 8.75 11Z" fill="#616161"/></svg>
