<svg viewBox="0 0 20 20" fill="none" xmlns="http://www.w3.org/2000/svg"><path d="M3 16C3 16.2708 3.09375 16.5 3.28125 16.6875C3.48958 16.8958 3.72917 17 4 17H16C16.2708 17 16.5 16.8958 16.6875 16.6875C16.8958 16.5 17 16.2708 17 16V7H3V16ZM8 9.375C8 9.27083 8.03125 9.1875 8.09375 9.125C8.17708 9.04167 8.27083 9 8.375 9H11.625C11.7292 9 11.8125 9.04167 11.875 9.125C11.9583 9.1875 12 9.27083 12 9.375V9.625C12 9.72917 11.9583 9.82292 11.875 9.90625C11.8125 9.96875 11.7292 10 11.625 10H8.375C8.27083 10 8.17708 9.96875 8.09375 9.90625C8.03125 9.82292 8 9.72917 8 9.625V9.375ZM17 3H3C2.72917 3 2.48958 3.10417 2.28125 3.3125C2.09375 3.5 2 3.72917 2 4V5.5C2 5.64583 2.04167 5.77083 2.125 5.875C2.22917 5.95833 2.35417 6 2.5 6H17.5C17.6458 6 17.7604 5.95833 17.8438 5.875C17.9479 5.77083 18 5.64583 18 5.5V4C18 3.72917 17.8958 3.5 17.6875 3.3125C17.5 3.10417 17.2708 3 17 3Z" fill="#616161"/></svg>
