<svg viewBox="0 0 20 20" fill="none" xmlns="http://www.w3.org/2000/svg"><path fill-rule="evenodd" clip-rule="evenodd" d="M11.875 9.125C11.8125 9.04167 11.7292 9 11.625 9H8.375C8.27083 9 8.17708 9.04167 8.09375 9.125C8.03125 9.1875 8 9.27083 8 9.375V9.625C8 9.72917 8.03125 9.82292 8.09375 9.90625C8.17708 9.96875 8.27083 10 8.375 10H11.625C11.7292 10 11.8125 9.96875 11.875 9.90625C11.9583 9.82292 12 9.72917 12 9.625V9.375C12 9.27083 11.9583 9.1875 11.875 9.125ZM3 7H17V16C17 16.2708 16.8958 16.5 16.6875 16.6875C16.5 16.8958 16.2708 17 16 17H4C3.72917 17 3.48958 16.8958 3.28125 16.6875C3.09375 16.5 3 16.2708 3 16V7ZM17.3951 17.3951C17.0295 17.7817 16.5474 18 16 18H4C3.43933 18 2.95185 17.7723 2.57414 17.3946C2.19466 17.0151 2 16.5297 2 16V6.92374C1.82421 6.86775 1.65516 6.77975 1.5003 6.65587L1.41354 6.58646L1.34413 6.49969C1.10547 6.20137 1 5.85034 1 5.5V4C1 3.47031 1.19466 2.98488 1.57414 2.60539C1.95185 2.22768 2.43933 2 3 2H17C17.5474 2 18.0295 2.21826 18.3951 2.60487C18.7817 2.97045 19 3.45262 19 4V5.5C19 5.91406 18.8404 6.29254 18.5509 6.58211C18.3835 6.74947 18.1933 6.85727 18 6.92139V16C18 16.5474 17.7817 17.0295 17.3951 17.3951ZM17.6875 3.3125C17.5 3.10417 17.2708 3 17 3H3C2.72917 3 2.48958 3.10417 2.28125 3.3125C2.09375 3.5 2 3.72917 2 4V5.5C2 5.64583 2.04167 5.77083 2.125 5.875C2.22917 5.95833 2.35417 6 2.5 6H17.5C17.6458 6 17.7604 5.95833 17.8438 5.875C17.9479 5.77083 18 5.64583 18 5.5V4C18 3.72917 17.8958 3.5 17.6875 3.3125Z" fill="#616161"/></svg>
