<svg viewBox="0 0 20 20" fill="none" xmlns="http://www.w3.org/2000/svg"><path d="M17.5 7V6.5C17.7451 6.5 17.999 6.42687 18.1973 6.22855C18.3942 6.03169 18.5 5.77995 18.5 5.5V4C18.5 3.59072 18.3385 3.23474 18.0414 2.95861C17.7653 2.66147 17.4093 2.5 17 2.5H3C2.58425 2.5 2.22072 2.66592 1.9277 2.95895C1.64421 3.24244 1.5 3.59974 1.5 4V5.5C1.5 5.74809 1.57357 5.9861 1.73457 6.18735L1.76927 6.23073L1.81265 6.26543C2.0139 6.42643 2.25191 6.5 2.5 6.5V7V16C2.5 16.4003 2.64421 16.7576 2.9277 17.0411C3.22072 17.3341 3.58425 17.5 4 17.5H16C16.4093 17.5 16.7653 17.3385 17.0414 17.0414C17.3385 16.7653 17.5 16.4093 17.5 16V7Z" stroke="#616161"/></svg>
