<svg viewBox="0 0 20 20" fill="none" xmlns="http://www.w3.org/2000/svg"><path fill-rule="evenodd" clip-rule="evenodd" d="M1 1V3.79418C1 4.58586 1.60529 5.1912 2.39702 5.1912H16.3677C17.1594 5.1912 17.7647 4.58591 17.7647 3.79418V1H1ZM16.8332 3.79418C16.8332 4.07351 16.647 4.25991 16.3674 4.25991H2.39677C2.11745 4.25991 1.93104 4.07369 1.93104 3.79418V1.93144H16.833L16.8332 3.79418ZM3.32837 2.62982H6.12255V3.56126H3.32837V2.62982ZM14.7377 3.7943C15.1234 3.7943 15.4361 3.48159 15.4361 3.09569C15.4361 2.70998 15.1234 2.39728 14.7377 2.39728C14.3518 2.39728 14.0391 2.70998 14.0391 3.09569C14.0391 3.4816 14.3518 3.7943 14.7377 3.7943ZM1 8.9168V6.12262H17.7647V8.9168C17.7647 9.70853 17.1594 10.3138 16.3677 10.3138L16.3674 9.38234C16.647 9.38234 16.8332 9.19594 16.8332 8.91661L16.833 7.05387H1.93104V8.91661C1.93104 9.19612 2.11745 9.38234 2.39677 9.38234H12.2L12 10.3138H2.39702C1.60529 10.3138 1 9.70848 1 8.9168ZM6.12255 7.75238H3.32837V8.68382H6.12255V7.75238ZM15.4361 8.21826C15.4361 8.60397 15.1234 8.91667 14.7377 8.91667C14.3518 8.91667 14.0391 8.60398 14.0391 8.21826C14.0391 7.83236 14.3518 7.51965 14.7377 7.51965C15.1234 7.51965 15.4361 7.83235 15.4361 8.21826ZM6.12255 12.875H3.32837V13.8064H6.12255V12.875ZM1 14.0342V11.24H9L8 12.1712H1.93104V14.034C1.93104 14.3135 2.11745 14.4997 2.39677 14.4997L6 14.4998V15.4312H2.39702C1.60529 15.4312 1 14.8259 1 14.0342ZM13.0449 18.8475C13.0105 18.9506 12.9075 19.0193 12.7873 18.9849L11.7397 18.6758C11.6366 18.6414 11.5679 18.5384 11.6023 18.4182L13.9551 10.3463C13.9895 10.2433 14.0925 10.1746 14.2127 10.2089L15.2603 10.5181C15.3634 10.5353 15.4321 10.6555 15.3977 10.7757L13.0449 18.8475ZM11.5851 16.2542L10.8294 17.0614C10.7607 17.1473 10.6233 17.1473 10.5375 17.0614L8.0644 14.7429C7.97853 14.657 7.97853 14.5196 8.0644 14.4509L10.5375 12.1324C10.6233 12.0466 10.7607 12.0466 10.8294 12.1324L11.5851 12.9396C11.671 13.0083 11.6538 13.1457 11.5679 13.2316L10.0222 14.5883L11.5679 15.9623C11.6538 16.0481 11.671 16.1684 11.5851 16.2542ZM18.9356 14.7429L16.4625 17.0614C16.3767 17.1473 16.2393 17.1473 16.1706 17.0614L15.4149 16.2542C15.329 16.1684 15.3462 16.0481 15.4321 15.9623L16.9949 14.5883L15.4321 13.2316C15.3462 13.1457 15.3462 13.0083 15.4149 12.9225L16.1706 12.1324C16.2393 12.0466 16.3767 12.0466 16.4625 12.1324L18.9356 14.4509C19.0215 14.5196 19.0215 14.6742 18.9356 14.7429Z" fill="#616161"/></svg>
