<svg viewBox="0 0 20 23" fill="none" xmlns="http://www.w3.org/2000/svg"><path fill-rule="evenodd" clip-rule="evenodd" d="M9.55435 0.949951C8.49748 0.949951 7.63685 1.79755 7.63685 2.84825C7.63685 3.00166 7.6552 3.15074 7.68982 3.29349C5.33215 3.99777 3.8341 6.05237 3.8341 8.67371C3.8341 11.411 3.27654 13.0563 2.31693 14.0937C2.18659 14.2346 1.94906 14.4364 1.70252 14.6349L0.85208 15.299C0.600985 15.5442 0.454102 15.822 0.454102 16.1635C0.454102 17.9326 2.60347 18.6555 6.87059 18.8422C6.81848 19.0527 6.79157 19.2706 6.79157 19.4922C6.79157 21.0026 8.03064 22.2227 9.55407 22.2227C11.0778 22.2227 12.3166 21.0027 12.3166 19.4922C12.3166 19.2706 12.2897 19.0526 12.2377 18.8422C16.5049 18.6555 18.6541 17.9326 18.6541 16.1635C18.6541 15.822 18.5072 15.5442 18.2561 15.299C18.2399 15.2832 18.1562 15.219 18.0352 15.1262L18.0352 15.1262C17.6902 14.8617 17.0421 14.3649 16.7913 14.0937C15.8317 13.0563 15.2741 11.411 15.2741 8.67371L15.268 8.38514C15.1621 5.90067 13.6879 3.97123 11.4189 3.29338C11.4535 3.15067 11.4718 3.00162 11.4718 2.84825C11.4718 1.79755 10.6112 0.949951 9.55435 0.949951ZM10.6114 4.43228C10.3081 4.63097 9.9446 4.74654 9.55435 4.74654C9.16362 4.74654 8.79972 4.63069 8.49621 4.43156C6.43523 4.84169 5.1341 6.46859 5.1341 8.67371C5.1341 11.7196 4.46934 13.6812 3.27127 14.9764C3.06305 15.2016 2.7125 15.4968 2.40136 15.7442L1.7593 16.2289C1.91429 17.0363 4.50871 17.5614 9.11626 17.5925L9.5541 17.594L10.418 17.5882C14.6194 17.5303 17.0394 17.0443 17.3254 16.313L17.3476 16.2289L17.0733 16.028C16.7572 15.7892 16.2496 15.389 15.9344 15.0769L15.8369 14.9764C14.6988 13.746 14.0419 11.9141 13.9791 9.12251L13.9741 8.67371C13.9741 6.48539 12.6935 4.86764 10.6622 4.4416L10.6114 4.43228ZM9.55423 2.24995C9.89753 2.24995 10.1717 2.52 10.1717 2.84825C10.1717 3.1765 9.89753 3.44654 9.55423 3.44654C9.21093 3.44654 8.93673 3.1765 8.93673 2.84825C8.93673 2.52 9.21093 2.24995 9.55423 2.24995ZM9.5541 18.894C10.0126 18.894 10.4538 18.8904 10.8778 18.8829C10.9686 19.071 11.0166 19.2777 11.0166 19.4922C11.0166 20.2803 10.3642 20.9227 9.55407 20.9227C8.74416 20.9227 8.09157 20.2801 8.09157 19.4922C8.09157 19.2778 8.13961 19.0712 8.23062 18.8829C8.37484 18.8854 8.52106 18.8875 8.66927 18.8892L9.5541 18.894Z" fill="#637381"/></svg>
