<svg viewBox="0 0 20 20" fill="none" xmlns="http://www.w3.org/2000/svg"><path d="M3.23077 16.8571V14.2857H6V16.8571H3.23077ZM6.61538 16.8571V14.2857H9.69231V16.8571H6.61538ZM3.23077 13.7143V10.8571H6V13.7143H3.23077ZM6.61538 13.7143V10.8571H9.69231V13.7143H6.61538ZM3.23077 10.2857V7.71429H6V10.2857H3.23077ZM10.3077 16.8571V14.2857H13.3846V16.8571H10.3077ZM6.61538 10.2857V7.71429H9.69231V10.2857H6.61538ZM14 16.8571V14.2857H16.7692V16.8571H14ZM10.3077 13.7143V10.8571H13.3846V13.7143H10.3077ZM6.92308 6C6.92308 6.15179 6.77885 6.28572 6.61538 6.28572H6C5.83654 6.28572 5.69231 6.15179 5.69231 6V3.42857C5.69231 3.27679 5.83654 3.14286 6 3.14286H6.61538C6.77885 3.14286 6.92308 3.27679 6.92308 3.42857V6ZM14 13.7143V10.8571H16.7692V13.7143H14ZM10.3077 10.2857V7.71429H13.3846V10.2857H10.3077ZM14 10.2857V7.71429H16.7692V10.2857H14ZM14.3077 6C14.3077 6.15179 14.1635 6.28572 14 6.28572H13.3846C13.2212 6.28572 13.0769 6.15179 13.0769 6V3.42857C13.0769 3.27679 13.2212 3.14286 13.3846 3.14286H14C14.1635 3.14286 14.3077 3.27679 14.3077 3.42857V6ZM18 5.42857C18 4.80357 17.4423 4.28572 16.7692 4.28572H15.5385V3.42857C15.5385 2.64286 14.8462 2 14 2H13.3846C12.5385 2 11.8462 2.64286 11.8462 3.42857V4.28572H8.15385V3.42857C8.15385 2.64286 7.46154 2 6.61538 2H6C5.15385 2 4.46154 2.64286 4.46154 3.42857V4.28572H3.23077C2.55769 4.28572 2 4.80357 2 5.42857V16.8571C2 17.4821 2.55769 18 3.23077 18H16.7692C17.4423 18 18 17.4821 18 16.8571V5.42857Z" fill="#616161"/></svg>
