<svg viewBox="0 0 20 20" xmlns="http://www.w3.org/2000/svg"><path d="M12.6827 14.3661C12.7981 14.2589 12.7981 14.0804 12.6827 13.9643L10.875 12.2857L12.6827 10.6071C12.7981 10.4911 12.7981 10.3125 12.6827 10.2054L12.2404 9.79464C12.125 9.6875 11.9327 9.6875 11.8077 9.79464L10 11.4732L8.19231 9.79464C8.06731 9.6875 7.875 9.6875 7.75962 9.79464L7.31731 10.2054C7.20192 10.3125 7.20192 10.4911 7.31731 10.6071L9.13462 12.2857L7.31731 13.9643C7.20192 14.0804 7.20192 14.2589 7.31731 14.3661L7.75962 14.7768C7.875 14.8839 8.06731 14.8839 8.19231 14.7768L10 13.0893L11.8077 14.7768C11.9327 14.8839 12.125 14.8839 12.2404 14.7768L12.6827 14.3661ZM3.23077 16.8571V7.71429H16.7692V16.8571H3.23077ZM6.92308 6C6.92308 6.16072 6.78846 6.28572 6.61538 6.28572H6C5.82692 6.28572 5.69231 6.16072 5.69231 6V3.42857C5.69231 3.26786 5.82692 3.14286 6 3.14286H6.61538C6.78846 3.14286 6.92308 3.26786 6.92308 3.42857V6ZM14.3077 6C14.3077 6.16072 14.1731 6.28572 14 6.28572H13.3846C13.2115 6.28572 13.0769 6.16072 13.0769 6V3.42857C13.0769 3.26786 13.2115 3.14286 13.3846 3.14286H14C14.1731 3.14286 14.3077 3.26786 14.3077 3.42857V6ZM18 5.42857C18 4.80357 17.4423 4.28572 16.7692 4.28572H15.5385V3.42857C15.5385 2.64286 14.8462 2 14 2H13.3846C12.5385 2 11.8462 2.64286 11.8462 3.42857V4.28572H8.15385V3.42857C8.15385 2.64286 7.46154 2 6.61538 2H6C5.15385 2 4.46154 2.64286 4.46154 3.42857V4.28572H3.23077C2.55769 4.28572 2 4.80357 2 5.42857V16.8571C2 17.4821 2.55769 18 3.23077 18H16.7692C17.4423 18 18 17.4821 18 16.8571V5.42857Z" fill="#616161"/></svg>
