<svg viewBox="0 0 20 20" xmlns="http://www.w3.org/2000/svg"><path d="M12.2745455,10 L15.6860227,6.58852273 C16.1046591,6.16988636 16.1046591,5.49113636 15.6860227,5.07215909 L14.9278409,4.31397727 C14.5092045,3.89534091 13.8304545,3.89534091 13.4114773,4.31397727 L10,7.72545455 L6.58852273,4.31397727 C6.16988636,3.89534091 5.49113636,3.89534091 5.07215909,4.31397727 L4.31397727,5.07215909 C3.89534091,5.49079545 3.89534091,6.16954545 4.31397727,6.58852273 L7.72545455,10 L4.31397727,13.4114773 C3.89534091,13.8301136 3.89534091,14.5088636 4.31397727,14.9278409 L5.07215909,15.6860227 C5.49079545,16.1046591 6.16988636,16.1046591 6.58852273,15.6860227 L10,12.2745455 L13.4114773,15.6860227 C13.8301136,16.1046591 14.5092045,16.1046591 14.9278409,15.6860227 L15.6860227,14.9278409 C16.1046591,14.5092045 16.1046591,13.8304545 15.6860227,13.4114773 L12.2745455,10 Z" fill="#31373D" fill-rule="evenodd"/></svg>