<svg viewBox="0 0 20 20" fill="none" xmlns="http://www.w3.org/2000/svg"><path fill-rule="evenodd" clip-rule="evenodd" d="M16 2.8H4.00005C2.78502 2.8 1.80005 3.78498 1.80005 5V15C1.80005 16.215 2.78502 17.2 4.00005 17.2H16C17.2151 17.2 18.2 16.215 18.2 15V5C18.2 3.78498 17.2151 2.8 16 2.8ZM3.00005 5C3.00005 4.44772 3.44776 4 4.00005 4H16C16.5523 4 17 4.44772 17 5V15C17 15.5523 16.5523 16 16 16H4.00005C3.44776 16 3.00005 15.5523 3.00005 15V5ZM5.00005 6.70002C5.00005 6.42387 5.22391 6.20002 5.50005 6.20002H14.5C14.7762 6.20002 15 6.42387 15 6.70002V7.30001C15 7.57616 14.7762 7.80002 14.5 7.80002H5.50005C5.22391 7.80002 5.00005 7.57616 5.00005 7.30002V6.70002ZM5.50005 9.20002C5.22391 9.20002 5.00005 9.42387 5.00005 9.70002V10.3C5.00005 10.5762 5.22391 10.8 5.50005 10.8H14.5C14.7762 10.8 15 10.5762 15 10.3V9.70002C15 9.42387 14.7762 9.20002 14.5 9.20002H5.50005ZM5.50005 12.2C5.22391 12.2 5.00005 12.4239 5.00005 12.7V13.3C5.00005 13.5762 5.22391 13.8 5.50005 13.8H9.50005C9.77619 13.8 10 13.5762 10 13.3V12.7C10 12.4239 9.77619 12.2 9.50005 12.2H5.50005Z" fill="#616161"/></svg>