<svg viewBox="0 0 20 20" xmlns="http://www.w3.org/2000/svg"><path d="M8.92307689,10.0228365 L13.8449519,14.9447115 C13.2079326,15.5937499 12.4642427,16.0985576 11.6138822,16.4591345 C10.7635216,16.8197115 9.8665865,16.9999999 8.92307689,16.9999999 C7.66706728,16.9999999 6.50871392,16.6905047 5.44801681,16.0715144 C4.3873197,15.452524 3.54747595,14.6126802 2.92848557,13.5519831 C2.30949519,12.491286 2,11.3329326 2,10.076923 C2,8.82091343 2.30949519,7.66256007 2.92848557,6.60186296 C3.54747595,5.54116585 4.3873197,4.7013221 5.44801681,4.08233172 C6.50871392,3.46334134 7.66706728,3.15384615 8.92307689,3.15384615 L8.92307689,10.0228365 Z M10.608774,10.076923 L17.576923,10.076923 C17.576923,11.0204326 17.3966345,11.9173677 17.0360576,12.7677283 C16.6754807,13.6180889 16.170673,14.3617788 15.5216345,14.998798 L10.608774,10.076923 Z M16.9999999,8.92307689 L10.076923,8.92307689 L10.076923,2 C11.3329326,2 12.491286,2.30949519 13.5519831,2.92848557 C14.6126802,3.54747595 15.452524,4.3873197 16.0715144,5.44801681 C16.6905047,6.50871392 16.9999999,7.66706728 16.9999999,8.92307689 Z" fill="#31373D" fill-rule="evenodd"/></svg>