<svg viewBox="0 0 20 20" xmlns="http://www.w3.org/2000/svg"><path d="M8.88888889,10.3009259 L15.2083333,16.6203704 C14.3904321,17.4537037 13.435571,18.1018519 12.34375,18.5648148 C11.251929,19.0277778 10.1003086,19.2592593 8.88888889,19.2592593 C7.27623457,19.2592593 5.78896605,18.8618827 4.42708333,18.0671296 C3.06520062,17.2723765 1.98688272,16.1940586 1.19212963,14.8321759 C0.397376543,13.4702932 0,11.9830247 0,10.3703704 C0,8.75771605 0.397376543,7.27044753 1.19212963,5.90856481 C1.98688272,4.5466821 3.06520062,3.4683642 4.42708333,2.67361111 C5.78896605,1.87885802 7.27623457,1.48148148 8.88888889,1.48148148 L8.88888889,10.3009259 Z M11.0532407,10.3703704 L20,10.3703704 C20,11.5817901 19.7685185,12.7334105 19.3055556,13.8252315 C18.8425926,14.9170525 18.1944444,15.8719136 17.3611111,16.6898148 L11.0532407,10.3703704 Z M19.2592593,8.88888889 L10.3703704,8.88888889 L10.3703704,0 C11.9830247,0 13.4702932,0.397376543 14.8321759,1.19212963 C16.1940586,1.98688272 17.2723765,3.06520062 18.0671296,4.42708333 C18.8618827,5.78896605 19.2592593,7.27623457 19.2592593,8.88888889 Z" fill="#31373D" fill-rule="evenodd"/></svg>