<svg viewBox="0 0 20 20" xmlns="http://www.w3.org/2000/svg"><path d="M8 15.25L8.12193 14.6115L7.95025 14.5788L7.78527 14.6365L8 15.25ZM4.5 13.7414L5.09045 14.0132L5.31162 13.5328L4.88612 13.2186L4.5 13.7414ZM3 17L2.40955 16.7282L1.76912 18.1195L3.21473 17.6135L3 17ZM17.35 9.22222C17.35 12.1599 14.223 14.7944 10 14.7944V16.0944C14.6179 16.0944 18.65 13.1631 18.65 9.22222H17.35ZM10 14.7944C9.35233 14.7944 8.72288 14.7263 8.12193 14.6115L7.87807 15.8885C8.54984 16.0168 9.26131 16.0944 10 16.0944V14.7944ZM2.65 9.22222C2.65 6.28459 5.77696 3.65 10 3.65V2.35C5.38213 2.35 1.35 5.28138 1.35 9.22222H2.65ZM10 3.65C14.223 3.65 17.35 6.28459 17.35 9.22222H18.65C18.65 5.28138 14.6179 2.35 10 2.35V3.65ZM4.88612 13.2186C3.47491 12.1765 2.65 10.748 2.65 9.22222H1.35C1.35 11.2473 2.44734 13.0337 4.11388 14.2643L4.88612 13.2186ZM3.59045 17.2718L5.09045 14.0132L3.90955 13.4696L2.40955 16.7282L3.59045 17.2718ZM7.78527 14.6365L2.78527 16.3865L3.21473 17.6135L8.21473 15.8635L7.78527 14.6365Z" fill="#616161"/></svg>
