<svg viewBox="0 0 20 20" xmlns="http://www.w3.org/2000/svg"><path d="M17.8571429,20 L2.14285714,20 C0.959375,20 0,19.040625 0,17.8571429 L0,2.14285714 C0,0.959375 0.959375,0 2.14285714,0 L17.8571429,0 C19.040625,0 20,0.959375 20,2.14285714 L20,17.8571429 C20,19.040625 19.040625,20 17.8571429,20 Z M8.719375,15.6223661 L16.9336607,7.40808036 C17.2125893,7.12915179 17.2125893,6.676875 16.9336607,6.39794643 L15.9235268,5.3878125 C15.6445982,5.10888393 15.1923214,5.10883929 14.9133482,5.3878125 L8.21428571,12.0868304 L5.08665179,8.95919643 C4.80772321,8.68026786 4.35544643,8.68026786 4.07647321,8.95919643 L3.06633929,9.96933036 C2.78741071,10.2482589 2.78741071,10.7005357 3.06633929,10.9794643 L7.70919643,15.6223214 C7.98816964,15.9013393 8.44040179,15.9013393 8.719375,15.6223661 Z" fill="#31373D" fill-rule="evenodd"/></svg>