<svg viewBox="0 0 20 20" xmlns="http://www.w3.org/2000/svg"><path d="M15.5,17 L4.5,17 C3.6715625,17 3,16.3284375 3,15.5 L3,4.5 C3,3.6715625 3.6715625,3 4.5,3 L15.5,3 C16.3284375,3 17,3.6715625 17,4.5 L17,15.5 C17,16.3284375 16.3284375,17 15.5,17 Z M9.1035625,13.9356563 L14.8535625,8.18565625 C15.0488125,7.99040625 15.0488125,7.6738125 14.8535625,7.4785625 L14.1464687,6.77146875 C13.9512187,6.57621875 13.634625,6.5761875 13.4393437,6.77146875 L8.75,11.4607813 L6.56065625,9.2714375 C6.36540625,9.0761875 6.0488125,9.0761875 5.85353125,9.2714375 L5.1464375,9.97853125 C4.9511875,10.1737813 4.9511875,10.490375 5.1464375,10.685625 L8.3964375,13.935625 C8.59171875,14.1309375 8.90828125,14.1309375 9.1035625,13.9356562 Z" fill="#31373D" fill-rule="evenodd"/></svg>