<svg viewBox="0 0 20 20" xmlns="http://www.w3.org/2000/svg"><path d="M10,2.0001 C14.418,2.0001 18,5.5811 18,10.0001 C18,14.4181 14.418,18.0001 10,18.0001 C5.582,18.0001 2,14.4181 2,10.0001 C2,5.5811 5.582,2.0001 10,2.0001 Z M9.1035625,13.9356563 L14.8535625,8.18565625 C15.0488125,7.99040625 15.0488125,7.6738125 14.8535625,7.4785625 L14.1464687,6.77146875 C13.9512187,6.57621875 13.634625,6.5761875 13.4393437,6.77146875 L8.75,11.4607813 L6.56065625,9.2714375 C6.36540625,9.0761875 6.0488125,9.0761875 5.85353125,9.2714375 L5.1464375,9.97853125 C4.9511875,10.1737812 4.9511875,10.490375 5.1464375,10.685625 L8.3964375,13.935625 C8.59171875,14.1309375 8.90828125,14.1309375 9.1035625,13.9356562 Z" fill="#31373D" fill-rule="evenodd"/></svg>