<svg viewBox="0 0 20 20" xmlns="http://www.w3.org/2000/svg"><path d="M7.64118532,15.5028076 L3.18631013,10.7189268 C2.93789662,10.4480518 2.93789662,10.0321857 3.18631013,9.76131068 L4.08652532,8.80509454 C4.2023381,8.67972331 4.36525618,8.6084284 4.53593291,8.6084284 C4.70660963,8.6084284 4.86952772,8.67972331 4.98534049,8.80509454 L8.09339295,12.1553511 L15.0123097,4.69742521 C15.1281541,4.57159436 15.2913813,4.5 15.4624173,4.5 C15.6334534,4.5 15.7966806,4.57159436 15.9125249,4.69742521 L16.8127401,5.65504137 C17.0616333,5.92519185 17.0616333,6.34110703 16.8127401,6.61125751 L8.53860047,15.5014076 C8.42278769,15.6267788 8.25986961,15.6980737 8.08919288,15.6980737 C7.91851616,15.6980737 7.75559807,15.6267788 7.6397853,15.5014076" fill="#31373D" fill-rule="evenodd"/></svg>