<svg viewBox="0 0 20 20" xmlns="http://www.w3.org/2000/svg">
<path d="M15.5 3H4.5C3.65625 3 3 3.6875 3 4.5V15.5C3 16.3438 3.65625 17 4.5 17H15.5C16.3125 17 17 16.3438 17 15.5V4.5C17 3.6875 16.3125 3 15.5 3ZM15.5 15.5H4.5V4.5H15.5V15.5ZM14.375 7.96875C14.5 7.8125 14.5 7.59375 14.375 7.4375L13.6562 6.71875C13.5312 6.5625 13.2812 6.5625 13.125 6.71875L8.71875 11.0938L6.84375 9.21875C6.6875 9.0625 6.46875 9.0625 6.3125 9.21875L5.59375 9.90625C5.46875 10.0625 5.46875 10.3125 5.59375 10.4375L8.4375 13.3125C8.59375 13.4688 8.8125 13.4688 8.96875 13.3125L14.375 7.96875Z" fill="#31373D"/>
</svg>
