<svg viewBox="0 0 20 20" xmlns="http://www.w3.org/2000/svg"><path d="M18,10 C18,14.4193548 14.4193548,18 10,18 C5.58064516,18 2,14.4193548 2,10 C2,5.58064516 5.58064516,2 10,2 C14.4193548,2 18,5.58064516 18,10 Z M10.5483871,13.6741935 L14.9193548,9.30322581 C15.2225806,9 15.2225806,8.50967742 14.9193548,8.20967742 L14.3709677,7.66129032 C14.0677419,7.35806452 13.5774194,7.35806452 13.2774194,7.66129032 L10,10.9387097 L6.72258065,7.66129032 C6.41935484,7.35806452 5.92903226,7.35806452 5.62903226,7.66129032 L5.08064516,8.20967742 C4.77741935,8.51290323 4.77741935,9.00322581 5.08064516,9.30322581 L9.4516129,13.6741935 C9.75483871,13.9774194 10.2451613,13.9774194 10.5483871,13.6741935 Z" fill="#31373D" fill-rule="evenodd"/></svg>