<svg viewBox="0 0 20 20" xmlns="http://www.w3.org/2000/svg"><path d="M10,18 C5.58064516,18 2,14.4193548 2,10 C2,5.58064516 5.58064516,2 10,2 C14.4193548,2 18,5.58064516 18,10 C18,14.4193548 14.4193548,18 10,18 Z M6.32580645,10.5483871 L10.6967742,14.9193548 C11,15.2225806 11.4903226,15.2225806 11.7903226,14.9193548 L12.3387097,14.3709677 C12.6419355,14.0677419 12.6419355,13.5774194 12.3387097,13.2774194 L9.06129032,10 L12.3387097,6.72258065 C12.6419355,6.41935484 12.6419355,5.92903226 12.3387097,5.62903226 L11.7903226,5.08064516 C11.4870968,4.77741935 10.9967742,4.77741935 10.6967742,5.08064516 L6.32580645,9.4516129 C6.02258065,9.75483871 6.02258065,10.2451613 6.32580645,10.5483871 Z" fill="#31373D" fill-rule="evenodd"/></svg>