<svg viewBox="0 0 20 20" xmlns="http://www.w3.org/2000/svg"><path d="M2,10 C2,5.58064516 5.58064516,2 10,2 C14.4193548,2 18,5.58064516 18,10 C18,14.4193548 14.4193548,18 10,18 C5.58064516,18 2,14.4193548 2,10 Z M9.4516129,6.32580645 L5.08064516,10.6967742 C4.77741935,11 4.77741935,11.4903226 5.08064516,11.7903226 L5.62903226,12.3387097 C5.93225806,12.6419355 6.42258065,12.6419355 6.72258065,12.3387097 L10,9.06129032 L13.2774194,12.3387097 C13.5806452,12.6419355 14.0709677,12.6419355 14.3709677,12.3387097 L14.9193548,11.7903226 C15.2225806,11.4870968 15.2225806,10.9967742 14.9193548,10.6967742 L10.5483871,6.32580645 C10.2451613,6.02258065 9.75483871,6.02258065 9.4516129,6.32580645 Z" fill="#31373D" fill-rule="evenodd"/></svg>