<svg viewBox="0 0 20 20" xmlns="http://www.w3.org/2000/svg"><path d="M10,2 C14.4193548,2 18,5.58064516 18,10 C18,14.4193548 14.4193548,18 10,18 C5.58064516,18 2,14.4193548 2,10 C2,5.58064516 5.58064516,2 10,2 Z M13.6741935,9.4516129 L9.30322581,5.08064516 C9,4.77741935 8.50967742,4.77741935 8.20967742,5.08064516 L7.66129032,5.62903226 C7.35806452,5.93225806 7.35806452,6.42258065 7.66129032,6.72258065 L10.9387097,10 L7.66129032,13.2774194 C7.35806452,13.5806452 7.35806452,14.0709677 7.66129032,14.3709677 L8.20967742,14.9193548 C8.51290323,15.2225806 9.00322581,15.2225806 9.30322581,14.9193548 L13.6741935,10.5483871 C13.9774194,10.2451613 13.9774194,9.75483871 13.6741935,9.4516129 Z" fill="#31373D" fill-rule="evenodd"/></svg>