<svg viewBox="0 0 20 20" xmlns="http://www.w3.org/2000/svg"><path d="M14.9263839,1.38191262 C15.5749223,1.55811665 16.144134,1.88788809 16.6374133,2.37371444 C17.1290331,2.85790629 17.4569357,3.42169731 17.6240446,4.06906157 C17.7919851,4.71964692 17.7919851,5.368217 17.6240446,6.01880235 C17.4569357,6.6661666 17.1290331,7.22995762 16.6374133,7.71414948 L10.1016513,14.2918414 L9.95990854,14.4281042 C9.51794665,14.8243195 8.98499778,15.0189831 8.35481898,15.0092853 C7.65874918,14.9985736 7.08536404,14.755796 6.62023256,14.276385 C6.15476839,13.7966312 5.93015274,13.2277748 5.94098573,12.5556082 C5.95183193,11.8826218 6.19290453,11.3180655 6.66978599,10.8483892 L11.7779096,5.67675265 L11.8327142,5.64551554 C11.8801233,5.61917095 11.9500915,5.59813496 12.0295266,5.59211689 C12.110656,5.58597046 12.1772025,5.61161697 12.2458114,5.67918926 L13.0710039,6.45666272 L13.1196887,6.5130465 C13.1512304,6.55526807 13.1709517,6.61256689 13.1709517,6.67908705 C13.1709517,6.76269587 13.1394828,6.83398058 13.0670053,6.90536308 L7.92379074,12.076381 L7.84361215,12.1898182 C7.77465202,12.313522 7.73915062,12.4336192 7.72713759,12.5637659 C7.708537,12.765281 7.76937801,12.9450463 7.90776561,13.081343 C8.03674918,13.2083777 8.19438643,13.276302 8.36882424,13.276302 C8.55627262,13.276302 8.71806903,13.1913144 8.83550104,13.0371041 L15.3473199,6.5217082 L15.4840905,6.36627483 C15.7998171,5.97277139 15.9560128,5.53177563 15.9560128,5.04393196 C15.9560128,4.48611606 15.7577297,4.00126508 15.3667234,3.60288717 C14.9750204,3.20379957 14.5003424,3.00053605 13.9565129,3.00053605 C13.4138455,3.00053605 12.9345999,3.20282374 12.5314441,3.59988827 L5.0319146,11.126781 L4.87694763,11.2945716 C4.31228256,11.9448435 4.03070701,12.7055375 4.03070701,13.5713537 C4.03070701,14.5155474 4.35958416,15.3284933 5.01234222,15.9966004 C5.666174,16.6658065 6.46249508,17.0037523 7.38696202,17.0037523 C8.31109182,17.0037523 9.10160407,16.6719035 9.74379566,16.0141153 L15.8834745,9.82658695 L15.9426367,9.77669315 C15.9866914,9.74474029 16.0467927,9.7246748 16.1166097,9.7246748 C16.2042206,9.7246748 16.278573,9.7565135 16.3517807,9.82861509 L17.1769732,10.6060886 L17.225658,10.6624723 C17.2571996,10.7046939 17.2769209,10.7619927 17.2769209,10.8285129 C17.2769209,10.9121217 17.2454521,10.9834064 17.1729745,11.0547889 L11.029837,17.2457912 L10.8226445,17.4461518 C10.2144162,18.0042067 9.50676375,18.3850047 8.70108603,18.585892 C7.80171604,18.8101404 6.91030863,18.8045484 6.02287515,18.569234 C5.13826477,18.3346681 4.36838189,17.8830629 3.70934103,17.2115973 C3.07401666,16.5635247 2.64368904,15.7939463 2.41648163,14.8988482 C2.18898992,14.0026302 2.19466208,13.1143843 2.43338159,12.2299128 C2.67171612,11.3468676 3.119009,10.5829024 3.77775546,9.93410897 L11.2424113,2.37121416 L11.4348971,2.19331847 C11.8780515,1.80816005 12.3900698,1.53648479 12.9677534,1.38219182 C13.627493,1.20598259 14.278854,1.20598259 14.9263839,1.38191262 Z" fill="#31373D" fill-rule="evenodd"/></svg>
