<svg viewBox="0 0 20 20" xmlns="http://www.w3.org/2000/svg"><path fill-rule="evenodd" clip-rule="evenodd" d="M2 10C2 5.58873 5.58873 2 10 2C14.4113 2 18 5.58873 18 10C18 14.4113 14.4113 18 10 18C5.58873 18 2 14.4113 2 10ZM3.74863 10C3.74863 13.4471 6.55291 16.2514 10 16.2514C13.4471 16.2514 16.2514 13.4471 16.2514 10C16.2514 6.55308 13.4471 3.74863 10 3.74863C6.55291 3.74863 3.74863 6.55308 3.74863 10ZM10.6925 6.65665V10.0096L13.0181 12.3352C13.2829 12.5998 13.2827 13.0289 13.0181 13.2936C12.7536 13.5584 12.3245 13.5584 12.0597 13.2936L9.53556 10.7697C9.39481 10.6289 9.33133 10.4418 9.34024 10.2575C9.34001 10.2527 9.33936 10.248 9.3387 10.2434C9.3379 10.2377 9.3371 10.232 9.3371 10.2261V6.65665C9.3371 6.28226 9.64051 5.97888 10.0149 5.97888C10.3891 5.97888 10.6925 6.28226 10.6925 6.65665Z" fill="#616161"/></svg>
