<svg viewBox="0 0 20 20" fill="none" xmlns="http://www.w3.org/2000/svg"><path fill-rule="evenodd" clip-rule="evenodd" d="M11.4141 10L17.7071 3.70701C18.0981 3.31601 18.0981 2.68401 17.7071 2.29301C17.3161 1.90201 16.6841 1.90201 16.2931 2.29301L10.0001 8.58601L3.7071 2.29301C3.3161 1.90201 2.6841 1.90201 2.2931 2.29301C1.9021 2.68401 1.9021 3.31601 2.2931 3.70701L8.5861 10L2.2931 16.293C1.9021 16.684 1.9021 17.316 2.2931 17.707C2.4881 17.902 2.7441 18 3.0001 18C3.2561 18 3.5121 17.902 3.7071 17.707L10.0001 11.414L16.2931 17.707C16.4881 17.902 16.7441 18 17.0001 18C17.2561 18 17.5121 17.902 17.7071 17.707C18.0981 17.316 18.0981 16.684 17.7071 16.293L11.4141 10Z" fill="#616161"/></svg>
