<svg viewBox="0 0 20 20" fill="none" xmlns="http://www.w3.org/2000/svg"><path fill-rule="evenodd" clip-rule="evenodd" d="M8.51845 3.5C5.83265 3.5 3.88561 5.60949 3.6469 7.96043C2.18401 8.65015 1 10.3042 1 12.174C1 14.6351 2.81811 16.767 5.36977 16.767H14.445C17.1044 16.767 19 14.7778 19 12.3551C19 10.6162 17.9149 8.89833 16.4327 8.23135C16.2108 7.16885 15.61 6.29683 14.7721 5.79405C14.0284 5.34786 13.1629 5.20997 12.3334 5.35479C11.4924 4.29403 10.1723 3.5 8.51845 3.5ZM4.87126 8.39852C4.89719 6.49746 6.42413 4.74873 8.51845 4.74873C9.8765 4.74873 10.9336 5.46489 11.5508 6.40118L11.8071 6.78998L12.2529 6.65515C12.8969 6.46033 13.5757 6.5325 14.1296 6.86484C14.6994 7.20672 15.1486 7.86659 15.2547 8.75885L15.3022 9.15858L15.6859 9.2803C16.7788 9.62695 17.7513 10.9577 17.7513 12.3551C17.7513 14.0795 16.4234 15.5183 14.445 15.5183H5.36977C3.59978 15.5183 2.24873 14.0412 2.24873 12.174C2.24873 10.6801 3.30558 9.36872 4.44756 8.98126L4.86524 8.83954L4.87126 8.39852ZM9.62764 14.5752C9.59953 14.6595 9.51522 14.7157 9.41686 14.6876L8.55972 14.4347C8.47541 14.4066 8.4192 14.3223 8.44731 14.2239L10.3724 7.61972C10.4005 7.53541 10.4848 7.47921 10.5831 7.50731L11.4403 7.76024C11.5246 7.77429 11.5808 7.87265 11.5527 7.97101L9.62764 14.5752ZM8.43326 12.4534L7.81499 13.1139C7.75878 13.1841 7.64637 13.1841 7.57611 13.1139L5.55269 11.2169C5.48244 11.1467 5.48244 11.0342 5.55269 10.978L7.57611 9.08108C7.64637 9.01082 7.75878 9.01082 7.81499 9.08108L8.43326 9.7415C8.50351 9.79771 8.48946 9.91012 8.4192 9.98038L7.15457 11.0904L8.4192 12.2146C8.48946 12.2848 8.50351 12.3832 8.43326 12.4534ZM14.4473 11.2169L12.4239 13.1139C12.3536 13.1841 12.2412 13.1841 12.185 13.1139L11.5667 12.4534C11.4965 12.3832 11.5105 12.2848 11.5808 12.2146L12.8595 11.0904L11.5808 9.98038C11.5105 9.91012 11.5105 9.79771 11.5667 9.72745L12.185 9.08108C12.2412 9.01082 12.3536 9.01082 12.4239 9.08108L14.4473 10.978C14.5176 11.0342 14.5176 11.1607 14.4473 11.2169Z" fill="#616161"/></svg>
