<svg viewBox="0 0 20 20" fill="none" xmlns="http://www.w3.org/2000/svg"><path d="M8.83372 17.1753C9.03045 17.2315 9.19906 17.1191 9.25527 16.9505L13.1054 3.74202C13.1616 3.5453 13.0492 3.34858 12.8806 3.32048L11.1663 2.81462C10.9696 2.75842 10.8009 2.87083 10.7447 3.03945L6.89461 16.2479C6.83841 16.4446 6.95082 16.6132 7.11944 16.6694L8.83372 17.1753ZM5.62998 14.0277L6.86651 12.7069C7.00703 12.5664 6.97892 12.3697 6.83841 12.2291L4.30913 9.9809L6.83841 7.76076C6.97892 7.62024 7.00703 7.39542 6.86651 7.28301L5.62998 5.96216C5.51756 5.82165 5.29274 5.82165 5.15223 5.96216L1.10539 9.75608C0.964871 9.86849 0.964871 10.0933 1.10539 10.2338L5.15223 14.0277C5.29274 14.1683 5.51756 14.1683 5.62998 14.0277ZM14.8478 14.0277L18.8946 10.2338C19.0351 10.1214 19.0351 9.86849 18.8946 9.75608L14.8478 5.96216C14.7073 5.82165 14.4824 5.82165 14.37 5.96216L13.1335 7.25491C13.0211 7.39542 13.0211 7.62024 13.1616 7.76076L15.719 9.9809L13.1616 12.2291C13.0211 12.3697 12.993 12.5664 13.1335 12.7069L14.37 14.0277C14.4824 14.1683 14.7073 14.1683 14.8478 14.0277Z" fill="#616161"/></svg>
