<svg viewBox="0 0 20 20" xmlns="http://www.w3.org/2000/svg"><path d="M14.5714436,8.57143402 C14.5714436,11.0982227 11.7589402,13.142868 8.28572178,13.142868 C7.74107827,13.142868 7.21429193,13.0892965 6.71429133,13.0000107 C5.97321902,13.5267971 5.13393231,13.9107261 4.23214552,14.1428692 C3.9910738,14.2053693 3.73214492,14.2500122 3.46428746,14.2857265 L3.43750171,14.2857265 C3.30357298,14.2857265 3.17857283,14.1785836 3.15178709,14.0267977 C3.11607276,13.8571546 3.23214433,13.7500116 3.33035873,13.6339401 C3.67857343,13.2410824 4.07143104,12.8928677 4.37500283,12.1517954 C2.92857254,11.3125087 2,10.0178643 2,8.57143402 C2,6.04464529 4.81250335,4 8.28572178,4 C11.7589402,4 14.5714436,6.04464529 14.5714436,8.57143402 Z M18.0000191,10.857151 C18.0000191,12.3125099 17.0714465,13.5982257 15.6250162,14.4375124 C15.928588,15.1785848 16.3214456,15.5267995 16.6696603,15.9196571 C16.7678747,16.0357286 16.8839463,16.1428716 16.848232,16.3125147 C16.8125177,16.4732292 16.6785889,16.5893007 16.5357316,16.5714436 C16.2678742,16.5357292 16.0089453,16.4910863 15.7678736,16.4285862 C14.8660868,16.1964431 14.0268001,15.8125141 13.2857277,15.2857277 C12.7857271,15.3750136 12.2589408,15.4285851 11.7142973,15.4285851 C10.0982239,15.4285851 8.61607932,14.9821559 7.50000656,14.2500122 C7.75893544,14.2678694 8.0267929,14.2857265 8.28572178,14.2857265 C10.2053669,14.2857265 12.0178691,13.7321545 13.4017993,12.7321533 C14.8928725,11.6428663 15.7143021,10.1696502 15.7143021,8.57143402 C15.7143021,8.10714775 15.6428734,7.65179007 15.5089447,7.21428955 C17.017875,8.04464768 18.0000191,9.36607783 18.0000191,10.857151 Z" fill="#31373D" fill-rule="evenodd"/></svg>