<svg viewBox="0 0 20 20" fill="none" xmlns="http://www.w3.org/2000/svg"><path fill-rule="evenodd" clip-rule="evenodd" d="M10 17C9.44772 17 9.00001 16.5523 9.00001 16V4C9.00001 3.44772 9.44772 3 10 3C10.5523 3 11 3.44772 11 4V16C11 16.5523 10.5523 17 10 17ZM3.29276 13.7069C3.68376 14.0979 4.31576 14.0979 4.70676 13.7069L7.70676 10.7069C8.09776 10.3159 8.09776 9.68388 7.70676 9.29288L4.70676 6.29288C4.31576 5.90188 3.68376 5.90188 3.29276 6.29288C2.90176 6.68388 2.90176 7.31588 3.29276 7.70688L4.58576 8.99988H1.99976C1.44776 8.99988 0.999756 9.44688 0.999756 9.99988C0.999756 10.5529 1.44776 10.9999 1.99976 10.9999L4.58576 10.9999L3.29276 12.2929C3.09776 12.4879 2.99976 12.7439 2.99976 12.9999C2.99976 13.2559 3.09776 13.5119 3.29276 13.7069ZM15.2933 6.29287C15.6843 5.90187 16.3163 5.90187 16.7073 6.29287C16.9023 6.48787 17.0003 6.74387 17.0003 6.99987C17.0003 7.25587 16.9023 7.51187 16.7073 7.70687L15.4143 8.99987H18.0003C18.5523 8.99987 19.0003 9.44687 19.0003 9.99987C19.0003 10.5529 18.5523 10.9999 18.0003 10.9999H15.4143L16.7073 12.2929C17.0983 12.6839 17.0983 13.3159 16.7073 13.7069C16.3163 14.0979 15.6843 14.0979 15.2933 13.7069L12.2933 10.7069C11.9023 10.3159 11.9023 9.68387 12.2933 9.29287L15.2933 6.29287Z" fill="#616161"/></svg>
