<svg viewBox="0 0 20 20" fill="none" xmlns="http://www.w3.org/2000/svg"><path fill-rule="evenodd" clip-rule="evenodd" d="M4 3.8C4 3.63431 4.13431 3.5 4.3 3.5H5C7.30599 3.5 8.46008 5.31993 9.26225 6.58488L9.34366 6.71312C10.288 8.19705 10.8852 9 12 9H12.7C12.8657 9 13 8.86569 13 8.7V7.16113C13 6.90338 13.3036 6.76563 13.4976 6.93536L16.742 9.77423C16.8786 9.89375 16.8786 10.1062 16.742 10.2258L13.4976 13.0646C13.3036 13.2344 13 13.0966 13 12.8389V11.3C13 11.1343 12.8657 11 12.7 11H12C10.8852 11 10.288 11.8029 9.34366 13.2869L9.26225 13.4151C8.46008 14.6801 7.30599 16.5 5 16.5H4.3C4.13431 16.5 4 16.3657 4 16.2V14.8C4 14.6343 4.13431 14.5 4.3 14.5H5C6.11483 14.5 6.71202 13.6971 7.65634 12.2131L7.73775 12.0849C8.10322 11.5086 8.54173 10.8171 9.12894 10.235C9.25841 10.1066 9.25841 9.89338 9.12894 9.76504C8.54173 9.18293 8.10322 8.49143 7.73775 7.91512L7.65634 7.78688C6.71202 6.30295 6.11483 5.5 5 5.5H4.3C4.13431 5.5 4 5.36569 4 5.2V3.8Z" fill="#616161"/></svg>
