<svg viewBox="0 0 20 20" xmlns="http://www.w3.org/2000/svg"><path d="M14.1363636,17 C15.7173295,17 17,15.7173295 17,14.1363636 L17,5.86363636 C17,4.28267045 15.7173295,3 14.1363636,3 L5.86363636,3 C4.28267045,3 3,4.28267045 3,5.86363636 L3,14.1363636 C3,15.7173295 4.28267045,17 5.86363636,17 L14.1363636,17 Z M14.1363636,15.7272727 L5.86363636,15.7272727 C4.98863636,15.7272727 4.27272727,15.0113636 4.27272727,14.1363636 L4.27272727,5.86363636 C4.27272727,4.98863636 4.98863636,4.27272727 5.86363636,4.27272727 L14.1363636,4.27272727 C15.0113636,4.27272727 15.7272727,4.98863636 15.7272727,5.86363636 L15.7272727,14.1363636 C15.7272727,15.0113636 15.0113636,15.7272727 14.1363636,15.7272727 Z" fill="#31373D" fill-rule="evenodd"/></svg>