<svg viewBox="0 0 20 20" fill="none" xmlns="http://www.w3.org/2000/svg"><path fill-rule="evenodd" clip-rule="evenodd" d="M10.0462 14.8528C10.1082 14.4225 10.231 14.0119 10.4057 13.63C10.1205 13.4942 9.81614 13.3037 9.70117 13.0737C9.59863 12.8687 9.42774 12.8345 9.35938 12.8345C9.25684 12.8345 9.08594 12.8687 8.9834 13.0396L8.74414 13.5864C8.50488 13.9966 7.88965 13.9624 7.71875 13.5181L7.17188 11.7749L6.7959 12.8687C6.59082 13.4839 6.04395 13.8599 5.39453 13.8599H4.98438C4.67676 13.8599 4.4375 13.6206 4.4375 13.313C4.4375 13.0396 4.67676 12.7661 4.98438 12.7661H5.39453C5.56543 12.7661 5.70215 12.6636 5.77051 12.5269L6.38574 10.647C6.48828 10.3052 6.7959 10.1001 7.17188 10.1001C7.51367 10.1001 7.82129 10.3052 7.92383 10.647L8.40234 12.0825C9.08594 11.5356 10.248 11.7407 10.6582 12.561C10.7229 12.6904 10.8562 12.7604 10.9791 12.6973C11.6782 11.8202 12.6983 11.2102 13.8614 11.045V5.71429H10.1472C9.67394 5.71429 9.29001 5.33036 9.29001 4.85715V1.14286H3.14V14.8572C8.41214 14.8602 9.72558 14.8551 10.0462 14.8528ZM10.0275 16H2.86C2.38678 16 2 15.6161 2 15.1429V0.857144C2 0.383929 2.38678 0 2.86 0H10.1472C10.6204 0 11.2811 0.276786 11.6114 0.607144L14.3972 3.39286C14.7275 3.72322 15.0043 4.38393 15.0043 4.85715V11.0279C17.2522 11.2786 19 13.1852 19 15.5C19 17.9853 16.9853 20 14.5 20C12.1837 20 10.2762 18.25 10.0275 16ZM10.4329 4.57143H13.79C13.7364 4.41965 13.6561 4.26786 13.5936 4.20536L10.7989 1.41072C10.7364 1.34822 10.5847 1.26786 10.4329 1.21429V4.57143ZM16.8958 14.875C16.9653 14.9271 17 14.9965 17 15.0833V15.9167C17 16.0035 16.9653 16.0816 16.8958 16.151C16.8438 16.2031 16.7743 16.2292 16.6875 16.2292H15.2292V17.6875C15.2292 17.7743 15.1944 17.8524 15.125 17.9219C15.0729 17.974 15.0035 18 14.9167 18H14.0833C13.9965 18 13.9184 17.974 13.849 17.9219C13.7969 17.8524 13.7708 17.7743 13.7708 17.6875V16.2292H12.3125C12.2257 16.2292 12.1476 16.2031 12.0781 16.151C12.026 16.0816 12 16.0035 12 15.9167V15.0833C12 14.9965 12.026 14.9271 12.0781 14.875C12.1476 14.8056 12.2257 14.7708 12.3125 14.7708H13.7708V13.3125C13.7708 13.2257 13.7969 13.1562 13.849 13.1042C13.9184 13.0347 13.9965 13 14.0833 13H14.9167C15.0035 13 15.0729 13.0347 15.125 13.1042C15.1944 13.1562 15.2292 13.2257 15.2292 13.3125V14.7708H16.6875C16.7743 14.7708 16.8438 14.8056 16.8958 14.875ZM18 15.5C18 17.433 16.433 19 14.5 19C12.567 19 11 17.433 11 15.5C11 13.567 12.567 12 14.5 12C16.433 12 18 13.567 18 15.5Z" fill="#616161"/></svg>
