<svg viewBox="0 0 20 20" fill="none" xmlns="http://www.w3.org/2000/svg"><path fill-rule="evenodd" clip-rule="evenodd" d="M15 3.16112C15 2.90337 15.3036 2.76562 15.4976 2.93535L18.742 5.77421C18.8786 5.89374 18.8786 6.10624 18.742 6.22576L15.4976 9.06463C15.3036 9.23436 15 9.0966 15 8.83886V7.29999C15 7.1343 14.8657 6.99999 14.7 6.99999H14C13.5061 6.99999 12.8995 7.28924 12.1244 7.99119C11.3642 8.67966 10.6018 9.61431 9.77611 10.6306L9.74662 10.6669C8.95563 11.6405 8.10321 12.6896 7.21815 13.4912C6.33698 14.2892 5.25606 15 4 15H2.3C2.13431 15 2 14.8657 2 14.7V13.3C2 13.1343 2.13431 13 2.3 13H4C4.49394 13 5.10052 12.7107 5.8756 12.0088C6.63578 11.3203 7.39817 10.3857 8.22389 9.3694L8.25338 9.3331C9.04437 8.35952 9.89679 7.31034 10.7818 6.50878C11.663 5.71073 12.7439 4.99999 14 4.99999H14.7C14.8657 4.99999 15 4.86567 15 4.69999V3.16112ZM10.7818 13.4912C10.4014 13.1466 10.027 12.7563 9.66087 12.3459C9.95262 11.9993 10.2331 11.654 10.4994 11.3262L10.4994 11.3262L10.5522 11.2612C10.6865 11.096 10.8175 10.9349 10.9456 10.7784C11.3446 11.2384 11.7348 11.6559 12.1244 12.0088C12.8995 12.7107 13.5061 13 14 13H14.7C14.8657 13 15 12.8657 15 12.7V11.1611C15 10.9034 15.3036 10.7656 15.4976 10.9354L18.742 13.7742C18.8786 13.8938 18.8786 14.1062 18.742 14.2258L15.4976 17.0646C15.3036 17.2344 15 17.0966 15 16.8389V15.3C15 15.1343 14.8657 15 14.7 15H14C12.7439 15 11.663 14.2893 10.7818 13.4912ZM7.21815 6.5088C7.59861 6.85336 7.97303 7.24367 8.33913 7.65407C8.04738 8.00072 7.7669 8.34598 7.50057 8.67383L7.44777 8.73881C7.31354 8.90402 7.18255 9.06505 7.05437 9.22158C6.65538 8.76156 6.2652 8.34405 5.8756 7.9912C5.10052 7.28925 4.49394 7 4 7H2.3C2.13431 7 2 6.86569 2 6.7V5.3C2 5.13431 2.13431 5 2.3 5H4C5.25606 5 6.33698 5.71075 7.21815 6.5088Z" fill="#616161"/></svg>
