<svg viewBox="0 0 20 20" xmlns="http://www.w3.org/2000/svg"><path d="M9.85714286,8.85714286 C11.2678571,8.85714286 12.5863095,8.72916667 13.8125,8.47321429 C15.0386905,8.2172619 16.0059524,7.83928571 16.7142857,7.33928571 L16.7142857,8.85714286 C16.7142857,9.26785714 16.4077381,9.64880952 15.7946429,10 C15.1815476,10.3511905 14.3482143,10.6294643 13.2946429,10.8348214 C12.2410714,11.0401786 11.0952381,11.1428571 9.85714286,11.1428571 C8.61904762,11.1428571 7.47321429,11.0401786 6.41964286,10.8348214 C5.36607143,10.6294643 4.5327381,10.3511905 3.91964286,10 C3.30654762,9.64880952 3,9.26785714 3,8.85714286 L3,7.33928571 C3.70833333,7.83928571 4.67559524,8.2172619 5.90178571,8.47321429 C7.12797619,8.72916667 8.44642857,8.85714286 9.85714286,8.85714286 Z M9.85714286,15.7142857 C11.2678571,15.7142857 12.5863095,15.5863095 13.8125,15.3303571 C15.0386905,15.0744048 16.0059524,14.6964286 16.7142857,14.1964286 L16.7142857,15.7142857 C16.7142857,16.125 16.4077381,16.5059524 15.7946429,16.8571429 C15.1815476,17.2083333 14.3482143,17.4866071 13.2946429,17.6919643 C12.2410714,17.8973214 11.0952381,18 9.85714286,18 C8.61904762,18 7.47321429,17.8973214 6.41964286,17.6919643 C5.36607143,17.4866071 4.5327381,17.2083333 3.91964286,16.8571429 C3.30654762,16.5059524 3,16.125 3,15.7142857 L3,14.1964286 C3.70833333,14.6964286 4.67559524,15.0744048 5.90178571,15.3303571 C7.12797619,15.5863095 8.44642857,15.7142857 9.85714286,15.7142857 Z M9.85714286,12.2857143 C11.2678571,12.2857143 12.5863095,12.1577381 13.8125,11.9017857 C15.0386905,11.6458333 16.0059524,11.2678571 16.7142857,10.7678571 L16.7142857,12.2857143 C16.7142857,12.6964286 16.4077381,13.077381 15.7946429,13.4285714 C15.1815476,13.7797619 14.3482143,14.0580357 13.2946429,14.2633929 C12.2410714,14.46875 11.0952381,14.5714286 9.85714286,14.5714286 C8.61904762,14.5714286 7.47321429,14.46875 6.41964286,14.2633929 C5.36607143,14.0580357 4.5327381,13.7797619 3.91964286,13.4285714 C3.30654762,13.077381 3,12.6964286 3,12.2857143 L3,10.7678571 C3.70833333,11.2678571 4.67559524,11.6458333 5.90178571,11.9017857 C7.12797619,12.1577381 8.44642857,12.2857143 9.85714286,12.2857143 Z M9.85714286,2 C11.0952381,2 12.2410714,2.10267857 13.2946429,2.30803571 C14.3482143,2.51339286 15.1815476,2.79166667 15.7946429,3.14285714 C16.4077381,3.49404762 16.7142857,3.875 16.7142857,4.28571429 L16.7142857,5.42857143 C16.7142857,5.83928571 16.4077381,6.2202381 15.7946429,6.57142857 C15.1815476,6.92261905 14.3482143,7.20089286 13.2946429,7.40625 C12.2410714,7.61160714 11.0952381,7.71428571 9.85714286,7.71428571 C8.61904762,7.71428571 7.47321429,7.61160714 6.41964286,7.40625 C5.36607143,7.20089286 4.5327381,6.92261905 3.91964286,6.57142857 C3.30654762,6.2202381 3,5.83928571 3,5.42857143 L3,4.28571429 C3,3.875 3.30654762,3.49404762 3.91964286,3.14285714 C4.5327381,2.79166667 5.36607143,2.51339286 6.41964286,2.30803571 C7.47321429,2.10267857 8.61904762,2 9.85714286,2 Z" fill="#31373D" fill-rule="evenodd"/></svg>