<svg viewBox="0 0 20 20" xmlns="http://www.w3.org/2000/svg"><path d="M9.57142857,8.57142857 C11.3348214,8.57142857 12.9828869,8.41145833 14.515625,8.09151786 C16.0483631,7.77157738 17.2574405,7.29910714 18.1428571,6.67410714 L18.1428571,8.57142857 C18.1428571,9.08482143 17.7596726,9.5610119 16.9933036,10 C16.2269345,10.4389881 15.1852679,10.7868304 13.8683036,11.0435268 C12.5513393,11.3002232 11.1190476,11.4285714 9.57142857,11.4285714 C8.02380952,11.4285714 6.59151786,11.3002232 5.27455357,11.0435268 C3.95758929,10.7868304 2.91592262,10.4389881 2.14955357,10 C1.38318452,9.5610119 1,9.08482143 1,8.57142857 L1,6.67410714 C1.88541667,7.29910714 3.09449405,7.77157738 4.62723214,8.09151786 C6.15997024,8.41145833 7.80803571,8.57142857 9.57142857,8.57142857 Z M9.57142857,17.1428571 C11.3348214,17.1428571 12.9828869,16.9828869 14.515625,16.6629464 C16.0483631,16.343006 17.2574405,15.8705357 18.1428571,15.2455357 L18.1428571,17.1428571 C18.1428571,17.65625 17.7596726,18.1324405 16.9933036,18.5714286 C16.2269345,19.0104167 15.1852679,19.3582589 13.8683036,19.6149554 C12.5513393,19.8716518 11.1190476,20 9.57142857,20 C8.02380952,20 6.59151786,19.8716518 5.27455357,19.6149554 C3.95758929,19.3582589 2.91592262,19.0104167 2.14955357,18.5714286 C1.38318452,18.1324405 1,17.65625 1,17.1428571 L1,15.2455357 C1.88541667,15.8705357 3.09449405,16.343006 4.62723214,16.6629464 C6.15997024,16.9828869 7.80803571,17.1428571 9.57142857,17.1428571 Z M9.57142857,12.8571429 C11.3348214,12.8571429 12.9828869,12.6971726 14.515625,12.3772321 C16.0483631,12.0572917 17.2574405,11.5848214 18.1428571,10.9598214 L18.1428571,12.8571429 C18.1428571,13.3705357 17.7596726,13.8467262 16.9933036,14.2857143 C16.2269345,14.7247024 15.1852679,15.0725446 13.8683036,15.3292411 C12.5513393,15.5859375 11.1190476,15.7142857 9.57142857,15.7142857 C8.02380952,15.7142857 6.59151786,15.5859375 5.27455357,15.3292411 C3.95758929,15.0725446 2.91592262,14.7247024 2.14955357,14.2857143 C1.38318452,13.8467262 1,13.3705357 1,12.8571429 L1,10.9598214 C1.88541667,11.5848214 3.09449405,12.0572917 4.62723214,12.3772321 C6.15997024,12.6971726 7.80803571,12.8571429 9.57142857,12.8571429 Z M9.57142857,0 C11.1190476,0 12.5513393,0.128348214 13.8683036,0.385044643 C15.1852679,0.641741071 16.2269345,0.989583333 16.9933036,1.42857143 C17.7596726,1.86755952 18.1428571,2.34375 18.1428571,2.85714286 L18.1428571,4.28571429 C18.1428571,4.79910714 17.7596726,5.27529762 16.9933036,5.71428571 C16.2269345,6.15327381 15.1852679,6.50111607 13.8683036,6.7578125 C12.5513393,7.01450893 11.1190476,7.14285714 9.57142857,7.14285714 C8.02380952,7.14285714 6.59151786,7.01450893 5.27455357,6.7578125 C3.95758929,6.50111607 2.91592262,6.15327381 2.14955357,5.71428571 C1.38318452,5.27529762 1,4.79910714 1,4.28571429 L1,2.85714286 C1,2.34375 1.38318452,1.86755952 2.14955357,1.42857143 C2.91592262,0.989583333 3.95758929,0.641741071 5.27455357,0.385044643 C6.59151786,0.128348214 8.02380952,0 9.57142857,0 Z" fill="#31373D" fill-rule="evenodd"/></svg>