<svg width="16" height="16" viewBox="0 0 16 16" fill="none" xmlns="http://www.w3.org/2000/svg">
<path fill-rule="evenodd" clip-rule="evenodd" d="M16 3.42857C16 2.80357 15.4423 2.28572 14.7692 2.28572H13.5385V1.42857C13.5385 0.642858 12.8462 0 12 0H11.3846C10.5385 0 9.84615 0.642858 9.84615 1.42857V2.28572H6.15385V1.42857C6.15385 0.642858 5.46154 0 4.61538 0H4C3.15385 0 2.46154 0.642858 2.46154 1.42857V2.28572H1.23077C0.557692 2.28572 0 2.80357 0 3.42857V14.8571C0 15.4821 0.557692 16 1.23077 16H14.7692C15.4423 16 16 15.4821 16 14.8571V3.42857ZM14.7692 14.8572H1.23077V5.71429H14.7692V14.8572ZM12 4.28574C12.1634 4.28574 12.3077 4.15181 12.3077 4.00003V1.4286C12.3077 1.27681 12.1634 1.14288 12 1.14288H11.3846C11.2211 1.14288 11.0769 1.27681 11.0769 1.4286V4.00003C11.0769 4.15181 11.2211 4.28574 11.3846 4.28574H12ZM4.92309 4.00003C4.92309 4.15181 4.77886 4.28574 4.6154 4.28574H4.00001C3.83655 4.28574 3.69232 4.15181 3.69232 4.00003V1.4286C3.69232 1.27681 3.83655 1.14288 4.00001 1.14288H4.6154C4.77886 1.14288 4.92309 1.27681 4.92309 1.4286V4.00003Z" fill="#616161"/>
</svg>
