<svg viewBox="0 0 20 20" fill="none" xmlns="http://www.w3.org/2000/svg"><path d="M11.375 15H12.125C12.3125 15 12.5 14.8438 12.5 14.625V7.875C12.5 7.6875 12.3125 7.5 12.125 7.5H11.375C11.1562 7.5 11 7.6875 11 7.875V14.625C11 14.8438 11.1562 15 11.375 15ZM16.5 4.5H13.9062L12.8438 2.75C12.5938 2.3125 12.0938 2 11.5625 2H8.40625C7.875 2 7.375 2.3125 7.125 2.75L6.0625 4.5H3.5C3.21875 4.5 3 4.75 3 5V5.5C3 5.78125 3.21875 6 3.5 6H4V16.5C4 17.3438 4.65625 18 5.5 18H14.5C15.3125 18 16 17.3438 16 16.5V6H16.5C16.75 6 17 5.78125 17 5.5V5C17 4.75 16.75 4.5 16.5 4.5ZM8.34375 3.59375C8.375 3.5625 8.4375 3.5 8.5 3.5C8.5 3.5 8.5 3.5 8.53125 3.5H11.4688C11.5312 3.5 11.5938 3.5625 11.625 3.59375L12.1562 4.5H7.8125L8.34375 3.59375ZM14.5 16.5H5.5V6H14.5V16.5ZM7.875 15H8.625C8.8125 15 9 14.8438 9 14.625V7.875C9 7.6875 8.8125 7.5 8.625 7.5H7.875C7.65625 7.5 7.5 7.6875 7.5 7.875V14.625C7.5 14.8438 7.65625 15 7.875 15Z" fill="#616161"/></svg>