<svg viewBox="0 0 20 20" fill="none" xmlns="http://www.w3.org/2000/svg"><path d="M16.5625 3H3.4375C2.69922 3 2.125 3.60156 2.125 4.3125V13.0625C2.125 13.8008 2.69922 14.375 3.4375 14.375H8.6875L8.25 15.6875H6.28125C5.89844 15.6875 5.625 15.9883 5.625 16.3438C5.625 16.7266 5.89844 17 6.28125 17H13.7188C14.0742 17 14.375 16.7266 14.375 16.3438C14.375 15.9883 14.0742 15.6875 13.7188 15.6875H11.75L11.3125 14.375H16.5625C17.2734 14.375 17.875 13.8008 17.875 13.0625V4.3125C17.875 3.60156 17.2734 3 16.5625 3ZM16.125 12.625H3.875V4.75H16.125V12.625Z" fill="#616161"/></svg>
