<svg viewBox="0 0 20 20" fill="none" xmlns="http://www.w3.org/2000/svg"><path fill-rule="evenodd" clip-rule="evenodd" d="M4.5 2H15.5C15.9167 2 16.2708 2.14583 16.5625 2.4375C16.8542 2.72917 17 3.08333 17 3.5V16.5C17 16.9167 16.8542 17.2708 16.5625 17.5625C16.2708 17.8542 15.9167 18 15.5 18H4.5C4.08333 18 3.72917 17.8542 3.4375 17.5625C3.14583 17.2708 3 16.9167 3 16.5V3.5C3 3.08333 3.14583 2.72917 3.4375 2.4375C3.72917 2.14583 4.08333 2 4.5 2ZM9.28125 16.6875C9.48958 16.8958 9.72917 17 10 17C10.2708 17 10.5 16.8958 10.6875 16.6875C10.8958 16.5 11 16.2708 11 16C11 15.7292 10.8958 15.5 10.6875 15.3125C10.5 15.1042 10.2708 15 10 15C9.72917 15 9.48958 15.1042 9.28125 15.3125C9.09375 15.5 9 15.7292 9 16C9 16.2708 9.09375 16.5 9.28125 16.6875ZM15.375 13.9062C15.4583 13.8229 15.5 13.7292 15.5 13.625V3.875C15.5 3.77083 15.4583 3.6875 15.375 3.625C15.3125 3.54167 15.2292 3.5 15.125 3.5H4.875C4.77083 3.5 4.67708 3.54167 4.59375 3.625C4.53125 3.6875 4.5 3.77083 4.5 3.875V13.625C4.5 13.7292 4.53125 13.8229 4.59375 13.9062C4.67708 13.9688 4.77083 14 4.875 14H15.125C15.2292 14 15.3125 13.9688 15.375 13.9062ZM9.62763 12.2252C9.59953 12.3095 9.51522 12.3657 9.41686 12.3376L8.55972 12.0847C8.47541 12.0566 8.4192 11.9723 8.44731 11.8739L10.3724 5.26972C10.4005 5.18541 10.4848 5.1292 10.5831 5.1573L11.4403 5.41023C11.5246 5.42428 11.5808 5.52264 11.5527 5.621L9.62763 12.2252ZM8.43326 10.1034L7.81499 10.7639C7.75878 10.8341 7.64637 10.8341 7.57611 10.7639L5.55269 8.86691C5.48244 8.79665 5.48244 8.68424 5.55269 8.62803L7.57611 6.73108C7.64637 6.66082 7.75878 6.66082 7.81499 6.73108L8.43326 7.3915C8.50351 7.4477 8.48946 7.56012 8.4192 7.63037L7.15457 8.74044L8.4192 9.86457C8.48946 9.93482 8.50351 10.0332 8.43326 10.1034ZM14.4473 8.86691L12.4239 10.7639C12.3536 10.8341 12.2412 10.8341 12.185 10.7639L11.5667 10.1034C11.4965 10.0332 11.5105 9.93482 11.5808 9.86457L12.8595 8.74044L11.5808 7.63037C11.5105 7.56012 11.5105 7.4477 11.5667 7.37745L12.185 6.73108C12.2412 6.66082 12.3536 6.66082 12.4239 6.73108L14.4473 8.62803C14.5176 8.68424 14.5176 8.8107 14.4473 8.86691Z" fill="#616161"/></svg>
