<svg viewBox="0 0 20 20" fill="none" xmlns="http://www.w3.org/2000/svg"><path fill-rule="evenodd" clip-rule="evenodd" d="M16.4495 5.04863L15.462 6.03621C15.4047 6.09346 15.3403 6.12209 15.2687 6.12209C15.1972 6.12209 15.1399 6.09346 15.097 6.03621L12.7139 3.65313C12.6566 3.61019 12.628 3.55294 12.628 3.48138C12.628 3.40981 12.6566 3.3454 12.7139 3.28815L13.7015 2.30057C13.9019 2.10019 14.1452 2 14.4314 2C14.7177 2 14.961 2.10019 15.1614 2.30057L16.4495 3.58872C16.6499 3.7891 16.7501 4.03242 16.7501 4.31868C16.7501 4.60493 16.6499 4.84825 16.4495 5.04863ZM11.8551 4.14689C11.9123 4.08964 11.9767 4.06102 12.0483 4.06102C12.1199 4.06102 12.1771 4.08964 12.22 4.14689L14.6031 6.52998C14.6604 6.57292 14.689 6.63017 14.689 6.70173C14.689 6.7733 14.6604 6.8377 14.6031 6.89495L8.97819 12.5199L6.35895 12.9922C6.18719 13.0208 6.03691 12.9707 5.90809 12.8419C5.77928 12.7131 5.72918 12.5628 5.75781 12.3911L6.23013 9.77183L11.8551 4.14689ZM5.10504 14.918C5.37965 14.5936 5.37965 14.0677 5.10503 13.7433C4.83041 13.4189 4.38517 13.4189 4.11055 13.7433C3.62776 14.3136 3.2618 14.8047 3.00486 15.227C2.76022 15.6291 2.56199 16.0518 2.51222 16.4746C2.48537 16.7026 2.49834 16.9607 2.59589 17.2116C2.69501 17.4665 2.85494 17.6458 3.02433 17.7631C3.33027 17.975 3.69493 18.0058 3.97699 17.9992C4.57171 17.9854 5.3351 17.7797 6.04896 17.545C6.77666 17.3057 7.52296 17.0118 8.10554 16.7824L8.11177 16.78C9.28087 16.3196 10.9767 15.7106 12.5766 15.6461C14.1797 15.5815 15.4847 16.0615 16.1861 17.5116C16.3788 17.9099 16.8084 18.0483 17.1456 17.8207C17.4828 17.5931 17.5999 17.0857 17.4072 16.6874C16.3238 14.4476 14.347 13.9124 12.5287 13.9858C10.7071 14.0592 8.84181 14.7413 7.66699 15.2039C7.07851 15.4357 6.36256 15.7174 5.67182 15.9445L5.64878 15.9521C5.00982 16.1622 4.13825 16.4488 4.06794 16.3319C4.0008 16.2203 4.65705 15.4464 5.03958 14.9952C5.06245 14.9683 5.08434 14.9425 5.10504 14.918Z" fill="#616161"/></svg>
