<svg viewBox="0 0 20 20" fill="none" xmlns="http://www.w3.org/2000/svg"><path d="M18.5 4H1.5C0.65625 4 0 4.6875 0 5.5V14.5C0 15.3438 0.65625 16 1.5 16H18.5C19.3125 16 20 15.3438 20 14.5V5.5C20 4.6875 19.3125 4 18.5 4ZM18.3125 14.5H1.6875C1.5625 14.5 1.5 14.4375 1.5 14.3125V5.6875C1.5 5.59375 1.5625 5.5 1.6875 5.5H18.3125C18.4062 5.5 18.5 5.59375 18.5 5.6875V14.3125C18.5 14.4375 18.4062 14.5 18.3125 14.5Z" fill="#616161"/><path fill-rule="evenodd" clip-rule="evenodd" d="M14.5 11.5L17 8.5H12L14.5 11.5Z" fill="#616161"/></svg>
