<svg viewBox="0 0 20 20" fill="none" xmlns="http://www.w3.org/2000/svg"><path fill-rule="evenodd" clip-rule="evenodd" d="M18 3V17C18 17.553 17.552 18 17 18H6C5.448 18 5 17.553 5 17C5 16.45 5.45 16 6 16H16V4H6C5.45 4 5 3.55 5 3C5 2.447 5.448 2 6 2H17C17.552 2 18 2.447 18 3ZM10.707 13.707C10.316 14.098 9.684 14.098 9.293 13.707C9.098 13.512 9 13.256 9 13C9 12.744 9.098 12.488 9.293 12.293L10.586 11H3C2.448 11 2 10.553 2 10C2 9.44701 2.448 9.00001 3 9.00001H10.586L9.293 7.70701C8.902 7.31601 8.902 6.68401 9.293 6.29301C9.684 5.90201 10.316 5.90201 10.707 6.29301L13.707 9.29301C14.098 9.68401 14.098 10.316 13.707 10.707L10.707 13.707Z" fill="#616161"/></svg>