<svg viewBox="0 0 20 20" xmlns="http://www.w3.org/2000/svg"><path d="M2.03125,6.375 C2.03125,6.12499875 2.15624875,6 2.40625,6 L2.875,6 L2.875,4.75 L2.90625,4.4375 L2.78125,4.53125 C2.71874969,4.61458375 2.64062547,4.65104172 2.546875,4.640625 C2.45312453,4.63020828 2.37500031,4.58333375 2.3125,4.5 L2.125,4.3125 C1.9583325,4.1458325 1.96874906,3.9791675 2.15625,3.8125 L2.8125,3.1875 C2.95833406,3.06249938 3.1145825,3 3.28125,3 L3.65625,3 C3.90625125,3 4.03125,3.12499875 4.03125,3.375 L4.03125,6 L4.5,6 C4.75000125,6 4.875,6.12499875 4.875,6.375 L4.875,6.625 C4.875,6.87500125 4.75000125,7 4.5,7 L2.40625,7 C2.15624875,7 2.03125,6.87500125 2.03125,6.625 L2.03125,6.375 Z M2,11.53125 C2,11.0937478 2.13541531,10.7187516 2.40625,10.40625 C2.5729175,10.2187491 2.822915,10.0104178 3.15625,9.78125 C3.3229175,9.67708281 3.43749969,9.59375031 3.5,9.53125 C3.56250031,9.46874969 3.59375,9.40625031 3.59375,9.34375 C3.59375,9.1770825 3.50000094,9.09375 3.3125,9.09375 C3.20833281,9.09375 3.10416719,9.13541625 3,9.21875 C2.8333325,9.3854175 2.6666675,9.40625063 2.5,9.28125 L2.25,9.0625 C2.06249906,8.91666594 2.03124937,8.7604175 2.15625,8.59375 C2.44791813,8.19791469 2.86458063,8 3.40625,8 C3.78125187,8 4.09374875,8.09374906 4.34375,8.28125 C4.65625156,8.51041781 4.8125,8.83333125 4.8125,9.25 C4.8125,9.583335 4.68750125,9.88541531 4.4375,10.15625 C4.29166594,10.3020841 4.052085,10.4791656 3.71875,10.6875 C3.44791531,10.8333341 3.30208344,10.9374997 3.28125,11 L4.5,11 C4.75000125,11 4.875,11.1249987 4.875,11.375 L4.875,11.65625 C4.875,11.8854178 4.75000125,12 4.5,12 L2.375,12 C2.27083281,12 2.18229203,11.9687503 2.109375,11.90625 C2.03645797,11.8437497 2,11.7604172 2,11.65625 L2,11.53125 Z M2.125,16.21875 L2.28125,15.90625 C2.40625063,15.7187491 2.57291563,15.6874994 2.78125,15.8125 C2.92708406,15.8750003 3.07291594,15.90625 3.21875,15.90625 C3.53125156,15.90625 3.6875,15.8177092 3.6875,15.640625 C3.6875,15.4635408 3.520835,15.375 3.1875,15.375 L3.03125,15.375 C2.8645825,15.375 2.73958375,15.2916675 2.65625,15.125 L2.625,15.0625 C2.54166625,14.9166659 2.56249937,14.7604175 2.6875,14.59375 L2.875,14.375 C3.02083406,14.2083325 3.14583281,14.0729172 3.25,13.96875 L3.25,13.9375 L2.875,14 L2.46875,14 C2.21874875,14 2.09375,13.8750013 2.09375,13.625 L2.09375,13.34375 C2.09375,13.1145822 2.21874875,13 2.46875,13 L4.28125,13 C4.53125125,13 4.65625,13.1145822 4.65625,13.34375 L4.65625,13.46875 C4.65625,13.6354175 4.59375063,13.7812494 4.46875,13.90625 L3.9375,14.53125 C4.22916813,14.6145837 4.45312422,14.7552073 4.609375,14.953125 C4.76562578,15.1510427 4.84375,15.3749987 4.84375,15.625 C4.84375,16.0000019 4.71875125,16.3124987 4.46875,16.5625 C4.19791531,16.8541681 3.8125025,17 3.3125,17 C2.89583125,17 2.520835,16.9062509 2.1875,16.71875 C2.0208325,16.5729159 1.99999937,16.4062509 2.125,16.21875 Z M6.5,4 L17.5,4 C17.7761424,4 18,4.22385763 18,4.5 L18,5.5 C18,5.77614237 17.7761424,6 17.5,6 L6.5,6 C6.22385763,6 6,5.77614237 6,5.5 L6,4.5 C6,4.22385763 6.22385763,4 6.5,4 Z M6.5,9 L17.5,9 C17.7761424,9 18,9.22385763 18,9.5 L18,10.5 C18,10.7761424 17.7761424,11 17.5,11 L6.5,11 C6.22385763,11 6,10.7761424 6,10.5 L6,9.5 C6,9.22385763 6.22385763,9 6.5,9 Z M6.5,14 L17.5,14 C17.7761424,14 18,14.2238576 18,14.5 L18,15.5 C18,15.7761424 17.7761424,16 17.5,16 L6.5,16 C6.22385763,16 6,15.7761424 6,15.5 L6,14.5 C6,14.2238576 6.22385763,14 6.5,14 Z" fill="#31373D" fill-rule="evenodd"/></svg>