<svg viewBox="0 0 20 20" xmlns="http://www.w3.org/2000/svg"><path d="M12.3133512,11.2723512 L17.3862716,15.7103002 C17.1379667,15.8924354 16.8315449,16 16.5,16 L3.5,16 C3.16889021,16 2.86283757,15.8927176 2.61470628,15.7110169 L7.68535122,11.2723512 L10,13.2972609 L12.3133512,11.2723512 Z M2.01214517,6.30821896 L6.77435122,10.4753512 L2.00725855,14.6485045 C2.0024575,14.5996529 2,14.5501134 2,14.5 L2,6.5 C2,6.43502532 2.00413117,6.37101553 2.01214517,6.30821896 Z M18,6.5 L18,14.5 C18,14.5497678 17.9975763,14.5989696 17.9928404,14.6474936 L13.2243512,10.4743512 L17.9878548,6.30821896 C17.9958688,6.37101553 18,6.43502532 18,6.5 Z M16.5,5 C16.8180568,5 17.1129932,5.09899061 17.3556803,5.26784313 L10,11.7027391 L2.64531594,5.26715056 C2.88781379,5.09871996 3.18237826,5 3.5,5 L16.5,5 Z" fill="#31373D" fill-rule="evenodd"/></svg>