<svg width="16" height="16" viewBox="0 0 16 16" fill="none" xmlns="http://www.w3.org/2000/svg">
<path fill-rule="evenodd" clip-rule="evenodd" d="M6.99999 9.99999H8.99999V5.99999H6.99999V9.99999ZM6.99999 14H8.99999V12H6.99999V14ZM15.895 14.509L8.89499 0.508988C8.55599 -0.169012 7.44399 -0.169012 7.10499 0.508988L0.104988 14.509C0.0284911 14.6615 -0.00769124 14.831 -0.000111833 15.0014C0.00746757 15.1718 0.0585561 15.3374 0.148286 15.4825C0.238017 15.6276 0.3634 15.7472 0.512489 15.8301C0.661579 15.913 0.829408 15.9563 0.999988 15.956H15C15.1704 15.9558 15.3379 15.9121 15.4866 15.8291C15.6354 15.7461 15.7605 15.6264 15.8502 15.4815C15.9398 15.3367 15.9909 15.1713 15.9988 15.0011C16.0066 14.8309 15.9709 14.6615 15.895 14.509Z" fill="#D50000"/>
</svg>
