<svg viewBox="0 0 20 20" xmlns="http://www.w3.org/2000/svg"><path d="M15,4 L17,4 C17.5522847,4 18,4.44771525 18,5 L18,17 C18,17.5522847 17.5522847,18 17,18 L3,18 C2.44771525,18 2,17.5522847 2,17 L2,5 C2,4.44771525 2.44771525,4 3,4 L5,4 L5,3 C5,2.44771525 5.44771525,2 6,2 L7,2 C7.55228475,2 8,2.44771525 8,3 L8,4 L12,4 L12,3 C12,2.44771525 12.4477153,2 13,2 L14,2 C14.5522847,2 15,2.44771525 15,3 L15,4 Z M3,7 L3,17 L17,17 L17,7 L3,7 Z M6.5,3 C6.22385763,3 6,3.22385763 6,3.5 L6,5.5 C6,5.77614237 6.22385763,6 6.5,6 C6.77614237,6 7,5.77614237 7,5.5 L7,3.5 C7,3.22385763 6.77614237,3 6.5,3 Z M13.5,3 C13.2238576,3 13,3.22385763 13,3.5 L13,5.5 C13,5.77614237 13.2238576,6 13.5,6 C13.7761424,6 14,5.77614237 14,5.5 L14,3.5 C14,3.22385763 13.7761424,3 13.5,3 Z M9.1035625,15.8428803 C8.90828125,16.0523788 8.59171875,16.0523788 8.3964375,15.8428468 L5.1464375,12.3562338 C4.9511875,12.1467688 4.9511875,11.8071258 5.1464375,11.5976608 L5.85353125,10.8390878 C6.0488125,10.6296228 6.36540625,10.6296228 6.56065625,10.8390878 L8.75,13.1878245 L13.4393437,8.15711131 C13.634625,7.9476128 13.9512187,7.94764633 14.1464687,8.15711131 L14.8535625,8.91568431 C15.0488125,9.12514929 15.0488125,9.46479233 14.8535625,9.67425731 L9.1035625,15.8428803 Z" fill="#31373D" fill-rule="evenodd"/></svg>