<svg viewBox="0 0 20 20" fill="none" xmlns="http://www.w3.org/2000/svg"><path fill-rule="evenodd" clip-rule="evenodd" d="M2 17V3C2 2.447 2.448 2 3 2H14C14.552 2 15 2.447 15 3C15 3.55 14.55 4 14 4L4 4L4 16L14 16C14.55 16 15 16.45 15 17C15 17.553 14.552 18 14 18L3 18C2.448 18 2 17.553 2 17ZM14.707 13.707C14.316 14.098 13.684 14.098 13.293 13.707C13.098 13.512 13 13.256 13 13C13 12.744 13.098 12.488 13.293 12.293L14.586 11H7.00001C6.44801 11 6.00001 10.553 6.00001 10C6.00001 9.44701 6.44801 9.00001 7.00001 9.00001H14.586L13.293 7.70701C12.902 7.31601 12.902 6.68401 13.293 6.29301C13.684 5.90201 14.316 5.90201 14.707 6.29301L17.707 9.29301C18.098 9.68401 18.098 10.316 17.707 10.707L14.707 13.707Z" fill="#616161"/></svg>