<svg viewBox="0 0 20 20" fill="none" xmlns="http://www.w3.org/2000/svg"><path fill-rule="evenodd" clip-rule="evenodd" d="M10 17C9.44771 17 9 16.5523 9 16V4C9 3.44772 9.44771 3 10 3C10.5523 3 11 3.44772 11 4V16C11 16.5523 10.5523 17 10 17ZM14.2929 13.7069C14.6839 14.0979 15.3159 14.0979 15.7069 13.7069L18.7069 10.7069C19.0979 10.3159 19.0979 9.68388 18.7069 9.29288L15.7069 6.29288C15.3159 5.90188 14.6839 5.90188 14.2929 6.29288C13.9019 6.68388 13.9019 7.31588 14.2929 7.70688L15.5859 8.99988H12.9999C12.4479 8.99988 11.9999 9.44688 11.9999 9.99988C11.9999 10.5529 12.4479 10.9999 12.9999 10.9999L15.5859 10.9999L14.2929 12.2929C14.0979 12.4879 13.9999 12.7439 13.9999 12.9999C13.9999 13.2559 14.0979 13.5119 14.2929 13.7069ZM4.29313 6.29287C4.68413 5.90187 5.31613 5.90187 5.70713 6.29287C5.90213 6.48787 6.00013 6.74387 6.00013 6.99987C6.00013 7.25587 5.90213 7.51187 5.70713 7.70687L4.41413 8.99987H7.00013C7.55213 8.99987 8.00013 9.44687 8.00013 9.99987C8.00013 10.5529 7.55213 10.9999 7.00013 10.9999H4.41413L5.70713 12.2929C6.09813 12.6839 6.09813 13.3159 5.70713 13.7069C5.31613 14.0979 4.68413 14.0979 4.29313 13.7069L1.29313 10.7069C0.902128 10.3159 0.902128 9.68387 1.29313 9.29287L4.29313 6.29287Z" fill="#616161"/></svg>
