<svg viewBox="0 0 20 20" fill="none" xmlns="http://www.w3.org/2000/svg"><path fill-rule="evenodd" clip-rule="evenodd" d="M8.99999 5.414L6.71002 7.71C6.31902 8.101 5.68102 8.101 5.29002 7.71C4.89902 7.319 4.89902 6.681 5.29002 6.29L9.29299 2.293C9.48799 2.098 9.74399 2 9.99999 2C10.256 2 10.512 2.098 10.707 2.293L14.71 6.29C15.101 6.681 15.101 7.319 14.71 7.71C14.319 8.101 13.681 8.101 13.29 7.71L11 5.414L11 13C11 13.552 10.553 14 10 14C9.447 14 9 13.552 9 13L8.99999 5.414ZM3 18L17 18C17.553 18 18 17.552 18 17V13C18 12.447 17.552 12 17 12C16.448 12 16 12.447 16 13V16L4 16L4 13C4 12.447 3.552 12 3 12C2.448 12 2 12.447 2 13V17C2 17.552 2.447 18 3 18Z" fill="#616161"/></svg>
