<svg viewBox="0 0 20 20" fill="none" xmlns="http://www.w3.org/2000/svg"><path fill-rule="evenodd" clip-rule="evenodd" d="M13 2H17C17.553 2 18 2.448 18 3V7C18 7.552 17.553 8 17 8C16.447 8 16 7.552 16 7V5.414L8.70701 12.707C8.51201 12.902 8.25601 13 8.00001 13C7.74401 13 7.48801 12.902 7.29301 12.707C6.90201 12.316 6.90201 11.684 7.29301 11.293L14.586 4H13C12.447 4 12 3.552 12 3C12 2.448 12.447 2 13 2ZM14 16V12C14 11.448 14.447 11 15 11C15.553 11 16 11.448 16 12V17C16 17.552 15.553 18 15 18H3C2.447 18 2 17.552 2 17V5C2 4.448 2.447 4 3 4H8C8.553 4 9 4.448 9 5C9 5.552 8.553 6 8 6H4V16H14Z" fill="#616161"/></svg>
