<svg viewBox="0 0 20 20" fill="none" xmlns="http://www.w3.org/2000/svg"><path fill-rule="evenodd" clip-rule="evenodd" d="M2.58802 18.9997H17.4116C18.2888 18.9997 18.9999 18.2887 18.9999 17.4114L18.9997 2.58829C18.9997 1.71111 18.2887 1 17.4114 1H2.58829C1.71111 1 1 1.71106 1 2.58829V17.4119C1 18.2889 1.71106 19 2.58829 19L2.58802 18.9997ZM2.58802 2.58829H17.4116V5.76483L2.58802 5.76465V2.58829ZM2.58802 6.82351H17.4116V17.4117H2.58802V6.82351ZM11.0585 3.64716H12.1173V4.70602H11.0585V3.64716ZM14.2351 3.64716H13.1763V4.70602H14.2351V3.64716ZM15.2938 3.64716H16.3527V4.70602H15.2938V3.64716ZM9.54489 16.4475C9.51054 16.5505 9.40749 16.6192 9.28728 16.5849L8.23966 16.2757C8.13661 16.2414 8.06792 16.1384 8.10226 16.0181L10.4551 7.94632C10.4895 7.84327 10.5925 7.77457 10.7127 7.80892L11.7603 8.11806C11.8634 8.13523 11.9321 8.25545 11.8977 8.37567L9.54489 16.4475ZM8.08509 13.8542L7.32943 14.6614C7.26073 14.7473 7.12334 14.7473 7.03747 14.6614L4.5644 12.3429C4.47853 12.257 4.47853 12.1196 4.5644 12.0509L7.03747 9.73242C7.12334 9.64655 7.26073 9.64655 7.32943 9.73242L8.08509 10.5396C8.17096 10.6083 8.15379 10.7457 8.06792 10.8316L6.52225 12.1883L8.06792 13.5622C8.15379 13.6481 8.17096 13.7683 8.08509 13.8542ZM15.4356 12.3429L12.9625 14.6614C12.8767 14.7473 12.7393 14.7473 12.6706 14.6614L11.9149 13.8542C11.829 13.7683 11.8462 13.6481 11.9321 13.5622L13.4949 12.1883L11.9321 10.8316C11.8462 10.7457 11.8462 10.6083 11.9149 10.5224L12.6706 9.73242C12.7393 9.64655 12.8767 9.64655 12.9625 9.73242L15.4356 12.0509C15.5215 12.1196 15.5215 12.2742 15.4356 12.3429Z" fill="#616161"/></svg>
