<svg viewBox="0 0 20 20" xmlns="http://www.w3.org/2000/svg"><path fill-rule="evenodd" clip-rule="evenodd" d="M13.0043 17.1428C13.0043 17.6161 12.6204 18 12.1472 18H0.86C0.386785 18 0 17.6161 0 17.1428V2.85711C0 2.3839 0.386785 1.99997 0.86 1.99997H8.14715C8.62037 1.99997 9.28108 2.27676 9.61144 2.60711L12.3972 5.39283C12.7275 5.72319 13.0043 6.3839 13.0043 6.85712V9.09769L11.8614 10.2335V7.71426H8.14715C7.67394 7.71426 7.29001 7.33033 7.29001 6.85712V3.14283H1.14V16.8571H11.8614V16.8517H13.0043V17.1428ZM11.79 6.5714H8.43287V3.21426C8.58465 3.26783 8.73644 3.34819 8.79894 3.41069L11.5936 6.20533C11.6561 6.26783 11.7364 6.41962 11.79 6.5714ZM7.70117 15.0737C7.59863 14.8686 7.42774 14.8344 7.35938 14.8344C7.25684 14.8344 7.08594 14.8686 6.9834 15.0395L6.74414 15.5864C6.50488 15.9966 5.88965 15.9624 5.71875 15.518L5.17188 13.7749L4.7959 14.8686C4.59082 15.4839 4.04395 15.8598 3.39453 15.8598H2.98438C2.67676 15.8598 2.4375 15.6206 2.4375 15.313C2.4375 15.0395 2.67676 14.7661 2.98438 14.7661H3.39453C3.56543 14.7661 3.70215 14.6635 3.77051 14.5268L4.38574 12.6469C4.48828 12.3051 4.7959 12.1001 5.17188 12.1001C5.51367 12.1001 5.82129 12.3051 5.92383 12.6469L6.40234 14.0825C7.08594 13.5356 8.24805 13.7407 8.6582 14.561C8.72656 14.6977 8.87161 14.7682 9 14.6852V15.8598C9 15.8598 7.94043 15.5522 7.70117 15.0737ZM19.5703 7.37509L18.4766 6.28134C18.1348 5.93954 17.5879 5.93954 17.2461 6.28134L16.3232 7.20419L18.6475 9.52841L19.5703 8.60556C19.9121 8.26376 19.9121 7.71689 19.5703 7.37509ZM10 13.4933V15.8517H12.3242L17.8613 10.3145L15.5371 7.99033L10 13.4933Z" fill="#616161"/></svg>
