<svg viewBox="0 0 20 20" xmlns="http://www.w3.org/2000/svg">
<path fill-rule="evenodd" clip-rule="evenodd" d="M16 7.9549V2.75C16 2.33594 15.6641 2 15.25 2H4.75C4.33594 2 4 2.33594 4 2.75V15.25C4 15.6641 4.33594 16 4.75 16H7.9549C7.74846 15.6866 7.57148 15.352 7.42798 15H5V3H15V7.42798C15.352 7.57148 15.6866 7.74845 16 7.9549ZM12.7599 7.00019C11.5701 7.00978 10.4648 7.37751 9.54792 8.00001H7.25C7.10938 8.00001 7 7.89064 7 7.75001V7.25001C7 7.10939 7.10938 7.00001 7.25 7.00001H12.75C12.7533 7.00001 12.7567 7.00007 12.7599 7.00019ZM8.4216 9.00001C8.15525 9.30666 7.92045 9.64171 7.72233 10H7.25C7.10938 10 7 9.89064 7 9.75001V9.25001C7 9.10939 7.10938 9.00001 7.25 9.00001H8.4216ZM7.25 5.00001C7.10938 5.00001 7 5.10938 7 5.25001V5.75001C7 5.89063 7.10938 6.00001 7.25 6.00001H12.75C12.8906 6.00001 13 5.89063 13 5.75001V5.25001C13 5.10938 12.8906 5.00001 12.75 5.00001H7.25Z" fill="#616161"/>
<path fill-rule="evenodd" clip-rule="evenodd" d="M10.1149 10.1149C10.8047 9.42503 11.7551 9 12.8077 9C13.8603 9 14.8107 9.42503 15.5005 10.1149C16.1904 10.8047 16.6154 11.7551 16.6154 12.8077C16.6154 13.2684 16.5315 13.7256 16.3699 14.1541L16.006 15.0271L17.7999 16.8209C17.9203 16.9413 18 17.1253 18 17.3077C18 17.4938 17.9245 17.6672 17.7958 17.7958C17.6672 17.9245 17.4938 18 17.3077 18C17.1561 18 17.0041 17.946 16.8864 17.8537L16.8016 17.7752L15.0112 15.99L14.3817 16.2755C13.8897 16.4986 13.3513 16.6154 12.8077 16.6154C11.7551 16.6154 10.8047 16.1904 10.1149 15.5005C9.42503 14.8107 9 13.8603 9 12.8077C9 11.7551 9.42503 10.8047 10.1149 10.1149ZM12.8077 10.3846C12.1377 10.3846 11.5313 10.6591 11.0952 11.0952C10.6591 11.5313 10.3846 12.1377 10.3846 12.8077C10.3846 13.4777 10.6591 14.0841 11.0952 14.5202C11.5313 14.9563 12.1377 15.2308 12.8077 15.2308C13.4777 15.2308 14.0841 14.9563 14.5202 14.5202C14.9563 14.0841 15.2308 13.4777 15.2308 12.8077C15.2308 12.1377 14.9563 11.5313 14.5202 11.0952C14.0841 10.6591 13.4777 10.3846 12.8077 10.3846Z" fill="#616161"/>
</svg>
