<svg viewBox="0 0 20 20" xmlns="http://www.w3.org/2000/svg"><path d="M11.75,5.3125 L11.75,0 L3.9375,0 C3.41796875,0 3,0.41796875 3,0.9375 L3,19.0625 C3,19.5820312 3.41796875,20 3.9375,20 L17.0625,20 C17.5820312,20 18,19.5820312 18,19.0625 L18,6.25 L12.6875,6.25 C12.171875,6.25 11.75,5.828125 11.75,5.3125 Z M18,4.76171875 L18,5 L13,5 L13,0 L13.2382812,0 C13.4882812,0 13.7265625,0.09765625 13.9023438,0.2734375 L17.7265625,4.1015625 C17.9023438,4.27734375 18,4.515625 18,4.76171875 Z" fill="#31373D" fill-rule="evenodd"/></svg>