<svg viewBox="0 0 20 20" xmlns="http://www.w3.org/2000/svg"><path d="M15.6471582,18.0000191 C16.120373,18.0000191 16.5043021,17.61609 16.5043021,17.1428752 L16.5043021,6.85714865 C16.5043021,6.3839338 16.227516,5.72321872 15.8971585,5.39286119 L13.1114409,2.60714358 C12.7810833,2.27678604 12.1203683,2 11.6471534,2 L4.36,2 C3.88678515,2 3.5,2.38392903 3.5,2.85714388 L3.5,17.1428752 C3.5,17.61609 3.88678515,18.0000191 4.36,18.0000191 L15.6471582,18.0000191 Z M15.3614436,16.8571606 L4.64,16.8571606 L4.64,3.14285851 L10.7900095,3.14285851 L10.7900095,6.85714865 C10.7900095,7.3303635 11.1739386,7.71429253 11.6471534,7.71429253 L15.3614436,7.71429253 L15.3614436,16.8571606 Z M15.2900149,6.57143402 L11.932868,6.57143402 L11.932868,3.21428716 C12.0846539,3.26785865 12.2364398,3.34821589 12.2989399,3.41071597 L15.0935861,6.20536216 C15.1560862,6.26786223 15.2364434,6.41964813 15.2900149,6.57143402 Z" fill="#31373D" fill-rule="evenodd"/></svg>