<svg viewBox="0 0 20 20" fill="none" xmlns="http://www.w3.org/2000/svg"><path fill-rule="evenodd" clip-rule="evenodd" d="M13.0043 17.1429C13.0043 17.6161 12.6204 18 12.1472 18H0.86C0.386785 18 0 17.6161 0 17.1429V2.85714C0 2.38393 0.386785 2 0.86 2H8.14715C8.62037 2 9.28108 2.27679 9.61144 2.60714L12.3972 5.39286C12.7275 5.72322 13.0043 6.38393 13.0043 6.85715V9.09772L11.8614 10.2335V7.71429H8.14715C7.67394 7.71429 7.29001 7.33036 7.29001 6.85715V3.14286H1.14V16.8572H11.8614V16.8517H13.0043V17.1429ZM11.79 6.57143H8.43287V3.21429C8.58465 3.26786 8.73644 3.34822 8.79894 3.41072L11.5936 6.20536C11.6561 6.26786 11.7364 6.41965 11.79 6.57143ZM7.70117 15.0737C7.59863 14.8687 7.42774 14.8345 7.35938 14.8345C7.25684 14.8345 7.08594 14.8687 6.9834 15.0396L6.74414 15.5864C6.50488 15.9966 5.88965 15.9624 5.71875 15.5181L5.17188 13.7749L4.7959 14.8687C4.59082 15.4839 4.04395 15.8599 3.39453 15.8599H2.98438C2.67676 15.8599 2.4375 15.6206 2.4375 15.313C2.4375 15.0396 2.67676 14.7661 2.98438 14.7661H3.39453C3.56543 14.7661 3.70215 14.6636 3.77051 14.5269L4.38574 12.647C4.48828 12.3052 4.7959 12.1001 5.17188 12.1001C5.51367 12.1001 5.82129 12.3052 5.92383 12.647L6.40234 14.0825C7.08594 13.5356 8.24805 13.7407 8.6582 14.561C8.72656 14.6978 8.87161 14.7682 9 14.6852V15.8599C9 15.8599 7.94043 15.5522 7.70117 15.0737ZM19.5703 7.37512L18.4766 6.28137C18.1348 5.93958 17.5879 5.93958 17.2461 6.28137L16.3232 7.20422L18.6475 9.52844L19.5703 8.60559C19.9121 8.26379 19.9121 7.71692 19.5703 7.37512ZM10 13.4933V15.8517H12.3242L17.8613 10.3146L15.5371 7.99036L10 13.4933Z" fill="#616161"/></svg>
