<svg viewBox="0 0 20 20" xmlns="http://www.w3.org/2000/svg"><path d="M16,2 C16.5522847,2 17,2.44771525 17,3 L17.00083,10.7083847 C17.8833391,11.0943524 18.5,11.9751617 18.5,13 C18.5,14.0248383 17.8833391,14.9056476 17.00083,15.2916153 L17,17 C17,17.5522847 16.5522847,18 16,18 C15.4477153,18 15,17.5522847 15,17 L15.0001748,15.2920545 C14.1171291,14.9063162 13.5,14.0252272 13.5,13 C13.5,11.9747728 14.1171291,11.0936838 15.0001748,10.7079455 L15,3 C15,2.44771525 15.4477153,2 16,2 Z M10,2 C10.5522847,2 11,2.44771525 11,3 L11.00083,4.20838468 C11.8833391,4.59435237 12.5,5.47516175 12.5,6.5 C12.5,7.52483825 11.8833391,8.40564763 11.00083,8.79161532 L11,17 C11,17.5522847 10.5522847,18 10,18 C9.44771525,18 9,17.5522847 9,17 L9.00017484,8.79205454 C8.11712907,8.40631615 7.5,7.52522718 7.5,6.5 C7.5,5.47477282 8.11712907,4.59368385 9.00017484,4.20794546 L9,3 C9,2.44771525 9.44771525,2 10,2 Z M4,2 C4.55228475,2 5,2.44771525 5,3 L5.00083003,7.70838468 C5.88333908,8.09435237 6.5,8.97516175 6.5,10 C6.5,11.0248383 5.88333908,11.9056476 5.00083003,12.2916153 L5,17 C5,17.5522847 4.55228475,18 4,18 C3.44771525,18 3,17.5522847 3,17 L3.00017484,12.2920545 C2.11712907,11.9063162 1.5,11.0252272 1.5,10 C1.5,8.97477282 2.11712907,8.09368385 3.00017484,7.70794546 L3,3 C3,2.44771525 3.44771525,2 4,2 Z M16,12 C15.4477153,12 15,12.4477153 15,13 C15,13.5522847 15.4477153,14 16,14 C16.5522847,14 17,13.5522847 17,13 C17,12.4477153 16.5522847,12 16,12 Z M4,9 C3.44771525,9 3,9.44771525 3,10 C3,10.5522847 3.44771525,11 4,11 C4.55228475,11 5,10.5522847 5,10 C5,9.44771525 4.55228475,9 4,9 Z M10,5.5 C9.44771525,5.5 9,5.94771525 9,6.5 C9,7.05228475 9.44771525,7.5 10,7.5 C10.5522847,7.5 11,7.05228475 11,6.5 C11,5.94771525 10.5522847,5.5 10,5.5 Z" fill="#31373D" fill-rule="evenodd"/></svg>