<svg viewBox="0 0 20 20" xmlns="http://www.w3.org/2000/svg"><path d="M18.90625,11.125 L16.625,15 C16.4583325,15.3125016 16.2187516,15.5572908 15.90625,15.734375 C15.5937484,15.9114592 15.2604184,16 14.90625,16 L2.40625,16 C2.11458187,16 1.89583406,15.8750013 1.75,15.625 C1.60416594,15.3749987 1.60416594,15.1250013 1.75,14.875 L4.03125,11 C4.1979175,10.6874984 4.43749844,10.4427092 4.75,10.265625 C5.06250156,10.0885408 5.39583156,10 5.75,10 L18.25,10 C18.5416681,10 18.7604159,10.1249987 18.90625,10.375 C19.0520841,10.6250013 19.0520841,10.8749987 18.90625,11.125 Z M5.75,9 C5.20833063,9 4.70833563,9.13541531 4.25,9.40625 C3.79166437,9.67708469 3.42708469,10.0416644 3.15625,10.5 L1,14.1875 L1,5.5 C1,5.08333125 1.14583187,4.72916813 1.4375,4.4375 C1.72916813,4.14583187 2.08333125,4 2.5,4 L7.5,4 L9.5,6 L14.5,6 C14.9166687,6 15.2708319,6.14583187 15.5625,6.4375 C15.8541681,6.72916813 16,7.08333125 16,7.5 L16,9 L5.75,9 Z" fill="#31373D" fill-rule="evenodd"/></svg>