<svg viewBox="0 0 20 20" fill="none" xmlns="http://www.w3.org/2000/svg"><path fill-rule="evenodd" clip-rule="evenodd" d="M17.5933 11.5178L16.3461 10.8138C16.3821 10.5402 16.3997 10.2682 16.3997 10.0002C16.3997 9.73218 16.3821 9.46018 16.3461 9.18578L17.5933 8.48258C17.7805 8.37618 17.9173 8.20018 17.9725 7.99298C18.0285 7.78498 17.9981 7.56338 17.8893 7.37858L16.2517 4.60738C16.0301 4.23298 15.5517 4.10418 15.1693 4.31778L13.9765 4.99058C13.4965 4.60978 12.9637 4.29858 12.3997 4.06898V2.80018C12.3997 2.35858 12.0421 2.00018 11.5997 2.00018H8.39968C7.95808 2.00018 7.59968 2.35858 7.59968 2.80018V4.06898C7.03568 4.29858 6.50288 4.60978 6.02368 4.99058L4.83008 4.31778C4.45008 4.10418 3.97008 4.23298 3.74848 4.60738L2.11088 7.37858C2.00128 7.56338 1.97168 7.78498 2.02768 7.99298C2.08288 8.20018 2.21968 8.37618 2.40688 8.48258L3.65408 9.18578C3.61808 9.46018 3.59968 9.73218 3.59968 10.0002C3.59968 10.2682 3.61808 10.5402 3.65408 10.8138L2.40688 11.5178C2.21968 11.6234 2.08288 11.8002 2.02768 12.0074C1.97168 12.2154 2.00128 12.4362 2.11088 12.6218L3.74848 15.393C3.97008 15.7674 4.45008 15.8978 4.83008 15.6826L6.02368 15.009C6.50288 15.3906 7.03568 15.7018 7.59968 15.9306V17.2002C7.59968 17.6418 7.95808 18.0002 8.39968 18.0002H11.5997C12.0421 18.0002 12.3997 17.6418 12.3997 17.2002V15.9306C12.9637 15.7018 13.4965 15.3906 13.9765 15.009L15.1693 15.6826C15.5517 15.8978 16.0301 15.7674 16.2517 15.393L17.8893 12.6218C17.9981 12.4362 18.0285 12.2154 17.9725 12.0074C17.9173 11.8002 17.7805 11.6234 17.5933 11.5178ZM14.6789 8.94257C14.7597 9.30097 14.7997 9.65697 14.7997 10.0002C14.7997 10.3426 14.7597 10.6986 14.6789 11.0578C14.6013 11.4018 14.7589 11.7562 15.0661 11.929L16.0957 12.5098L15.2725 13.9034L14.2701 13.3378C13.9637 13.165 13.5773 13.213 13.3237 13.4578C12.7709 13.9882 12.0957 14.3826 11.3717 14.5978C11.0325 14.6986 10.7997 15.0106 10.7997 15.365V16.4002H9.19967V15.365C9.19967 15.0106 8.96687 14.6986 8.62847 14.5978C7.90367 14.3826 7.22847 13.9882 6.67647 13.4578C6.42287 13.213 6.03567 13.165 5.72927 13.3378L4.72767 13.9034L3.90367 12.5098L4.93327 11.929C5.24127 11.7562 5.39807 11.4018 5.32127 11.0578C5.24047 10.6986 5.19967 10.3426 5.19967 10.0002C5.19967 9.65697 5.24047 9.30097 5.32127 8.94257C5.39807 8.59857 5.24127 8.24417 4.93327 8.07057L3.90367 7.48977L4.72767 6.09617L5.72927 6.66177C6.03647 6.83537 6.42287 6.78737 6.67647 6.54257C7.22847 6.01137 7.90367 5.61777 8.62847 5.40177C8.96687 5.30097 9.19967 4.98897 9.19967 4.63537V3.60017H10.7997V4.63537C10.7997 4.98897 11.0325 5.30097 11.3717 5.40177C12.0957 5.61777 12.7709 6.01137 13.3237 6.54257C13.5773 6.78737 13.9629 6.83457 14.2701 6.66177L15.2725 6.09617L16.0957 7.48977L15.0661 8.07057C14.7589 8.24417 14.6013 8.59857 14.6789 8.94257ZM9.99991 6.80002C8.23511 6.80002 6.79991 8.23522 6.79991 10C6.79991 11.7648 8.23511 13.2 9.99991 13.2C11.7647 13.2 13.1999 11.7648 13.1999 10C13.1999 8.23522 11.7647 6.80002 9.99991 6.80002ZM9.99992 11.6C9.11752 11.6 8.39992 10.8824 8.39992 10C8.39992 9.1176 9.11752 8.4 9.99992 8.4C10.8823 8.4 11.5999 9.1176 11.5999 10C11.5999 10.8824 10.8823 11.6 9.99992 11.6Z" fill="#616161"/></svg>