<svg viewBox="0 0 20 20" xmlns="http://www.w3.org/2000/svg"><path d="M3,3 L8,3 C8.55228475,3 9,3.44771525 9,4 L9,8 C9,8.55228475 8.55228475,9 8,9 L3,9 C2.44771525,9 2,8.55228475 2,8 L2,4 C2,3.44771525 2.44771525,3 3,3 Z M3,11 L8,11 C8.55228475,11 9,11.4477153 9,12 L9,16 C9,16.5522847 8.55228475,17 8,17 L3,17 C2.44771525,17 2,16.5522847 2,16 L2,12 C2,11.4477153 2.44771525,11 3,11 Z M12,11 L17,11 C17.5522847,11 18,11.4477153 18,12 L18,16 C18,16.5522847 17.5522847,17 17,17 L12,17 C11.4477153,17 11,16.5522847 11,16 L11,12 C11,11.4477153 11.4477153,11 12,11 Z M12,3 L17,3 C17.5522847,3 18,3.44771525 18,4 L18,8 C18,8.55228475 17.5522847,9 17,9 L12,9 C11.4477153,9 11,8.55228475 11,8 L11,4 C11,3.44771525 11.4477153,3 12,3 Z" fill="#31373D" fill-rule="evenodd"/></svg>