<svg viewBox="0 0 20 20" xmlns="http://www.w3.org/2000/svg"><path d="M15.2506847,8.02094489 L10.5006935,8.02094489 L10.5006935,9.77094167 C10.5006935,11.0115644 9.49132031,12.0209375 8.25069759,12.0209375 C7.01007487,12.0209375 6.00070172,11.0115644 6.00070172,9.77094167 L6.00070172,5.97094865 L3.97258045,7.18969642 C3.36945656,7.54907075 3.00070723,8.20219455 3.00070723,8.90219327 L3.00070723,10.3803156 L0.500711827,11.8240629 C0.0225877057,12.0990624 -0.14303699,12.7115613 0.135087499,13.1896854 L2.63508291,17.5209274 C2.9100824,17.9990516 3.52258127,18.1615513 4.0007054,17.8865518 L7.23194946,16.0209302 L11.5006916,16.0209302 C12.6038146,16.0209302 13.5006879,15.1240568 13.5006879,14.0209339 L14.000687,14.0209339 C14.553811,14.0209339 15.0006852,13.5740597 15.0006852,13.0209357 L15.0006852,11.0209394 L15.2506847,11.0209394 C15.666309,11.0209394 16.0006833,10.686565 16.0006833,10.2709408 L16.0006833,8.77094351 C16.0006833,8.35531927 15.666309,8.02094489 15.2506847,8.02094489 Z M19.8663012,6.85219704 L17.3663058,2.52095499 C17.0913063,2.04283087 16.4788075,1.88033117 16.0006833,2.15533067 L12.7694393,4.02095224 L9.57569515,4.02095224 C9.20069584,4.02095224 8.83507151,4.12720204 8.5163221,4.32407668 L7.46944902,4.97720048 C7.17569956,5.15845015 7.00069988,5.48032456 7.00069988,5.82407392 L7.00069988,9.77094167 C7.00069988,10.4615654 7.56007386,11.0209394 8.25069759,11.0209394 C8.94132132,11.0209394 9.50069529,10.4615654 9.50069529,9.77094167 L9.50069529,7.02094673 L15.2506847,7.02094673 C16.2163079,7.02094673 17.0006815,7.80532028 17.0006815,8.77094351 L17.0006815,9.66156687 L19.5006769,8.21781953 C19.978801,7.93969504 20.1413007,7.33032116 19.8663012,6.85219704 Z" fill="#31373D" fill-rule="evenodd"/></svg>