<svg viewBox="0 0 20 20" xmlns="http://www.w3.org/2000/svg"><path d="M16.2278768,8.02094489 L11.4778855,8.02094489 L11.4778855,9.77094167 C11.4778855,11.0115644 10.4685124,12.0209375 9.22788968,12.0209375 C7.98726696,12.0209375 6.97789381,11.0115644 6.97789381,9.77094167 L6.97789381,5.97094865 L4.94977254,7.18969642 C4.34664865,7.54907075 3.97789932,8.20219455 3.97789932,8.90219327 L3.97789932,10.3803156 L1.47790392,11.8240629 C0.999779796,12.0990624 0.8341551,12.7115613 1.11227959,13.1896854 L3.612275,17.5209274 C3.88727449,17.9990516 4.49977336,18.1615513 4.97789749,17.8865518 L8.20914155,16.0209302 L12.4778837,16.0209302 C13.5810067,16.0209302 14.47788,15.1240568 14.47788,14.0209339 L14.9778791,14.0209339 C15.5310031,14.0209339 15.9778773,13.5740597 15.9778773,13.0209357 L15.9778773,11.0209394 L16.2278768,11.0209394 C16.6435011,11.0209394 16.9778754,10.686565 16.9778754,10.2709408 L16.9778754,8.77094351 C16.9778754,8.35531927 16.6435011,8.02094489 16.2278768,8.02094489 Z M20.8434933,6.85219704 L18.3434979,2.52095499 C18.0684984,2.04283087 17.4559996,1.88033117 16.9778754,2.15533067 L13.7466314,4.02095224 L10.5528872,4.02095224 C10.1778879,4.02095224 9.8122636,4.12720204 9.49351419,4.32407668 L8.44664111,4.97720048 C8.15289165,5.15845015 7.97789197,5.48032456 7.97789197,5.82407392 L7.97789197,9.77094167 C7.97789197,10.4615654 8.53726595,11.0209394 9.22788968,11.0209394 C9.91851341,11.0209394 10.4778874,10.4615654 10.4778874,9.77094167 L10.4778874,7.02094673 L16.2278768,7.02094673 C17.1935,7.02094673 17.9778736,7.80532028 17.9778736,8.77094351 L17.9778736,9.66156687 L20.477869,8.21781953 C20.9559931,7.93969504 21.1184928,7.33032116 20.8434933,6.85219704 Z" fill="#31373D" fill-rule="evenodd"/></svg>