<svg viewBox="0 0 20 20" fill="none" xmlns="http://www.w3.org/2000/svg"><path fill-rule="evenodd" clip-rule="evenodd" d="M2.24805 3.0957L18.5996 15.8652C18.6816 15.9473 18.7637 16.084 18.7637 16.2207C18.7637 16.3301 18.709 16.4121 18.6543 16.4941L18.3809 16.8223C18.2988 16.9316 18.1895 16.9863 18.0254 16.9863C17.9434 16.9863 17.834 16.959 17.7793 16.9043L1.42773 4.10742C1.31836 4.05273 1.23633 3.91602 1.23633 3.7793C1.23633 3.66992 1.29102 3.58789 1.3457 3.50586L1.61914 3.15039C1.70117 3.06836 1.81055 3.01367 1.97461 3.01367C2.05664 3.01367 2.16602 3.04102 2.24805 3.0957ZM16.5746 12.6344C17.4699 11.4887 17.8896 10.4688 17.9285 10.372C18.0225 10.133 18.0225 9.867 17.9285 9.628C17.8365 9.399 15.6115 4 9.9995 4C8.65231 4 7.5003 4.31113 6.52613 4.78717L7.60249 5.62774C8.30544 5.36144 9.10138 5.2 9.9995 5.2C12.3749 5.2 14.0355 6.32932 15.1512 7.54099C16.1373 8.61183 16.654 9.70548 16.783 10C16.6767 10.2427 16.3072 11.0279 15.6288 11.8958L16.5746 12.6344ZM4.39116 8.07741C3.69939 8.95595 3.32335 9.75484 3.21597 10C3.34497 10.2945 3.86169 11.3882 4.84775 12.459C5.9635 13.6707 7.62414 14.8 9.9995 14.8C10.9085 14.8 11.7129 14.6346 12.4221 14.3625L13.4949 15.202C12.516 15.6842 11.3568 16 9.9995 16C4.3875 16 2.1625 10.601 2.0705 10.372C1.9765 10.133 1.9765 9.867 2.0705 9.628C2.10969 9.53045 2.53594 8.49474 3.44618 7.33786L4.39116 8.07741ZM13.1995 9.99865C13.1988 8.23252 11.7658 6.79999 9.9995 6.79999C9.73231 6.79999 9.47275 6.83277 9.22463 6.89452L10.9424 8.23602C11.1451 8.34465 11.3269 8.48718 11.4802 8.65602L13.1995 9.99865ZM8.42785 11.2366C8.62605 11.4881 8.88328 11.6909 9.17859 11.8241L10.8057 13.0975C10.5481 13.1644 10.278 13.2 9.9995 13.2C8.23276 13.2 6.7995 11.7667 6.7995 9.99999L6.79972 9.96237L8.42785 11.2366Z" fill="#616161"/></svg>