<svg viewBox="0 0 20 20" xmlns="http://www.w3.org/2000/svg"><path d="M19.25,12 C19.4583344,12 19.6354159,12.0729159 19.78125,12.21875 C19.9270841,12.3645841 20,12.5416656 20,12.75 L20,17.25 C20,17.4583344 19.9270841,17.6354159 19.78125,17.78125 C19.6354159,17.9270841 19.4583344,18 19.25,18 L14.75,18 C14.5416656,18 14.3645841,17.9270841 14.21875,17.78125 C14.0729159,17.6354159 14,17.4583344 14,17.25 L14,12.75 C14,12.5416656 14.0729159,12.3645841 14.21875,12.21875 C14.3645841,12.0729159 14.5416656,12 14.75,12 L16.25,12 L16.25,10.75 L10.75,10.75 L10.75,12 L12.25,12 C12.4583344,12 12.6354159,12.0729159 12.78125,12.21875 C12.9270841,12.3645841 13,12.5416656 13,12.75 L13,17.25 C13,17.4583344 12.9270841,17.6354159 12.78125,17.78125 C12.6354159,17.9270841 12.4583344,18 12.25,18 L7.75,18 C7.54166563,18 7.36458406,17.9270841 7.21875,17.78125 C7.07291594,17.6354159 7,17.4583344 7,17.25 L7,12.75 C7,12.5416656 7.07291594,12.3645841 7.21875,12.21875 C7.36458406,12.0729159 7.54166563,12 7.75,12 L9.25,12 L9.25,10.75 L3.75,10.75 L3.75,12 L5.25,12 C5.45833437,12 5.63541594,12.0729159 5.78125,12.21875 C5.92708406,12.3645841 6,12.5416656 6,12.75 L6,17.25 C6,17.4583344 5.92708406,17.6354159 5.78125,17.78125 C5.63541594,17.9270841 5.45833437,18 5.25,18 L0.75,18 C0.541665625,18 0.364584062,17.9270841 0.21875,17.78125 C0.0729159375,17.6354159 0,17.4583344 0,17.25 L0,12.75 C0,12.5416656 0.0729159375,12.3645841 0.21875,12.21875 C0.364584062,12.0729159 0.541665625,12 0.75,12 L2.25,12 L2.25,10.5 C2.25,10.1458316 2.36979047,9.84895953 2.609375,9.609375 C2.84895953,9.36979047 3.14583156,9.25 3.5,9.25 L9.25,9.25 L9.25,8 L7.75,8 C7.54166563,8 7.36458406,7.92708406 7.21875,7.78125 C7.07291594,7.63541594 7,7.45833437 7,7.25 L7,2.75 C7,2.54166563 7.07291594,2.36458406 7.21875,2.21875 C7.36458406,2.07291594 7.54166563,2 7.75,2 L12.25,2 C12.4583344,2 12.6354159,2.07291594 12.78125,2.21875 C12.9270841,2.36458406 13,2.54166563 13,2.75 L13,7.25 C13,7.45833437 12.9270841,7.63541594 12.78125,7.78125 C12.6354159,7.92708406 12.4583344,8 12.25,8 L10.75,8 L10.75,9.25 L16.5,9.25 C16.8541684,9.25 17.1510405,9.36979047 17.390625,9.609375 C17.6302095,9.84895953 17.75,10.1458316 17.75,10.5 L17.75,12 L19.25,12 Z" fill="#31373D" fill-rule="evenodd"/></svg>