<svg viewBox="0 0 20 20" fill="none" xmlns="http://www.w3.org/2000/svg"><path fill-rule="evenodd" clip-rule="evenodd" d="M7.37888 13L5.25 12.3119L6.71226 10.8066L8.15301 12.2474L7.37888 13ZM7.65843 7.75307C7.65843 7.51653 7.76594 7.30149 7.91647 7.15097L8.81963 6.39833L12.5398 10.1185L11.7657 11.0217C11.5721 11.2582 11.2496 11.3442 10.9485 11.2582L10.0453 10.9786L8.94865 12.0753L6.86278 9.98947L7.95948 8.89277L7.67993 7.98961C7.65843 7.9036 7.65843 7.83909 7.65843 7.75307ZM15.2278 2.35562L16.5825 3.71036C17.0341 4.14043 17.0556 4.85006 16.647 5.32314L12.9914 9.6024L9.33572 5.94675L13.615 2.29111C14.0881 1.88254 14.7977 1.90404 15.2278 2.35562ZM5.28605 13.7938C4.91291 13.4021 4.30265 13.4021 3.92951 13.7938C3.44181 14.3059 3.06594 14.7533 2.79855 15.1439C2.54717 15.5112 2.32196 15.9264 2.26437 16.3613C2.23305 16.5977 2.24688 16.8751 2.36683 17.1494C2.48911 17.429 2.68672 17.6252 2.89327 17.7523C3.26209 17.9793 3.68687 18.0053 3.98213 17.9993C4.61281 17.9863 5.40396 17.7945 6.11908 17.5855C6.85309 17.371 7.60444 17.108 8.18583 16.9045L8.18821 16.9036L8.19435 16.9015C9.36265 16.4926 11.027 15.9633 12.5856 15.9075C14.144 15.8516 15.3302 16.2661 15.9665 17.4354C16.2242 17.9088 16.8097 18.0837 17.2742 17.805C17.7309 17.531 17.8809 16.9306 17.6268 16.4637C16.4776 14.3521 14.3809 13.8652 12.5197 13.9319C10.6569 13.9987 8.76016 14.6171 7.58439 15.0286C6.99497 15.235 6.28512 15.4832 5.60167 15.6829C5.25436 15.7845 4.55515 15.9719 4.55515 15.9719C4.55515 15.9719 5.08477 15.3942 5.28606 15.1829C5.65263 14.798 5.65263 14.1787 5.28605 13.7938Z" fill="#616161"/></svg>
