<svg viewBox="0 0 20 20" fill="none" xmlns="http://www.w3.org/2000/svg"><path fill-rule="evenodd" clip-rule="evenodd" d="M4.76868 15.23C4.53437 15.4643 4.53299 15.8461 4.78406 16.0624C6.18542 17.2694 8.00831 18 9.99865 18C14.41 18 17.9986 14.4113 17.9986 10C17.9986 5.58873 14.41 2 9.99865 2C7.79434 2 5.79541 2.89611 4.34703 4.34317L2.7937 2.78984C2.4812 2.47734 1.94995 2.69609 1.94995 3.13359V7.66484C1.94995 7.94609 2.1687 8.16484 2.44995 8.16484H6.9812C7.4187 8.16484 7.63745 7.63359 7.32495 7.32109L5.58295 5.57908C6.71469 4.44866 8.27644 3.74863 9.99865 3.74863C13.4457 3.74863 16.25 6.55308 16.25 10C16.25 13.4471 13.4457 16.2514 9.99865 16.2514C8.49038 16.2514 7.10518 15.7145 6.02411 14.8218C5.76859 14.6108 5.39036 14.6083 5.15604 14.8426L4.76868 15.23ZM10.6926 6.65665V10.0096L13.0182 12.3352C13.283 12.5998 13.2828 13.0289 13.0182 13.2936C12.7537 13.5584 12.3246 13.5584 12.0598 13.2936L9.53562 10.7697C9.39487 10.6289 9.33139 10.4418 9.3403 10.2575C9.34007 10.2527 9.33942 10.248 9.33876 10.2434C9.33796 10.2377 9.33716 10.232 9.33716 10.2261V6.65665C9.33716 6.28226 9.64057 5.97888 10.0149 5.97888C10.3892 5.97888 10.6926 6.28226 10.6926 6.65665Z" fill="#616161"/></svg>
