<svg viewBox="0 0 20 20" xmlns="http://www.w3.org/2000/svg"><path d="M17.5,17.2 C18.325,17.2 19,16.525 19,15.7 L19,4.3 C19,3.475 18.325,2.8 17.5,2.8 L2.5,2.8 C1.675,2.8 1,3.475 1,4.3 L1,15.7 C1,16.525 1.675,17.2 2.5,17.2 L17.5,17.2 Z M17.5,16 L2.5,16 C2.340625,16 2.2,15.859375 2.2,15.7 L2.2,4.3 C2.2,4.140625 2.340625,4 2.5,4 L17.5,4 C17.659375,4 17.8,4.140625 17.8,4.3 L17.8,15.7 C17.8,15.859375 17.659375,16 17.5,16 Z M5.2,8.8 C6.19375,8.8 7,7.99375 7,7 C7,6.00625 6.19375,5.2 5.2,5.2 C4.20625,5.2 3.4,6.00625 3.4,7 C3.4,7.99375 4.20625,8.8 5.2,8.8 Z M16.6,14.8 L16.6,10.6 L12.7,6.7 L7.9,11.5 L6.4,10 L3.4,13 L3.4,14.8 L16.6,14.8 Z" fill="#31373D" fill-rule="evenodd"/></svg>