<svg viewBox="0 0 20 20" fill="none" xmlns="http://www.w3.org/2000/svg"><path fill-rule="evenodd" clip-rule="evenodd" d="M11 10.586L13.29 8.29C13.681 7.899 14.319 7.899 14.71 8.29C15.101 8.681 15.101 9.319 14.71 9.71L10.707 13.707C10.512 13.902 10.256 14 10 14C9.74402 14 9.48802 13.902 9.29302 13.707L5.29 9.71C4.899 9.319 4.899 8.681 5.29 8.29C5.681 7.899 6.319 7.899 6.71 8.29L9.00002 10.586L9.00002 3C9.00002 2.448 9.44702 2 10 2C10.553 2 11 2.448 11 3V10.586ZM3 18L17 18C17.553 18 18 17.552 18 17V13C18 12.447 17.552 12 17 12C16.448 12 16 12.447 16 13V16L4 16L4 13C4 12.447 3.552 12 3 12C2.448 12 2 12.447 2 13V17C2 17.552 2.447 18 3 18Z" fill="#616161"/></svg>
