<svg viewBox="0 0 20 20" xmlns="http://www.w3.org/2000/svg"><path d="M18.75,9.625 C18.9166675,9.87500125 19,10.1562484 19,10.46875 L19,14.5 C19,14.9166687 18.8541681,15.2708319 18.5625,15.5625 C18.2708319,15.8541681 17.9166687,16 17.5,16 L2.5,16 C2.08333125,16 1.72916812,15.8541681 1.4375,15.5625 C1.14583188,15.2708319 1,14.9166687 1,14.5 L1,10.46875 C1,10.1562484 1.0833325,9.87500125 1.25,9.625 L4.5625,4.65625 C4.68750063,4.44791563 4.86458219,4.28645891 5.09375,4.171875 C5.32291781,4.05729109 5.56249875,4 5.8125,4 L14.1875,4 C14.4375013,4 14.6770822,4.05729109 14.90625,4.171875 C15.1354178,4.28645891 15.3124994,4.44791563 15.4375,4.65625 L18.75,9.625 Z M6.0625,6 L3.40625,10 L7.25,10 L8.25,12 L11.75,12 L12.75,10 L16.59375,10 L13.9375,6 L6.0625,6 Z" fill="#31373D" fill-rule="evenodd"/></svg>