<svg viewBox="0 0 20 20" xmlns="http://www.w3.org/2000/svg"><path d="M10,0 C4.47754032,0 0,4.47915323 0,10 C0,15.5240726 4.47754032,20 10,20 C15.5224597,20 20,15.5240726 20,10 C20,4.47915323 15.5224597,0 10,0 Z M10,4.43548387 C10.9353226,4.43548387 11.6935484,5.19370968 11.6935484,6.12903226 C11.6935484,7.06435484 10.9353226,7.82258065 10,7.82258065 C9.06467742,7.82258065 8.30645161,7.06435484 8.30645161,6.12903226 C8.30645161,5.19370968 9.06467742,4.43548387 10,4.43548387 Z M12.2580645,14.6774194 C12.2580645,14.9446371 12.0414113,15.1612903 11.7741935,15.1612903 L8.22580645,15.1612903 C7.95858871,15.1612903 7.74193548,14.9446371 7.74193548,14.6774194 L7.74193548,13.7096774 C7.74193548,13.4424597 7.95858871,13.2258065 8.22580645,13.2258065 L8.70967742,13.2258065 L8.70967742,10.6451613 L8.22580645,10.6451613 C7.95858871,10.6451613 7.74193548,10.4285081 7.74193548,10.1612903 L7.74193548,9.19354839 C7.74193548,8.92633065 7.95858871,8.70967742 8.22580645,8.70967742 L10.8064516,8.70967742 C11.0736694,8.70967742 11.2903226,8.92633065 11.2903226,9.19354839 L11.2903226,13.2258065 L11.7741935,13.2258065 C12.0414113,13.2258065 12.2580645,13.4424597 12.2580645,13.7096774 L12.2580645,14.6774194 Z" fill="#31373D" fill-rule="evenodd"/></svg>