<svg width="17" height="16" viewBox="0 0 17 16" fill="none" xmlns="http://www.w3.org/2000/svg">
<g clip-path="url(#clip0_3851_57587)">
<path fill-rule="evenodd" clip-rule="evenodd" d="M8.5 16C4.0888 16 0.5 12.4112 0.5 8C0.5 3.5888 4.0888 0 8.5 0C12.9112 0 16.5 3.5888 16.5 8C16.5 12.4112 12.9112 16 8.5 16ZM8.5 1.6C4.9712 1.6 2.1 4.4712 2.1 8C2.1 11.5288 4.9712 14.4 8.5 14.4C12.0288 14.4 14.9 11.5288 14.9 8C14.9 4.4712 12.0288 1.6 8.5 1.6ZM8.5 12C8.0584 12 7.7 11.6424 7.7 11.2V8C7.7 7.5576 8.0584 7.2 8.5 7.2C8.9416 7.2 9.3 7.5576 9.3 8V11.2C9.3 11.6424 8.9416 12 8.5 12ZM9.3 4.8C9.3 5.2424 8.9416 5.6 8.5 5.6C8.0584 5.6 7.7 5.2424 7.7 4.8C7.7 4.3576 8.0584 4 8.5 4C8.9416 4 9.3 4.3576 9.3 4.8Z" fill="#757575"/>
</g>
<defs>
<clipPath id="clip0_3851_57587">
<rect width="16" height="16" fill="white" transform="translate(0.5)"/>
</clipPath>
</defs>
</svg>
