<svg viewBox="0 0 20 20" fill="none" xmlns="http://www.w3.org/2000/svg"><path d="M1 18.5C1 18.2239 1.22386 18 1.5 18H18.5C18.7761 18 19 18.2239 19 18.5V19.5C19 19.7761 18.7761 20 18.5 20H1.5C1.22386 20 1 19.7761 1 19.5V18.5Z" fill="#616161"/><path fill-rule="evenodd" clip-rule="evenodd" d="M3.0113 14.8906C2.37725 14.4917 1.91575 13.9662 1.64627 13.3144C1.56928 13.1768 1.52228 13.0233 1.52228 12.858C1.52228 12.6226 1.61063 12.4083 1.7868 12.2459C1.95316 12.0831 2.16379 11.996 2.39828 11.996C2.58704 11.996 2.77603 12.0465 2.93633 12.1728C3.09045 12.2942 3.1845 12.4593 3.23925 12.6317C3.36292 12.968 3.60236 13.2566 3.98909 13.4944C4.38934 13.7255 4.84056 13.844 5.35228 13.844C5.76317 13.844 6.11194 13.7728 6.40693 13.6409L6.41044 13.6393C6.72131 13.5038 6.93951 13.3301 7.0863 13.1274L7.09152 13.1202C7.24473 12.9182 7.31828 12.6996 7.31828 12.452C7.31828 12.1495 7.19969 11.8807 6.91956 11.6301C6.63535 11.3758 6.10667 11.1204 5.27474 10.8918C4.26951 10.6176 3.47201 10.2462 2.91985 9.75479C2.35499 9.25209 2.05428 8.62857 2.05428 7.90199C2.05428 7.36613 2.20357 6.87824 2.50621 6.4523L2.51021 6.44667C2.82183 6.02375 3.25797 5.70341 3.79642 5.4756L3.79892 5.47454C4.35162 5.24512 4.97958 5.13599 5.67428 5.13599C6.64144 5.13599 7.45061 5.32033 8.05561 5.73748C8.67122 6.15244 9.00028 6.73957 9.00028 7.46799C9.00028 7.69186 8.91916 7.89361 8.7716 8.05757L8.76456 8.06539L8.75712 8.07283C8.59633 8.23362 8.39116 8.31599 8.16628 8.31599C7.95594 8.31599 7.76347 8.24245 7.60653 8.10295L7.59775 8.09514L7.58943 8.08683C7.45272 7.95011 7.36883 7.77845 7.3489 7.5843C7.32068 7.38337 7.20156 7.19159 6.90021 7.01519L6.89647 7.013C6.60511 6.83819 6.19368 6.73399 5.63228 6.73399C4.94763 6.73399 4.47351 6.86223 4.16375 7.07039C3.88105 7.26626 3.75028 7.51627 3.75028 7.85999C3.75028 8.11752 3.85798 8.3472 4.13824 8.56346C4.45373 8.79943 4.96723 9.02983 5.71184 9.23872C6.74848 9.52673 7.56687 9.91707 8.12695 10.4336C8.7113 10.9543 9.01428 11.6116 9.01428 12.382C9.01428 12.9711 8.83791 13.5137 8.49226 13.9998L8.48979 14.0033C8.14735 14.4741 7.69023 14.8378 7.13033 15.097C6.57231 15.3553 5.97815 15.484 5.35228 15.484C4.4641 15.484 3.67995 15.294 3.01768 14.8945L3.0113 14.8906Z" fill="#616161"/><path d="M10.0169 14.636L10.0309 5.98399C10.0311 5.76285 10.1174 5.56734 10.2667 5.41461C10.4227 5.2452 10.6293 5.14999 10.8649 5.14999C11.1403 5.14999 11.3752 5.26904 11.5483 5.47361L11.5611 5.48879L16.0089 11.9496V5.98399C16.0089 5.75911 16.0913 5.55394 16.2521 5.39314C16.4131 5.23206 16.6196 5.13599 16.8569 5.13599C17.0889 5.13599 17.2928 5.22833 17.448 5.39293C17.6126 5.54811 17.7049 5.75201 17.7049 5.98399V14.636C17.7049 14.8546 17.6176 15.085 17.4617 15.2408C17.2949 15.4077 17.082 15.484 16.8569 15.484C16.7159 15.484 16.5872 15.4384 16.482 15.3858C16.361 15.3252 16.2463 15.2377 16.1623 15.1132L11.7244 8.69088L11.7129 14.6368C11.7127 14.8737 11.6167 15.0799 11.4557 15.2408C11.295 15.4016 11.0898 15.484 10.8649 15.484C10.641 15.484 10.4393 15.4029 10.2753 15.2553C10.111 15.091 10.0169 14.869 10.0169 14.636Z" fill="#616161"/></svg>
