<svg viewBox="0 0 20 20" fill="none" xmlns="http://www.w3.org/2000/svg"><path d="M5 3H4.5C3.65625 3 3 3.6875 3 4.5V17.5C3 18.3438 3.65625 19 4.5 19H13.5C14.3125 19 15 18.3438 15 17.5V17H13.5V17.5H4.5V4.5H5V3Z" fill="#616161"/><path d="M11.8571 10.1429H13.4286C13.7441 10.1429 14 10.3988 14 10.7143V11.2857C14 11.6013 13.7441 11.8571 13.4286 11.8571H11.8571V13.4286C11.8571 13.7441 11.6013 14 11.2857 14H10.7143C10.3988 14 10.1429 13.7441 10.1429 13.4286V11.8571H8.57143C8.25589 11.8571 8 11.6013 8 11.2857V10.7143C8 10.3988 8.25589 10.1429 8.57143 10.1429H10.1429V8.57143C10.1429 8.25589 10.3988 8 10.7143 8H11.2857C11.6013 8 11.8571 8.25589 11.8571 8.57143V10.1429Z" fill="#616161"/><path fill-rule="evenodd" clip-rule="evenodd" d="M13.9375 1.4375L16.5312 4.0625C16.8125 4.34375 17 4.75 17 5.125V15.5C17 16.3438 16.3125 17 15.5 17H6.5C5.65625 17 5 16.3438 5 15.5V2.5C5 1.6875 5.65625 1 6.5 1H12.875C13.25 1 13.6562 1.15625 13.9375 1.4375ZM13 5H15.375L13 2.625V5ZM6.5 2.5V15.5H15.5V6.5H12.25C11.8125 6.5 11.5 6.1875 11.5 5.75V2.5H6.5Z" fill="#616161"/></svg>