<svg viewBox="0 0 20 20" fill="none" xmlns="http://www.w3.org/2000/svg"><path d="M13.7796 3.30179L14.5312 4.0625C14.8125 4.34375 15 4.75 15 5.125V6.625L15.5 7.125V17.5H6.5V17H5V17.5C5 18.3438 5.65625 19 6.5 19H15.5C16.3125 19 17 18.3438 17 17.5V7.125C17 6.75 16.8125 6.34375 16.5312 6.0625L13.9375 3.4375C13.8884 3.3884 13.8355 3.34311 13.7796 3.30179Z" fill="#616161"/><path d="M9.85714 10.1429H11.4286C11.7441 10.1429 12 10.3988 12 10.7143V11.2857C12 11.6013 11.7441 11.8571 11.4286 11.8571H9.85714V13.4286C9.85714 13.7441 9.60125 14 9.28571 14H8.71429C8.39875 14 8.14286 13.7441 8.14286 13.4286V11.8571H6.57143C6.25589 11.8571 6 11.6013 6 11.2857V10.7143C6 10.3988 6.25589 10.1429 6.57143 10.1429H8.14286V8.57143C8.14286 8.25589 8.39875 8 8.71429 8H9.28571C9.60125 8 9.85714 8.25589 9.85714 8.57143V10.1429Z" fill="#616161"/><path fill-rule="evenodd" clip-rule="evenodd" d="M11.9375 1.4375L14.5312 4.0625C14.8125 4.34375 15 4.75 15 5.125V15.5C15 16.3438 14.3125 17 13.5 17H4.5C3.65625 17 3 16.3438 3 15.5V2.5C3 1.6875 3.65625 1 4.5 1H10.875C11.25 1 11.6562 1.15625 11.9375 1.4375ZM11 5H13.375L11 2.625V5ZM4.5 2.5V15.5H13.5V6.5H10.25C9.8125 6.5 9.5 6.1875 9.5 5.75V2.5H4.5Z" fill="#616161"/></svg>