<svg viewBox="0 0 20 20" fill="none" xmlns="http://www.w3.org/2000/svg"><path fill-rule="evenodd" clip-rule="evenodd" d="M10.9998 14H6.99975C6.44675 14 5.99975 13.552 5.99975 13V9C5.99975 8.448 6.44675 8 6.99975 8C7.55275 8 7.99975 8.448 7.99975 9V10.586L15.2928 3.293C15.4878 3.098 15.7437 3 15.9998 3C16.2557 3 16.5118 3.098 16.7067 3.293C17.0977 3.684 17.0977 4.316 16.7067 4.707L9.41375 12H10.9998C11.5527 12 11.9998 12.448 11.9998 13C11.9998 13.552 11.5527 14 10.9998 14ZM14 12C14 11.448 14.447 11 15 11C15.553 11 16 11.448 16 12V17C16 17.552 15.553 18 15 18H3C2.447 18 2 17.552 2 17V5C2 4.448 2.447 4 3 4H8C8.553 4 9 4.448 9 5C9 5.552 8.553 6 8 6H4V16H14V12Z" fill="#616161"/></svg>
