<svg viewBox="0 0 20 20" fill="none" xmlns="http://www.w3.org/2000/svg"><path d="M10.8 4.51876C10.8 2.68126 9.31876 1.20001 7.48126 1.20001C5.66251 1.21876 4.20001 2.68126 4.20001 4.50001C4.20001 4.87501 4.25626 5.21251 4.35001 5.55001L1.33126 8.56876C1.23751 8.66251 1.20001 8.77501 1.20001 8.88751V10.35C1.20001 10.6125 1.38751 10.8 1.65001 10.8H3.75001C3.99376 10.8 4.20001 10.6125 4.20001 10.35V9.60001H4.95001C5.19376 9.60001 5.40001 9.41251 5.40001 9.15001V8.40001H6.09376C6.22501 8.40001 6.33751 8.34376 6.43126 8.25001L6.88126 7.74376C7.06876 7.78126 7.27501 7.80001 7.50001 7.80001C9.31876 7.80001 10.8 6.33751 10.8 4.51876ZM7.50001 3.60001C7.50001 3.11251 7.89376 2.70001 8.40001 2.70001C8.88751 2.70001 9.30001 3.11251 9.30001 3.60001C9.30001 4.10626 8.88751 4.50001 8.40001 4.50001C7.89376 4.50001 7.50001 4.10626 7.50001 3.60001Z" fill="#757575"/></svg>
