<svg viewBox="0 0 20 20" xmlns="http://www.w3.org/2000/svg"><path d="M7.50181137,16.1981632 C7.50212387,16.3947215 7.56024763,16.5872174 7.66930782,16.750964 L8.203359,17.5537595 C8.38865233,17.8324893 8.70114154,17.9999948 9.03584136,18 L10.964238,18 C11.2989378,17.9999948 11.611427,17.8324893 11.7967203,17.5537595 L12.3307715,16.750964 C12.4397846,16.5871939 12.4980496,16.3948977 12.498268,16.1981632 L12.4995179,14.9997511 L7.50024891,14.9997511 L7.50181137,16.1981632 Z M4.5,7.49991006 C4.5,8.88644317 5.0140516,10.1514164 5.86122115,11.1179584 C6.3774602,11.7070084 7.18494309,12.9376073 7.49274906,13.9757103 C7.49399904,13.9838351 7.49493652,13.99196 7.49618649,14.0000848 L12.5035804,14.0000848 C12.5048303,13.99196 12.5057678,13.9841476 12.5070178,13.9757103 C12.8148238,12.9376073 13.6223066,11.7070084 14.1385457,11.1179584 C14.9857152,10.1514164 15.4997668,8.88644317 15.4997668,7.49991006 C15.4997668,4.45653707 13.0282567,1.99065184 9.98269629,2.00002664 C6.79495136,2.00971394 4.5,4.59278419 4.5,7.49991006 Z M9.99988342,4.99996305 C8.62147514,4.99996305 7.49993641,6.12150178 7.49993641,7.49991006 C7.49993641,7.77615421 7.27619115,7.99989947 6.99994701,7.99989947 C6.72370287,7.99989947 6.49995761,7.77615421 6.49995761,7.49991006 C6.49995761,5.56995097 8.06992433,3.99998425 9.99988342,3.99998425 C10.2761276,3.99998425 10.4998728,4.22372951 10.4998728,4.49997365 C10.4998728,4.7762178 10.2761276,4.99996305 9.99988342,4.99996305 Z" fill="#31373D" fill-rule="evenodd"/></svg>