<svg viewBox="0 0 20 20" xmlns="http://www.w3.org/2000/svg">
<path fill-rule="evenodd" clip-rule="evenodd" d="M2.5 3C2.22386 3 2 3.22386 2 3.5V4.5V7.5V8.5C2 8.77614 2.22386 9 2.5 9H3.5H6V11.5V12.5V15.5V16.5C6 16.7589 6.19675 16.9718 6.44888 16.9974C6.46569 16.9991 6.48274 17 6.5 17H7.5H17.5C17.7761 17 18 16.7761 18 16.5V15.5C18 15.2239 17.7761 15 17.5 15H8V13H17.5C17.7761 13 18 12.7761 18 12.5V11.5C18 11.2239 17.7761 11 17.5 11H8V9H17.5C17.7761 9 18 8.77614 18 8.5V7.5C18 7.22386 17.7761 7 17.5 7H7.5H6.5H4V5H17.5C17.7761 5 18 4.77614 18 4.5V3.5C18 3.22386 17.7761 3 17.5 3H3.5H2.5Z" fill="#616161"/>
</svg>
