<svg viewBox="0 0 20 20" xmlns="http://www.w3.org/2000/svg"><path d="M8.27329923,3.24286445 C8.68449105,3.24286445 9.02092072,3.57929412 9.02092072,3.99048593 C9.02092072,4.40167775 8.68449105,4.73810742 8.27329923,4.73810742 L8.27329923,4.73810742 L4.74286445,4.73810742 C4.33167263,4.73810742 3.99524297,5.07453708 3.99524297,5.4857289 L3.99524297,5.4857289 L3.99524297,16.0370087 C3.99524297,16.4482005 4.33167263,16.7846302 4.74286445,16.7846302 L4.74286445,16.7846302 L12.9667008,16.7846302 C13.3778926,16.7846302 13.7143223,16.4482005 13.7143223,16.0370087 L13.7143223,16.0370087 L13.7143223,9.02 C13.7143223,8.60880818 14.0507519,8.28 14.4619437,8.28 C14.8731355,8.28 15.2095652,8.60880818 15.2095652,9.02 L15.2095652,9.02 L15.2095652,16.6201535 C15.2095652,17.4425371 14.5367059,18.1153964 13.7143223,18.1153964 L13.7143223,18.1153964 L3.99524297,18.1153964 C3.17285934,18.1153964 2.5,17.4425371 2.5,16.6201535 L2.5,16.6201535 L2.5,4.73810742 C2.5,3.91572379 3.17285934,3.24286445 3.99524297,3.24286445 L3.99524297,3.24286445 Z M11.8452685,13.71 C12.0516868,13.71 12.2190793,13.8773925 12.2190793,14.0838107 L12.2190793,14.8314322 C12.2190793,15.0378505 12.0516868,15.205243 11.8452685,15.205243 L9.60240409,15.205243 C9.3959559,15.205243 9.22859335,15.0378505 9.22859335,14.8314322 L9.22859335,14.0838107 C9.22859335,13.8773925 9.3959559,13.71 9.60240409,13.71 L11.8452685,13.71 Z M8.10716113,13.71 C8.31360932,13.71 8.48097187,13.8773925 8.48097187,14.0838107 L8.48097187,14.8314322 C8.48097187,15.0378505 8.31360932,15.205243 8.10716113,15.205243 L5.86429668,15.205243 C5.65784848,15.205243 5.49048593,15.0378505 5.49048593,14.8314322 L5.49048593,14.0838107 C5.49048593,13.8773925 5.65784848,13.71 5.86429668,13.71 L8.10716113,13.71 Z M11.8452685,11.2177835 C12.0516868,11.2177835 12.2190793,11.3851759 12.2190793,11.5915942 L12.2190793,12.3392157 C12.2190793,12.545634 12.0516868,12.7130264 11.8452685,12.7130264 L9.60240409,12.7130264 C9.3959559,12.7130264 9.22859335,12.545634 9.22859335,12.3392157 L9.22859335,11.5915942 C9.22859335,11.3851759 9.3959559,11.2177835 9.60240409,11.2177835 L11.8452685,11.2177835 Z M8.10716113,11.2177835 C8.31360932,11.2177835 8.48097187,11.3851759 8.48097187,11.5915942 L8.48097187,12.3392157 C8.48097187,12.545634 8.31360932,12.7130264 8.10716113,12.7130264 L5.86429668,12.7130264 C5.65784848,12.7130264 5.49048593,12.545634 5.49048593,12.3392157 L5.49048593,11.5915942 C5.49048593,11.3851759 5.65784848,11.2177835 5.86429668,11.2177835 L8.10716113,11.2177835 Z M11.8452685,8.72556692 C12.0516868,8.72556692 12.2190793,8.89295937 12.2190793,9.09937766 L12.2190793,9.84699915 C12.2190793,10.0534174 12.0516868,10.2208099 11.8452685,10.2208099 L9.60240409,10.2208099 C9.3959559,10.2208099 9.22859335,10.0534174 9.22859335,9.84699915 L9.22859335,9.09937766 C9.22859335,8.89295937 9.3959559,8.72556692 9.60240409,8.72556692 L11.8452685,8.72556692 Z M8.10716113,8.72556692 C8.31360932,8.72556692 8.48097187,8.89295937 8.48097187,9.09937766 L8.48097187,9.84699915 C8.48097187,10.0534174 8.31360932,10.2208099 8.10716113,10.2208099 L5.86429668,10.2208099 C5.65784848,10.2208099 5.49048593,10.0534174 5.49048593,9.84699915 L5.49048593,9.09937766 C5.49048593,8.89295937 5.65784848,8.72556692 5.86429668,8.72556692 L8.10716113,8.72556692 Z M10.8452685,6.23335038 C11.0516868,6.23335038 11.2190793,6.40071293 11.2190793,6.60716113 L11.2190793,7.35478261 C11.2190793,7.56123081 11.0516868,7.72859335 10.8452685,7.72859335 L5.86429668,7.72859335 C5.65784848,7.72859335 5.49048593,7.56123081 5.49048593,7.35478261 L5.49048593,6.60716113 C5.49048593,6.40071293 5.65784848,6.23335038 5.86429668,6.23335038 L10.8452685,6.23335038 Z M14.3645116,1.15004737 C15.2055858,1.14547857 16.0480057,1.47145664 16.8685203,2.11891553 C17.5084095,2.62385908 17.9694677,3.19742681 18.1663912,3.44230275 C18.2105008,3.49716322 18.2813753,3.59647725 18.3020845,3.62556721 C18.4448054,3.82625124 18.4462259,4.0947894 18.3058226,4.29702101 C18.2854125,4.32645487 18.2155847,4.42642681 18.1722226,4.48176576 C17.9779158,4.72890699 17.5231376,5.30738659 16.8888556,5.81932788 C16.0755182,6.47575449 15.2366869,6.81096554 14.3956127,6.81562679 C13.5545385,6.82019866 12.7121186,6.49422074 11.8916041,5.84675811 C11.2517148,5.34181456 10.7906567,4.76824683 10.5937332,4.52337089 C10.5496235,4.46851043 10.478749,4.36919639 10.4580399,4.34010644 C10.3153189,4.1394224 10.3138984,3.8707721 10.4543765,3.66854049 C10.4747118,3.63921877 10.5445397,3.53913469 10.5880512,3.48379574 C10.7822085,3.23677413 11.2369867,2.65828705 11.8712688,2.14635324 C12.6846062,1.48992065 13.5234375,1.15471289 14.3645116,1.15004737 Z M14.3709412,2.3182085 C13.503476,2.32300125 12.5971344,2.88764985 11.6744948,3.99768832 C12.6092459,5.0974171 13.5216432,5.65220457 14.3891831,5.64746524 C15.2567231,5.6426724 16.1629899,5.07802379 17.0856295,3.96798532 C16.1508784,2.86825655 15.2384811,2.31347655 14.3709412,2.3182085 Z M14.4031637,2.87292705 C15.0161385,2.86957984 15.5156244,3.36365297 15.5190058,3.97658297 C15.522353,4.58952044 15.0283248,5.08904374 14.4153499,5.09242511 C13.8024498,5.09577233 13.3028891,4.60169919 13.2995078,3.9887692 C13.2961605,3.3758392 13.7902636,2.87630843 14.4031637,2.87292705 Z" fill="#31373D" fill-rule="evenodd"/></svg>