<svg viewBox="0 0 20 20" xmlns="http://www.w3.org/2000/svg"><path d="M2.5,3 L17.5,3 C17.7761424,3 18,3.22385763 18,3.5 L18,4.5 C18,4.77614237 17.7761424,5 17.5,5 L2.5,5 C2.22385763,5 2,4.77614237 2,4.5 L2,3.5 C2,3.22385763 2.22385763,3 2.5,3 Z M2.5,7 L17.5,7 C17.7761424,7 18,7.22385763 18,7.5 L18,8.5 C18,8.77614237 17.7761424,9 17.5,9 L2.5,9 C2.22385763,9 2,8.77614237 2,8.5 L2,7.5 C2,7.22385763 2.22385763,7 2.5,7 Z M2.5,11 L17.5,11 C17.7761424,11 18,11.2238576 18,11.5 L18,12.5 C18,12.7761424 17.7761424,13 17.5,13 L2.5,13 C2.22385763,13 2,12.7761424 2,12.5 L2,11.5 C2,11.2238576 2.22385763,11 2.5,11 Z M2.5,15 L17.5,15 C17.7761424,15 18,15.2238576 18,15.5 L18,16.5 C18,16.7761424 17.7761424,17 17.5,17 L2.5,17 C2.22385763,17 2,16.7761424 2,16.5 L2,15.5 C2,15.2238576 2.22385763,15 2.5,15 Z" fill="#31373D" fill-rule="evenodd"/></svg>