<svg viewBox="0 0 20 20" xmlns="http://www.w3.org/2000/svg"><path d="M6.54545455,9.09090909 L13.8181818,9.09090909 L13.8181818,6.36363636 C13.8181818,5.35984848 13.4630682,4.50284091 12.7528409,3.79261364 C12.0426136,3.08238636 11.1856061,2.72727273 10.1818182,2.72727273 C9.1780303,2.72727273 8.32102273,3.08238636 7.61079545,3.79261364 C6.90056818,4.50284091 6.54545455,5.35984848 6.54545455,6.36363636 L6.54545455,9.09090909 Z M18.3636364,10.4545455 L18.3636364,18.6363636 C18.3636364,19.0151515 18.2310606,19.3371212 17.9659091,19.6022727 C17.7007576,19.8674242 17.3787879,20 17,20 L3.36363636,20 C2.98484848,20 2.66287879,19.8674242 2.39772727,19.6022727 C2.13257576,19.3371212 2,19.0151515 2,18.6363636 L2,10.4545455 C2,10.0757576 2.13257576,9.75378788 2.39772727,9.48863636 C2.66287879,9.22348485 2.98484848,9.09090909 3.36363636,9.09090909 L3.81818182,9.09090909 L3.81818182,6.36363636 C3.81818182,4.62121212 4.44318182,3.125 5.69318182,1.875 C6.94318182,0.625 8.43939394,0 10.1818182,0 C11.9242424,0 13.4204545,0.625 14.6704545,1.875 C15.9204545,3.125 16.5454545,4.62121212 16.5454545,6.36363636 L16.5454545,9.09090909 L17,9.09090909 C17.3787879,9.09090909 17.7007576,9.22348485 17.9659091,9.48863636 C18.2310606,9.75378788 18.3636364,10.0757576 18.3636364,10.4545455 Z" fill="#31373D" fill-rule="evenodd"/></svg>