<svg viewBox="0 0 20 20" xmlns="http://www.w3.org/2000/svg"><path d="M7.95454545,8.90909091 L12.6818182,8.90909091 L12.6818182,7.13636364 C12.6818182,6.48390152 12.4509943,5.92684659 11.9893466,5.46519886 C11.5276989,5.00355114 10.9706439,4.77272727 10.3181818,4.77272727 C9.6657197,4.77272727 9.10866477,5.00355114 8.64701705,5.46519886 C8.18536932,5.92684659 7.95454545,6.48390152 7.95454545,7.13636364 L7.95454545,8.90909091 Z M15.6363636,9.79545455 L15.6363636,15.1136364 C15.6363636,15.3598485 15.5501894,15.5691288 15.3778409,15.7414773 C15.2054924,15.9138258 14.9962121,16 14.75,16 L5.88636364,16 C5.64015152,16 5.43087121,15.9138258 5.25852273,15.7414773 C5.08617424,15.5691288 5,15.3598485 5,15.1136364 L5,9.79545455 C5,9.54924242 5.08617424,9.33996212 5.25852273,9.16761364 C5.43087121,8.99526515 5.64015152,8.90909091 5.88636364,8.90909091 L6.18181818,8.90909091 L6.18181818,7.13636364 C6.18181818,6.00378788 6.58806818,5.03125 7.40056818,4.21875 C8.21306818,3.40625 9.18560606,3 10.3181818,3 C11.4507576,3 12.4232955,3.40625 13.2357955,4.21875 C14.0482955,5.03125 14.4545455,6.00378788 14.4545455,7.13636364 L14.4545455,8.90909091 L14.75,8.90909091 C14.9962121,8.90909091 15.2054924,8.99526515 15.3778409,9.16761364 C15.5501894,9.33996212 15.6363636,9.54924242 15.6363636,9.79545455 Z" fill="#31373D" fill-rule="evenodd"/></svg>