<svg viewBox="0 0 20 20" fill="none" xmlns="http://www.w3.org/2000/svg"><path fill-rule="evenodd" clip-rule="evenodd" d="M16.7751 4C17.0995 4.00039 17.411 4.12847 17.6407 4.35833C17.8704 4.58794 17.9996 4.89925 18 5.22402V13.775C17.9996 14.0998 17.8705 14.4112 17.6408 14.6408C17.4111 14.8706 17.0997 14.9996 16.7751 15H3.22495C2.90021 14.9996 2.58877 14.8704 2.35917 14.6408C2.12955 14.4112 2.00038 14.0999 2 13.7752V5.22414C2.00062 4.8996 2.12993 4.58836 2.35952 4.35891C2.58911 4.12958 2.90029 4.00038 3.22484 4H16.7751ZM16.7738 13.8009C16.7882 13.8003 16.7995 13.7887 16.8 13.7752V6.08L10.7202 10.47C10.5111 10.6225 10.2589 10.7 10 10.7C9.7413 10.7 9.4891 10.6225 9.27996 10.47L3.20056 6.08V13.7754C3.20103 13.7892 3.21222 13.8004 3.22602 13.8009H16.7738ZM10.0109 9.46235C10.0045 9.46744 9.99533 9.46744 9.98896 9.46235L4.08447 5.20006L15.9151 5.19995L10.0145 9.45947L10.0109 9.46235Z" fill="#616161"/></svg>
