<svg viewBox="0 0 20 20" fill="none" xmlns="http://www.w3.org/2000/svg"><path fill-rule="evenodd" clip-rule="evenodd" d="M6.5 1C6.22386 1 6 1.22386 6 1.5V4.5C6 4.77614 6.22386 5 6.5 5C6.77614 5 7 4.77614 7 4.5V1.5C7 1.22386 6.77614 1 6.5 1ZM8 3H12V4.5C12 5.32843 12.6716 6 13.5 6C14.3284 6 15 5.32843 15 4.5V3H16C17.1046 3 18 3.89543 18 5V16C18 17.1046 17.1046 18 16 18H4C2.89543 18 2 17.1046 2 16V5C2 3.89543 2.89543 3 4 3H5V4.5C5 5.32843 5.67157 6 6.5 6C7.32843 6 8 5.32843 8 4.5V3ZM3 7H17V16C17 16.5523 16.5523 17 16 17H4C3.44772 17 3 16.5523 3 16V7ZM13 1.5C13 1.22386 13.2239 1 13.5 1C13.7761 1 14 1.22386 14 1.5V4.5C14 4.77614 13.7761 5 13.5 5C13.2239 5 13 4.77614 13 4.5V1.5ZM8.25 12.4375C9.33008 12.4375 10.2188 11.5625 10.2188 10.4688C10.2188 9.38867 9.33008 8.5 8.25 8.5C7.15625 8.5 6.28125 9.38867 6.28125 10.4688C6.28125 11.5625 7.15625 12.4375 8.25 12.4375ZM8.25 13.0938C6.30069 13.0938 4.75 13.4268 4.75 15.5H11.75C11.75 13.4284 10.1979 13.0938 8.25 13.0938ZM14.2236 10.7043C14.2236 11.6298 13.4716 12.3702 12.5577 12.3702C11.6322 12.3702 10.8919 11.6298 10.8919 10.7043C10.8919 9.79041 11.6322 9.03846 12.5577 9.03846C13.4716 9.03846 14.2236 9.79041 14.2236 10.7043ZM12.5577 12.9255C11.9965 12.9255 11.4744 12.9581 11.0297 13.0702C11.4068 13.2835 11.7266 13.5829 11.9498 13.9923C12.1053 14.2774 12.2057 14.6007 12.2542 14.9615H15.5193C15.5193 13.2086 14.206 12.9255 12.5577 12.9255Z" fill="#616161"/></svg>