<svg viewBox="0 0 20 20" fill="none" xmlns="http://www.w3.org/2000/svg"><path d="M13.0625 3H6.9375C6.19922 3 5.625 3.60156 5.625 4.3125V15.6875C5.625 16.4258 6.19922 17 6.9375 17H13.0625C13.7734 17 14.375 16.4258 14.375 15.6875V4.3125C14.375 3.60156 13.7734 3 13.0625 3ZM10 16.125C9.50781 16.125 9.125 15.7422 9.125 15.25C9.125 14.7852 9.50781 14.375 10 14.375C10.4648 14.375 10.875 14.7852 10.875 15.25C10.875 15.7422 10.4648 16.125 10 16.125ZM13.0625 13.1719C13.0625 13.3633 12.8984 13.5 12.7344 13.5H7.26562C7.07422 13.5 6.9375 13.3633 6.9375 13.1719V4.64062C6.9375 4.47656 7.07422 4.3125 7.26562 4.3125H12.7344C12.8984 4.3125 13.0625 4.47656 13.0625 4.64062V13.1719Z" fill="#616161"/></svg>