<svg viewBox="0 0 20 20" xmlns="http://www.w3.org/2000/svg"><path d="M7.21955994,11.6666388 C5.96584058,11.7472618 4.82805589,12.2247501 4.18244667,13.9259586 C4.10901096,14.1200163 3.93245277,14.2378259 3.72652031,14.2378259 C3.37934129,14.2378259 2.30593002,13.3731596 2,13.1644147 C2.00031249,15.7377893 3.18559603,17.999609 6.00021474,17.999609 C8.37078181,17.999609 10.000117,16.6318299 10.000117,14.2437633 C10.000117,14.1465782 9.97980499,14.0537679 9.96980523,13.9584578 L7.21955994,11.6666388 Z M16.3090253,2 C15.8352869,2 15.3912352,2.20968238 15.0524935,2.51404994 C8.66483712,8.22016049 8.00016587,8.35421971 8.00016587,10.0338662 C8.00016587,10.4619807 8.10172589,10.8700957 8.2729717,11.2432116 L10.267298,12.905046 C10.492605,12.9612946 10.7247868,12.9997312 10.9669684,12.9997312 C12.9078584,12.9997312 14.0328309,11.5788284 17.5655571,4.98555204 C17.7961765,4.5371255 17.9999215,4.05276233 17.9999215,3.54839966 C17.9999215,2.64498424 17.1874413,2 16.3090253,2 Z" fill="#31373D" fill-rule="evenodd"/></svg>