<svg viewBox="0 0 20 20" xmlns="http://www.w3.org/2000/svg"><path d="M7.51448194,12.0833577 C5.94732505,12.184137 4.52508721,12.7810004 3.71807172,14.9075213 C3.62627664,15.1500947 3.40557782,15.2973575 3.14816097,15.2973575 C2.71418507,15.2973575 1.37241441,14.2165192 0.99,13.9555868 C0.990390617,17.1723209 2.4720023,19.9996094 5.99029296,19.9996094 C8.95351634,19.9996094 10.9901953,18.2898772 10.9901953,15.3047792 C10.9901953,15.1832972 10.9648052,15.0672838 10.9523054,14.9481455 L7.51448194,12.0833577 Z M18.8763694,0 C18.2841935,0 17.7291262,0.262104256 17.305697,0.642565575 C9.32108728,7.77523876 8.49024414,7.94281362 8.49024414,10.042382 C8.49024414,10.5775278 8.61719478,11.0876741 8.8312531,11.5540712 L11.3241732,13.6313744 C11.6058083,13.7016855 11.896037,13.7497315 12.1987655,13.7497315 C14.6248899,13.7497315 16.0311125,11.9735943 20.4470419,3.73195836 C20.7353175,3.17142243 20.99,2.56596551 20.99,1.93550907 C20.99,0.806234253 19.9743948,0 18.8763694,0 Z" fill="#31373D" fill-rule="evenodd"/></svg>