<svg viewBox="0 0 20 20" xmlns="http://www.w3.org/2000/svg"><path fill-rule="evenodd" clip-rule="evenodd" d="M16.125 7.875L17.5625 6.4375C17.8542 6.14583 18 5.79167 18 5.375C18 4.95833 17.8542 4.60417 17.5625 4.3125L15.6875 2.4375C15.3958 2.14583 15.0417 2 14.625 2C14.2083 2 13.8542 2.14583 13.5625 2.4375L12.125 3.875C12.0417 3.95833 12 4.05208 12 4.15625C12 4.26042 12.0417 4.34375 12.125 4.40625L15.5938 7.875C15.6563 7.95833 15.7396 8 15.8438 8C15.9479 8 16.0417 7.95833 16.125 7.875ZM11.1563 5C11.0521 5 10.9583 5.04167 10.875 5.125L2.68751 13.3125L2.00001 17.125C1.95834 17.375 2.03126 17.5937 2.21876 17.7812C2.40626 17.9688 2.62501 18.0417 2.87501 18L6.68751 17.3125L14.875 9.125C14.9583 9.04167 15 8.94792 15 8.84375C15 8.73958 14.9583 8.65625 14.875 8.59375L11.4063 5.125C11.3438 5.04167 11.2604 5 11.1563 5Z" fill="#616161"/></svg>
