<svg viewBox="0 0 20 20" xmlns="http://www.w3.org/2000/svg"><path d="M16.4285714,8.39285714 L11.6071429,8.39285714 L11.6071429,3.57142857 C11.6071429,2.97979911 11.1273438,2.5 10.5357143,2.5 L9.46428571,2.5 C8.87265625,2.5 8.39285714,2.97979911 8.39285714,3.57142857 L8.39285714,8.39285714 L3.57142857,8.39285714 C2.97979911,8.39285714 2.5,8.87265625 2.5,9.46428571 L2.5,10.5357143 C2.5,11.1273438 2.97979911,11.6071429 3.57142857,11.6071429 L8.39285714,11.6071429 L8.39285714,16.4285714 C8.39285714,17.0202009 8.87265625,17.5 9.46428571,17.5 L10.5357143,17.5 C11.1273438,17.5 11.6071429,17.0202009 11.6071429,16.4285714 L11.6071429,11.6071429 L16.4285714,11.6071429 C17.0202009,11.6071429 17.5,11.1273438 17.5,10.5357143 L17.5,9.46428571 C17.5,8.87265625 17.0202009,8.39285714 16.4285714,8.39285714 Z" fill="#31373D" fill-rule="evenodd"/></svg>