<svg viewBox="0 0 20 20" xmlns="http://www.w3.org/2000/svg"><path d="M18.9363868,12.1755725 C18.9363868,12.7251908 18.7854114,13.1832061 18.4834606,13.5496183 C18.1815098,13.9160305 17.7625106,14.0992366 17.2264631,14.0992366 C16.9482612,14.0992366 16.6853265,14.0398643 16.437659,13.9211196 C16.1899915,13.8023749 15.9898219,13.6734521 15.8371501,13.5343511 C15.6844784,13.3952502 15.4927905,13.2663274 15.2620865,13.1475827 C15.0313825,13.028838 14.7905004,12.9694656 14.5394402,12.9694656 C13.793045,12.9694656 13.4198473,13.3901612 13.4198473,14.2315522 C13.4198473,14.4961832 13.4741306,14.8863444 13.5826972,15.4020356 C13.6912638,15.9177269 13.7421544,16.307888 13.735369,16.5725191 L13.735369,16.6234097 C13.5860899,16.6234097 13.4741306,16.6268024 13.3994911,16.6335878 C13.1687871,16.653944 12.8379983,16.6929601 12.4071247,16.7506361 C11.9762511,16.8083121 11.5843936,16.8541137 11.2315522,16.8880407 C10.8787108,16.9219678 10.5462256,16.9389313 10.2340967,16.9389313 C9.8201866,16.9389313 9.47073791,16.8490246 9.18575064,16.6692112 C8.90076336,16.4893978 8.75826972,16.2061069 8.75826972,15.8193384 C8.75826972,15.5682782 8.81764207,15.3273961 8.93638677,15.0966921 C9.05513147,14.8659881 9.18405428,14.6743003 9.32315522,14.5216285 C9.46225615,14.3689567 9.59117897,14.1687871 9.70992366,13.9211196 C9.82866836,13.6734521 9.88804071,13.4105174 9.88804071,13.1323155 C9.88804071,12.596268 9.70483461,12.1772689 9.33842239,11.8753181 C8.97201018,11.5733673 8.51399491,11.4223919 7.96437659,11.4223919 C7.39440204,11.4223919 6.90924512,11.57676 6.50890585,11.8854962 C6.10856658,12.1942324 5.90839695,12.6268024 5.90839695,13.1832061 C5.90839695,13.4749788 5.95928753,13.7565734 6.0610687,14.0279898 C6.16284987,14.2994063 6.27650551,14.5182358 6.40203562,14.6844784 C6.52756573,14.8507209 6.64122137,15.0305344 6.74300254,15.2239186 C6.84478372,15.4173028 6.8956743,15.5886344 6.8956743,15.7379135 C6.8956743,16.043257 6.73960984,16.3452078 6.42748092,16.6437659 C6.1764207,16.8812553 5.77947413,17 5.23664122,17 C4.59202714,17 3.76081425,16.9185751 2.74300254,16.7557252 C2.68193384,16.7421544 2.58863444,16.7285835 2.46310433,16.7150127 C2.33757422,16.7014419 2.24427481,16.6878711 2.18320611,16.6743003 L2.05089059,16.653944 C2.04410517,16.653944 2.03392706,16.6505513 2.02035623,16.6437659 C2.00678541,16.6437659 2,16.6403732 2,16.6335878 L2,6.21119593 C2.01357082,6.21798134 2.07294317,6.22985581 2.17811705,6.24681934 C2.28329092,6.26378287 2.39864292,6.2807464 2.52417303,6.29770992 C2.64970314,6.31467345 2.72264631,6.32654792 2.74300254,6.33333333 C3.76081425,6.49618321 4.59202714,6.57760814 5.23664122,6.57760814 C5.77947413,6.57760814 6.1764207,6.45886344 6.42748092,6.22137405 C6.73960984,5.92281595 6.8956743,5.62086514 6.8956743,5.31552163 C6.8956743,5.16624258 6.84478372,4.99491094 6.74300254,4.80152672 C6.64122137,4.60814249 6.52756573,4.42832909 6.40203562,4.26208651 C6.27650551,4.09584394 6.16284987,3.87701442 6.0610687,3.60559796 C5.95928753,3.33418151 5.90839695,3.05258694 5.90839695,2.76081425 C5.90839695,2.20441052 6.10856658,1.77184054 6.50890585,1.46310433 C6.90924512,1.15436811 7.39779474,1 7.97455471,1 C8.51738762,1 8.97201018,1.1509754 9.33842239,1.45292621 C9.70483461,1.75487701 9.88804071,2.17387617 9.88804071,2.70992366 C9.88804071,2.98812553 9.82866836,3.25106022 9.70992366,3.49872774 C9.59117897,3.74639525 9.46225615,3.94656489 9.32315522,4.09923664 C9.18405428,4.2519084 9.05513147,4.44359627 8.93638677,4.67430025 C8.81764207,4.90500424 8.75826972,5.14588634 8.75826972,5.39694656 C8.75826972,5.78371501 8.90076336,6.06700594 9.18575064,6.24681934 C9.47073791,6.42663274 9.8201866,6.51653944 10.2340967,6.51653944 C10.668363,6.51653944 11.27905,6.46564885 12.0661578,6.36386768 C12.8532655,6.26208651 13.4062765,6.20441052 13.7251908,6.19083969 L13.7251908,6.21119593 C13.7184054,6.22476675 13.706531,6.2841391 13.6895674,6.38931298 C13.6726039,6.49448685 13.6556404,6.60983885 13.6386768,6.73536896 C13.6217133,6.86089907 13.6098388,6.93384224 13.6030534,6.95419847 C13.4402036,7.97201018 13.3587786,8.80322307 13.3587786,9.44783715 C13.3587786,9.99067006 13.4775233,10.3876166 13.7150127,10.6386768 C14.0135708,10.9508058 14.3155216,11.1068702 14.6208651,11.1068702 C14.7701442,11.1068702 14.9414758,11.0559796 15.1348601,10.9541985 C15.3282443,10.8524173 15.5080577,10.7387617 15.6743003,10.6132316 C15.8405428,10.4877014 16.0593723,10.3740458 16.3307888,10.2722646 C16.6022053,10.1704835 16.8837998,10.1195929 17.1755725,10.1195929 C17.7319763,10.1195929 18.1645462,10.3197625 18.4732824,10.7201018 C18.7820187,11.1204411 18.9363868,11.605598 18.9363868,12.1755725 Z" fill="#31373D" fill-rule="evenodd"/></svg>