<svg viewBox="0 0 20 20" xmlns="http://www.w3.org/2000/svg"><path d="M20,14.1971154 C20,14.8461538 19.8217147,15.3870192 19.4651442,15.8197115 C19.1085737,16.2524038 18.6137821,16.46875 17.9807692,16.46875 C17.6522436,16.46875 17.3417468,16.3986378 17.0492788,16.2584135 C16.7568109,16.1181891 16.5204327,15.9659455 16.3401442,15.8016827 C16.1598558,15.6374199 15.9334936,15.4851763 15.6610577,15.3449519 C15.3886218,15.2047276 15.1041667,15.1346154 14.8076923,15.1346154 C13.9262821,15.1346154 13.4855769,15.6314103 13.4855769,16.625 C13.4855769,16.9375 13.5496795,17.3982372 13.6778846,18.0072115 C13.8060897,18.6161859 13.8661859,19.0769231 13.8581731,19.3894231 L13.8581731,19.4495192 C13.681891,19.4495192 13.5496795,19.4535256 13.4615385,19.4615385 C13.1891026,19.4855769 12.7984776,19.5316506 12.2896635,19.5997596 C11.7808494,19.6678686 11.318109,19.7219551 10.9014423,19.7620192 C10.4847756,19.8020833 10.0921474,19.8221154 9.72355769,19.8221154 C9.23477564,19.8221154 8.82211538,19.7159455 8.48557692,19.5036058 C8.14903846,19.291266 7.98076923,18.9567308 7.98076923,18.5 C7.98076923,18.2035256 8.05088141,17.9190705 8.19110577,17.6466346 C8.33133013,17.3741987 8.48357372,17.1478365 8.64783654,16.9675481 C8.81209936,16.7872596 8.96434295,16.5508814 9.10456731,16.2584135 C9.24479167,15.9659455 9.31490385,15.6554487 9.31490385,15.3269231 C9.31490385,14.6939103 9.09855769,14.1991186 8.66586538,13.8425481 C8.23317308,13.4859776 7.69230769,13.3076923 7.04326923,13.3076923 C6.37019231,13.3076923 5.79727564,13.489984 5.32451923,13.8545673 C4.85176282,14.2191506 4.61538462,14.7299679 4.61538462,15.3870192 C4.61538462,15.7315705 4.67548077,16.0641026 4.79567308,16.3846154 C4.91586538,16.7051282 5.05008013,16.9635417 5.19831731,17.1598558 C5.34655449,17.3561699 5.48076923,17.5685096 5.60096154,17.796875 C5.72115385,18.0252404 5.78125,18.2275641 5.78125,18.4038462 C5.78125,18.7644231 5.59695513,19.1209936 5.22836538,19.4735577 C4.93189103,19.7540064 4.46314103,19.8942308 3.82211538,19.8942308 C3.06089744,19.8942308 2.07932692,19.7980769 0.877403846,19.6057692 C0.805288462,19.5897436 0.695112179,19.5737179 0.546875,19.5576923 C0.398637821,19.5416667 0.288461538,19.525641 0.216346154,19.5096154 L0.0600961538,19.4855769 C0.0520833333,19.4855769 0.0400641026,19.4815705 0.0240384615,19.4735577 C0.00801282051,19.4735577 0,19.4695513 0,19.4615385 L0,7.15384615 C0.016025641,7.16185897 0.0861378205,7.17588141 0.210336538,7.19591346 C0.334535256,7.21594551 0.470753205,7.23597756 0.618990385,7.25600962 C0.767227564,7.27604167 0.853365385,7.2900641 0.877403846,7.29807692 C2.07932692,7.49038462 3.06089744,7.58653846 3.82211538,7.58653846 C4.46314103,7.58653846 4.93189103,7.4463141 5.22836538,7.16586538 C5.59695513,6.81330128 5.78125,6.45673077 5.78125,6.09615385 C5.78125,5.91987179 5.72115385,5.71754808 5.60096154,5.48918269 C5.48076923,5.26081731 5.34655449,5.04847756 5.19831731,4.85216346 C5.05008013,4.65584936 4.91586538,4.3974359 4.79567308,4.07692308 C4.67548077,3.75641026 4.61538462,3.42387821 4.61538462,3.07932692 C4.61538462,2.42227564 4.85176282,1.91145833 5.32451923,1.546875 C5.79727564,1.18229167 6.37419872,1 7.05528846,1 C7.6963141,1 8.23317308,1.17828526 8.66586538,1.53485577 C9.09855769,1.89142628 9.31490385,2.38621795 9.31490385,3.01923077 C9.31490385,3.34775641 9.24479167,3.65825321 9.10456731,3.95072115 C8.96434295,4.2431891 8.81209936,4.47956731 8.64783654,4.65985577 C8.48357372,4.84014423 8.33133013,5.06650641 8.19110577,5.33894231 C8.05088141,5.61137821 7.98076923,5.89583333 7.98076923,6.19230769 C7.98076923,6.64903846 8.14903846,6.98357372 8.48557692,7.19591346 C8.82211538,7.40825321 9.23477564,7.51442308 9.72355769,7.51442308 C10.2363782,7.51442308 10.9575321,7.45432692 11.8870192,7.33413462 C12.8165064,7.21394231 13.4695513,7.14583333 13.8461538,7.12980769 L13.8461538,7.15384615 C13.838141,7.16987179 13.8241186,7.23998397 13.8040865,7.36418269 C13.7840545,7.48838141 13.7640224,7.62459936 13.7439904,7.77283654 C13.7239583,7.92107372 13.7099359,8.00721154 13.7019231,8.03125 C13.5096154,9.23317308 13.4134615,10.2147436 13.4134615,10.9759615 C13.4134615,11.6169872 13.5536859,12.0857372 13.8341346,12.3822115 C14.1866987,12.7508013 14.5432692,12.9350962 14.9038462,12.9350962 C15.0801282,12.9350962 15.2824519,12.875 15.5108173,12.7548077 C15.7391827,12.6346154 15.9515224,12.5004006 16.1478365,12.3521635 C16.3441506,12.2039263 16.6025641,12.0697115 16.9230769,11.9495192 C17.2435897,11.8293269 17.5761218,11.7692308 17.9206731,11.7692308 C18.5777244,11.7692308 19.0885417,12.005609 19.453125,12.4783654 C19.8177083,12.9511218 20,13.5240385 20,14.1971154 Z" fill="#31373D" fill-rule="evenodd"/></svg>