<svg viewBox="0 0 20 20" xmlns="http://www.w3.org/2000/svg">
<path d="M10 3C6.13306 3 3 6.13306 3 10C3 13.8669 6.13306 17 10 17C13.8669 17 17 13.8669 17 10C17 6.13306 13.8669 3 10 3ZM10 15.6452C6.86694 15.6452 4.35484 13.1331 4.35484 10C4.35484 6.89516 6.86694 4.35484 10 4.35484C13.1048 4.35484 15.6452 6.89516 15.6452 10C15.6452 13.1331 13.1048 15.6452 10 15.6452Z" fill="#31373D"/>
<path d="M10 6C7.79032 6 6 7.79032 6 10C6 12.2097 7.79032 14 10 14C12.2097 14 14 12.2097 14 10C14 7.79032 12.2097 6 10 6Z" fill="#31373D"/>
</svg>
