<svg viewBox="0 0 20 20" xmlns="http://www.w3.org/2000/svg"><path d="M13.7006452,6.04129032 C12.6921935,5.09703226 11.3834839,4.57941935 9.99509677,4.58064516 C7.49645161,4.58283871 5.33935484,6.29606452 4.74377419,8.67258065 C4.70041935,8.84558065 4.54629032,8.96774194 4.36793548,8.96774194 L2.51945161,8.96774194 C2.27758065,8.96774194 2.09383871,8.74816129 2.13858065,8.51045161 C2.83654839,4.804 6.09074194,2 10,2 C12.1434839,2 14.0900323,2.84309677 15.5262903,4.21564516 L16.6783871,3.06354839 C17.1660968,2.57583871 18,2.92125806 18,3.611 L18,7.93548387 C18,8.36306452 17.6533871,8.70967742 17.2258065,8.70967742 L12.9013226,8.70967742 C12.2115806,8.70967742 11.8661613,7.87577419 12.353871,7.38803226 L13.7006452,6.04129032 Z M2.77419355,11.2903226 L7.09867742,11.2903226 C7.78841935,11.2903226 8.13383871,12.1242258 7.64612903,12.6119677 L6.29935484,13.9587419 C7.30780645,14.9030323 8.6166129,15.4206452 10.0050323,15.4193871 C12.5023871,15.417129 14.6603548,13.7050645 15.2562258,11.3274839 C15.2995806,11.1544839 15.4537097,11.0323226 15.6320645,11.0323226 L17.4805806,11.0323226 C17.7224516,11.0323226 17.9061935,11.2519032 17.8614516,11.4896129 C17.1634516,15.196 13.9092581,18 10,18 C7.85651613,18 5.90996774,17.1569032 4.47370968,15.7843548 L3.3216129,16.9364516 C2.83390323,17.4241613 2,17.0787419 2,16.389 L2,12.0645161 C2,11.6369355 2.3466129,11.2903226 2.77419355,11.2903226 Z" fill="#31373D" fill-rule="evenodd"/></svg>