<svg viewBox="0 0 20 20" fill="none" xmlns="http://www.w3.org/2000/svg"><path fill-rule="evenodd" clip-rule="evenodd" d="M11.6484 3.29688L9.70312 1.32812C9.49219 1.11719 9.1875 1 8.90625 1H3.125C2.49219 1 2 1.51562 2 2.125V11.875C2 12.5078 2.49219 13 3.125 13H3.40002V14.5C3.40002 15.0925 3.54855 15.6471 3.95077 16.0493C4.35298 16.4515 4.90756 16.6 5.50002 16.6H6.55153L6.07576 17.0757C5.84145 17.3101 5.84145 17.6899 6.07576 17.9243C6.31007 18.1586 6.68997 18.1586 6.92429 17.9243L8.42429 16.4243C8.6586 16.1899 8.6586 15.8101 8.42429 15.5757L6.92429 14.0757C6.68997 13.8414 6.31007 13.8414 6.07576 14.0757C5.84145 14.3101 5.84145 14.6899 6.07576 14.9243L6.55147 15.4H5.50002C5.09249 15.4 4.89706 15.2985 4.79928 15.2007C4.7015 15.1029 4.60002 14.9075 4.60002 14.5V13H9V18.4375C9 18.5938 9.05469 18.7266 9.16406 18.8359C9.27344 18.9453 9.40625 19 9.5625 19H17.4375C17.5938 19 17.7266 18.9453 17.8359 18.8359C17.9453 18.7266 18 18.5938 18 18.4375V10.75H14.8125C14.6562 10.75 14.5234 10.6953 14.4141 10.5859C14.3047 10.4766 14.25 10.3438 14.25 10.1875V7H12V4.09375C12 3.8125 11.8594 3.50781 11.6484 3.29688ZM10.875 11.875H3.125V2.125H7.875V4.5625C7.875 4.89062 8.10938 5.125 8.4375 5.125H10.875V11.875ZM10.7812 4H9V2.21875L10.7812 4ZM14.2582 15L15.3953 13.8628C15.5349 13.7233 15.5349 13.497 15.3953 13.3574L15.1426 13.1047C15.0031 12.9651 14.7768 12.9651 14.6372 13.1047L13.5 14.2418L12.3628 13.1047C12.2233 12.9651 11.997 12.9651 11.8574 13.1047L11.6047 13.3574C11.4651 13.4969 11.4651 13.7232 11.6047 13.8628L12.7418 15L11.6047 16.1372C11.4651 16.2767 11.4651 16.503 11.6047 16.6426L11.8574 16.8953C11.9969 17.0349 12.2233 17.0349 12.3628 16.8953L13.5 15.7582L14.6372 16.8953C14.7767 17.0349 15.0031 17.0349 15.1426 16.8953L15.3953 16.6426C15.5349 16.5031 15.5349 16.2768 15.3953 16.1372L14.2582 15Z" fill="#616161"/><path d="M18 9.85938V10H15V7H15.1406C15.2969 7 15.4297 7.05469 15.5391 7.16406L17.8359 9.46094C17.9453 9.57031 18 9.70312 18 9.85938Z" fill="#616161"/></svg>