<svg viewBox="0 0 20 20" fill="none" xmlns="http://www.w3.org/2000/svg"><path fill-rule="evenodd" clip-rule="evenodd" d="M17.6407 4.35833C17.411 4.12847 17.0995 4.00039 16.7751 4H3.22484C2.90029 4.00038 2.58911 4.12958 2.35952 4.35891C2.12993 4.58836 2.00062 4.8996 2 5.22414V13.7752C2.00038 14.0999 2.12955 14.4112 2.35917 14.6408C2.58877 14.8704 2.90021 14.9996 3.22495 15H9.4C9.4 15 10 15 9.99996 14.4004C9.99992 13.8009 9.4 13.8009 9.4 13.8009H3.22602C3.21222 13.8004 3.20103 13.7892 3.20056 13.7754V6.08L9.27996 10.47C9.4891 10.6225 9.7413 10.7 10 10.7C10.2589 10.7 10.5111 10.6225 10.7202 10.47L16.8 6.08V8.4C16.8 8.4 16.8 9 17.4 9C18 9 18 8.4 18 8.4V5.22402C17.9996 4.89925 17.8704 4.58794 17.6407 4.35833ZM9.98896 9.46235C9.99533 9.46744 10.0045 9.46744 10.0109 9.46235L10.0145 9.45947L15.9151 5.19995L4.08447 5.20006L9.98896 9.46235Z" fill="#616161"/><path fill-rule="evenodd" clip-rule="evenodd" d="M16.7699 17.1541C16.6341 17.0979 16.5455 16.9653 16.5455 16.8182V15.2399C16.0878 15.2554 15.6704 15.2874 15.3024 15.3461C14.8343 15.4207 14.4716 15.5349 14.2135 15.6934C13.966 15.8454 13.8174 16.0356 13.7542 16.2876C13.6876 16.5529 13.7055 16.9286 13.8829 17.4608C13.931 17.6051 13.8841 17.7642 13.7654 17.8594C13.6467 17.9546 13.4813 17.9659 13.3508 17.8876C12.7173 17.5075 12 16.7819 12 15.6061C12 15.012 12.1782 14.5274 12.5012 14.1475C12.8184 13.7743 13.2535 13.5276 13.728 13.3618C14.5597 13.071 15.5918 13.0026 16.5455 12.9908V11.3636C16.5455 11.2166 16.6341 11.084 16.7699 11.0277C16.9058 10.9714 17.0622 11.0025 17.1662 11.1065L19.8935 13.8338C20.0355 13.9758 20.0355 14.206 19.8935 14.3481L17.1662 17.0753C17.0622 17.1793 16.9058 17.2104 16.7699 17.1541Z" fill="#616161"/></svg>
