<svg viewBox="0 0 20 20" xmlns="http://www.w3.org/2000/svg"><path d="M17.779709,15.8330241 L14.6643882,12.7177033 C14.523777,12.5770921 14.3331706,12.4989747 14.1331901,12.4989747 L13.6238649,12.4989747 C14.4862806,11.3959574 14.9987306,10.0085929 14.9987306,8.4993653 C14.9987306,4.90909091 12.0896397,2 8.4993653,2 C4.90909091,2 2,4.90909091 2,8.4993653 C2,12.0896397 4.90909091,14.9987306 8.4993653,14.9987306 C10.0085929,14.9987306 11.3959574,14.4862806 12.4989747,13.6238649 L12.4989747,14.1331901 C12.4989747,14.3331706 12.5770921,14.523777 12.7177033,14.6643882 L15.8330241,17.779709 C16.1267454,18.0734303 16.6016991,18.0734303 16.8922957,17.779709 L17.7765843,16.8954204 C18.0703056,16.6016991 18.0703056,16.1267454 17.779709,15.8330241 Z M8.4993653,12.4989747 C6.29020603,12.4989747 4.49975588,10.7116493 4.49975588,8.4993653 C4.49975588,6.29020603 6.28708134,4.49975588 8.4993653,4.49975588 C10.7085246,4.49975588 12.4989747,6.28708134 12.4989747,8.4993653 C12.4989747,10.7085246 10.7116493,12.4989747 8.4993653,12.4989747 Z" fill="#31373D" fill-rule="evenodd"/></svg>