<svg width="18" height="16" viewBox="0 0 18 16" fill="none" xmlns="http://www.w3.org/2000/svg">
<path d="M17.5312 4.96872L13.0312 0.468722C12.0938 -0.468778 10.5 0.187472 10.5 1.53122V3.31247C9.15625 3.37497 7.84375 3.49997 6.71875 3.87497C5.625 4.21872 4.75 4.71872 4.125 5.40622C3.375 6.24997 3 7.28122 3 8.49997C3 10.4375 4.03125 12.0312 5.625 13.0312C6.8125 13.7812 8.3125 12.6562 7.84375 11.2812C7.375 9.81247 7.3125 9.09372 10.5 8.84372V10.5C10.5 11.8437 12.0938 12.5 13.0312 11.5625L17.5312 7.06247C18.125 6.49997 18.125 5.53122 17.5312 4.96872ZM12 10.5V7.28122C7.96875 7.34372 5.1875 7.99997 6.4375 11.75C5.5 11.1875 4.5 10.1562 4.5 8.49997C4.5 5.09372 8.53125 4.78122 12 4.78122V1.49997L16.5 5.99997L12 10.5ZM12.75 13.1562C12.5938 13.1875 12.5 13.3437 12.5 13.5312V14.3125C12.5 14.4375 12.4062 14.5 12.3125 14.5H1.6875C1.5625 14.5 1.5 14.4375 1.5 14.3125V3.68747C1.5 3.59372 1.5625 3.49997 1.6875 3.49997H4.375C4.4375 3.49997 4.5 3.49997 4.5625 3.46872C4.9375 3.24997 5.3125 3.03122 5.75 2.87497C5.90625 2.81247 6 2.68747 6 2.53122V2.37497C6 2.18747 5.8125 1.99997 5.625 1.99997H1.5C0.65625 1.99997 0 2.68747 0 3.49997V14.5C0 15.3437 0.65625 16 1.5 16H12.5C13.3125 16 14 15.3437 14 14.5V13.1875C14 12.9062 13.6562 12.7187 13.4062 12.875C13.2188 13 13 13.0937 12.75 13.1562Z" fill="#616161"/>
</svg>
