<svg viewBox="0 0 20 20" fill="none" xmlns="http://www.w3.org/2000/svg"><path fill-rule="evenodd" clip-rule="evenodd" d="M2.83427 6.10999H1.41713C0.634472 6.10999 0 6.74446 0 7.52712V11.5423C0 12.325 0.634472 12.9595 1.41713 12.9595H2.83427C3.35881 12.9595 3.81678 12.6745 4.06181 12.2509H5.19616C5.41821 12.2509 5.83111 12.3353 6.40336 12.4924C7.68501 12.8442 8.93881 13.295 10.2251 13.6306C10.819 13.7855 11.3883 13.9042 11.8094 13.9042C12.6812 13.9042 13.6183 13.4036 14.7352 12.6313C16.266 11.5729 19.1826 9.25413 19.1826 9.25413C20.5484 8.23569 19.79 7.07968 19.79 7.07968C19.79 7.07968 19.1826 5.96975 17.7539 6.62512L14.2503 8.27233C13.9942 7.96372 13.6307 7.76331 13.2266 7.76331H10.5847C10.5847 7.76331 8.97518 6.10999 7.32186 6.10999C6.14091 6.10999 5.07855 6.81855 5.07855 6.81855H4.06181C3.81678 6.39497 3.35881 6.10999 2.83427 6.10999ZM4.2514 7.76331V11.3061H5.19616C5.56458 11.3061 6.09643 11.4284 6.65345 11.5813C7.93159 11.9322 9.18077 12.3818 10.4636 12.7164C11.058 12.8715 11.5221 12.9595 11.8094 12.9595C12.3549 12.9595 13.071 12.6334 14.1979 11.8542C15.307 11.0874 16.7039 9.965 18.6076 8.50455C19.2973 7.97539 18.945 7.50218 18.945 7.50218C18.945 7.50218 18.6076 7.25403 18.1444 7.48551L14.6247 9.14028C14.6372 9.22982 14.6437 9.32208 14.6437 9.41663C14.6437 10.3151 14.0255 11.07 13.2266 11.07C13.2266 11.07 9.91993 11.07 9.44755 11.07C8.97518 11.07 8.97518 10.5976 8.97518 10.5976C8.97518 10.5976 8.97518 10.1252 9.44755 10.1252C9.91993 10.1252 13.2266 10.1252 13.2266 10.1252C13.699 10.1252 13.699 9.41663 13.699 9.41663C13.699 9.41663 13.699 8.70806 13.2266 8.70806H10.1966C10.1966 8.70806 8.66518 7.05474 7.32186 7.05474C6.5792 7.05474 5.30767 7.76331 5.30767 7.76331H4.2514ZM0.944755 7.52712C0.944755 7.26623 1.15625 7.05474 1.41713 7.05474H2.83427C3.09515 7.05474 3.30664 7.26623 3.30664 7.52712V11.5423C3.30664 11.8032 3.09515 12.0147 2.83427 12.0147H1.41713C1.15625 12.0147 0.944755 11.8032 0.944755 11.5423V7.52712Z" fill="#616161"/></svg>