<svg viewBox="0 0 20 20" fill="none" xmlns="http://www.w3.org/2000/svg"><path fill-rule="evenodd" clip-rule="evenodd" d="M4.49993 2.79999C3.00876 2.79999 1.79993 4.00882 1.79993 5.49999V14.5C1.79993 15.9912 3.00876 17.2 4.49993 17.2H15.4999C16.9911 17.2 18.1999 15.9912 18.1999 14.5V5.49999C18.1999 4.00882 16.9911 2.79999 15.4999 2.79999H4.49993ZM3.19993 5.49999C3.19993 4.78202 3.78196 4.19999 4.49993 4.19999H11.8V15.8H4.49993C3.78196 15.8 3.19993 15.218 3.19993 14.5V5.49999ZM13.2 15.8H15.4999C16.2179 15.8 16.7999 15.218 16.7999 14.5V5.49999C16.7999 4.78202 16.2179 4.19999 15.4999 4.19999H13.2V15.8Z" fill="#616161"/></svg>
