<svg viewBox="0 0 20 20" fill="none" xmlns="http://www.w3.org/2000/svg"><path d="M0.0150643 16.4986C0.0150643 16.2222 0.238753 15.9981 0.514688 15.9981H19.5004C19.7763 15.9981 20 16.2222 20 16.4986V17.4995C20 17.7759 19.7763 18 19.5004 18H0.514687C0.238753 18 0.0150643 17.7759 0.0150643 17.4995V16.4986Z" fill="#616161"/><path d="M19.4692 5.98876C17.8454 6.11388 15.5346 7.70912 14.3792 8.24086C13.4737 8.64749 12.6618 8.99157 12.006 8.99157C11.2878 8.99157 11.1942 8.4911 11.3191 7.36505C11.3503 7.11481 11.6938 4.89399 10.0075 4.98782C9.19566 5.05038 7.97783 5.7698 4.69905 8.92901L6.01056 5.70725C6.94735 3.33002 4.32433 0.952803 1.95112 2.48549L0.233664 3.64282C0.0150784 3.76793 -0.078601 4.08073 0.0775313 4.33096L0.608381 5.1755C0.764513 5.39445 1.07678 5.48829 1.29536 5.3319L3.1065 4.11201C3.6998 3.73665 4.38678 4.33096 4.13697 4.95654L1.07678 12.6512C0.858193 13.1517 1.17046 13.9962 2.01357 13.9962C2.26338 13.9962 2.5132 13.9024 2.70055 13.7147C4.01207 12.401 7.54066 8.99157 9.28934 7.584C9.22688 8.4911 9.22688 9.42947 9.94509 10.2115C10.4135 10.7432 11.1005 10.9934 11.9748 10.9934C13.099 10.9934 14.0982 10.5555 15.1911 10.0551C16.2216 9.61715 18.2826 8.11575 19.5004 8.02191C19.7814 7.99063 19.9688 7.77168 19.9688 7.52144V6.52051C20 6.23899 19.7502 5.98876 19.4692 5.98876Z" fill="#616161"/></svg>