<svg viewBox="0 0 21 20" xmlns="http://www.w3.org/2000/svg">
<path d="M1 18.5C1 18.2239 1.22386 18 1.5 18H20.5C20.7761 18 21 18.2239 21 18.5V19.5C21 19.7761 20.7761 20 20.5 20H1.5C1.22386 20 1 19.7761 1 19.5V18.5Z" fill="#31373D"/>
<path d="M20.4688 7.99999C18.8438 8.12499 16.5313 9.71874 15.375 10.25C14.4688 10.6562 13.6563 11 13 11C12.2813 11 12.1875 10.5 12.3125 9.37499C12.3438 9.12499 12.6875 6.90624 11 6.99999C10.1875 7.06249 8.96876 7.78124 5.68751 10.9375L7.00001 7.71874C7.93751 5.34374 5.31251 2.96874 2.93751 4.49999L1.21876 5.65624C1.00001 5.78124 0.906264 6.09374 1.06251 6.34374L1.59376 7.18749C1.75001 7.40624 2.06251 7.49999 2.28126 7.34374L4.09376 6.12499C4.68751 5.74999 5.37501 6.34374 5.12501 6.96874L2.06251 14.6562C1.84376 15.1562 2.15626 16 3.00001 16C3.25001 16 3.50001 15.9062 3.68751 15.7187C5.00001 14.4062 8.53126 11 10.2813 9.59374C10.2188 10.5 10.2188 11.4375 10.9375 12.2187C11.4063 12.75 12.0938 13 12.9688 13C14.0938 13 15.0938 12.5625 16.1875 12.0625C17.2188 11.625 19.2813 10.125 20.5 10.0312C20.7813 9.99999 20.9688 9.78124 20.9688 9.53124V8.53124C21 8.24999 20.75 7.99999 20.4688 7.99999Z" fill="#31373D"/>
</svg>
