<svg viewBox="0 0 20 20" fill="none" xmlns="http://www.w3.org/2000/svg"><path d="M1 18.5C1 18.2239 1.22386 18 1.5 18H18.5C18.7761 18 19 18.2239 19 18.5V19.5C19 19.7761 18.7761 20 18.5 20H1.5C1.22386 20 1 19.7761 1 19.5V18.5Z" fill="#616161"/><path d="M16.0162 1.74463L17.1841 2.91252C17.7779 3.47502 17.7779 4.44377 17.1841 5.03752L8.55913 13.6625C6.96538 15.2563 4.84038 16.3188 2.46538 16.5688L2.35999 16.4634C2.60999 14.0884 3.67249 11.9634 5.26624 10.3696L13.8912 1.74463C14.485 1.15088 15.4537 1.15088 16.0162 1.74463Z" fill="#616161"/><path d="M11.2509 0.134954C11.4505 -0.0334235 11.7506 -0.055687 11.9711 0.13355L12.6742 0.836675C12.8764 1.03885 12.8455 1.36151 12.6572 1.5412L8.96966 5.25995C8.75091 5.44745 8.43841 5.44745 8.25091 5.25995L7.53216 4.57245C7.34466 4.3537 7.34466 4.0412 7.53216 3.8537L11.2509 0.134954Z" fill="#616161"/></svg>
