<svg viewBox="0 0 44 44" xmlns="http://www.w3.org/2000/svg"><path d="M16.635652,1.17497894 C17.4380266,0.968856583 18.255575,1.45221457 18.4616973,2.25458922 C18.6678197,3.05696386 18.1844617,3.87451222 17.382087,4.08063457 C9.27251283,6.16390645 3.5,13.5066704 3.5,22 C3.5,32.2172679 11.7827321,40.5 22,40.5 C30.4819936,40.5 37.8175606,34.742758 39.9116264,26.6479336 C40.1191039,25.8459083 40.9374676,25.363932 41.7394929,25.5714095 C42.5415182,25.778887 43.0234944,26.5972507 42.8160169,27.399276 C40.3814909,36.8101843 31.8576888,43.5 22,43.5 C10.1258779,43.5 0.5,33.8741221 0.5,22 C0.5,12.1291271 7.20755705,3.59696614 16.635652,1.17497894 Z" fill-rule="evenodd" fill="#31373D" /></svg>