<svg viewBox="0 0 20 20" xmlns="http://www.w3.org/2000/svg"><path d="M4.61595927,13.7026285 C5.09045523,13.7026285 5.49845161,13.8717926 5.84032867,14.2092335 C6.18207898,14.5475617 6.35289077,14.9572903 6.35289077,15.439898 C6.35289077,15.9225479 6.18203673,16.3329948 5.84032867,16.6706047 C5.49849386,17.0083414 5.09045523,17.1772097 4.61595927,17.1772097 C4.1334783,17.1772097 3.72336949,17.0083414 3.3854638,16.6706047 C3.04768488,16.3325722 2.87885879,15.9225479 2.87885879,15.439898 C2.87885879,14.9572903 3.04781163,14.547266 3.3854638,14.2092335 C3.72324274,13.8714968 4.13335156,13.7026285 4.61595927,13.7026285 Z M4.2299745,10.0358576 C4.2299745,10.5665022 4.04108024,11.0208877 3.66308048,11.3987185 C3.28512298,11.7768028 2.8306952,11.9657815 2.29996613,11.9657815 C1.76919482,11.9657815 1.31485153,11.7768028 0.93685177,11.3987185 C0.558894262,11.0206343 0.370000005,10.5665022 0.370000005,10.0358576 C0.370000005,9.50495959 0.55893651,9.0506163 0.93685177,8.67261653 C1.31485153,8.29470128 1.76919482,8.10572252 2.29996613,8.10572252 C2.8306952,8.10572252 3.28512298,8.29465903 3.66308048,8.67261653 C4.04108024,9.05091203 4.2299745,9.50512857 4.2299745,10.0358576 Z M15.4237442,5.59711723 C15.1582952,5.59711723 14.9309968,5.50264897 14.742018,5.31358572 C14.553166,5.12452247 14.4586556,4.89739307 14.4586556,4.63194405 C14.4586556,4.36649502 14.553166,4.13945011 14.742018,3.95047137 C14.9309968,3.7615771 15.1582952,3.66693986 15.4237442,3.66693986 C15.6888975,3.66693986 15.9163226,3.76140812 16.1051747,3.95047137 C16.2941534,4.13940787 16.3888328,4.36649502 16.3888328,4.63194405 C16.3888328,4.89726633 16.2941534,5.12452247 16.1051747,5.31358572 C15.9164494,5.50247997 15.6888975,5.59711723 15.4237442,5.59711723 Z M4.61608602,2.50907004 C5.20309045,2.50907004 5.70369614,2.71617351 6.11777635,3.13025371 C6.53185656,3.54433393 6.73896003,4.04493961 6.73896003,4.63194405 C6.73896003,5.21903297 6.53185656,5.71955416 6.11777635,6.13380336 C5.70369614,6.54788358 5.20309045,6.75507156 4.61608602,6.75507156 C4.0290816,6.75507156 3.52851815,6.54801032 3.1142267,6.13380336 C2.70001975,5.71955416 2.49304301,5.21915972 2.49304301,4.63194405 C2.49304301,4.04493961 2.70001975,3.54433393 3.1142267,3.13025371 C3.5283914,2.71617351 4.02895485,2.50907004 4.61608602,2.50907004 Z M18.5598706,9.21551324 C18.7853099,9.44082595 18.8974804,9.71434449 18.8974804,10.0360266 C18.8974804,10.3575398 18.7851409,10.6311428 18.5598706,10.8560753 C18.3349381,11.0813457 18.0613773,11.193812 17.7398219,11.193812 C17.4179707,11.193812 17.1447056,11.0813457 16.9194775,10.8560753 C16.6945028,10.6313963 16.5820366,10.3575398 16.5820366,10.0360266 C16.5820366,9.71417549 16.6945028,9.4406992 16.9194775,9.21551324 C17.1445789,8.99032729 17.4179707,8.87786106 17.7398219,8.87786106 C18.0613773,8.87786106 18.3347691,8.99032729 18.5598706,9.21551324 Z M15.4237442,14.0888245 C15.7935899,14.0888245 16.1112584,14.2213589 16.3766653,14.4868502 C16.6421143,14.7523414 16.7747332,15.0697987 16.7747332,15.4399402 C16.7747332,15.809955 16.6421143,16.1276235 16.3766653,16.3930725 C16.1112162,16.6582258 15.7935899,16.7909292 15.4237442,16.7909292 C15.053645,16.7909292 14.7359765,16.6584793 14.4705274,16.3930725 C14.2053742,16.1275813 14.0726286,15.809786 14.0726286,15.4399402 C14.0726286,15.0697987 14.2053742,14.7520035 14.4705274,14.4868502 C14.7359765,14.2214012 15.0536027,14.0888245 15.4237442,14.0888245 Z M10.0198306,16.2115717 C10.4460785,16.2115717 10.8098404,16.3626534 11.1114544,16.6642674 C11.4130683,16.9658814 11.5638542,17.3296011 11.5638542,17.7558489 C11.5638542,18.1820967 11.4130683,18.5458586 11.1114544,18.8474304 C10.8098404,19.1490444 10.4460785,19.2999992 10.0198306,19.2999992 C9.59345602,19.2999992 9.2296941,19.1490444 8.92795338,18.8474304 C8.62633939,18.5458586 8.47568028,18.1820967 8.47568028,17.7558489 C8.47568028,17.3296011 8.62650839,16.9658814 8.92795338,16.6642674 C9.2296941,16.3626534 9.59362502,16.2115717 10.0198306,16.2115717 Z M10.0198306,0 C10.6633639,0 11.210063,0.225185951 11.6602659,0.675388858 C12.1104688,1.12592976 12.3356125,1.67275561 12.3356125,2.31599315 C12.3356125,2.95931519 12.1104688,3.50622553 11.6602659,3.95642844 C11.210063,4.40680034 10.6633639,4.63185954 10.0198306,4.63185954 C9.37646633,4.63185954 8.82951374,4.40667359 8.37914184,3.95642844 C7.92881218,3.50601429 7.70375297,2.95931519 7.70375297,2.31599315 C7.70375297,1.67271335 7.92889668,1.12576076 8.37914184,0.675388858 C8.82951374,0.225059205 9.37659307,0 10.0198306,0 Z" fill-rule="evenodd" fill="#31373D" /></svg>