<svg viewBox="0 0 20 20" xmlns="http://www.w3.org/2000/svg"><path d="M7.68002207,1.04365621 C8.3484255,0.870947852 9.03028133,1.2727881 9.20298969,1.94119153 C9.37569805,2.60959496 8.9738578,3.29145078 8.30545437,3.46415914 C5.35177417,4.2273588 3.25,6.90457596 3.25,10 C3.25,13.7279221 6.27207794,16.75 10,16.75 C13.0925431,16.75 15.7679274,14.6521066 16.5338656,11.7021716 C16.7073608,11.033972 17.3896893,10.6329349 18.0578889,10.8064301 C18.7260885,10.9799253 19.1271257,11.6622538 18.9536305,12.3304534 C17.9032084,16.37605 14.2381409,19.25 10,19.25 C4.89136606,19.25 0.75,15.1086339 0.75,10 C0.75,5.75790477 3.62926434,2.09032908 7.68002207,1.04365621 Z" fill-rule="evenodd" fill="#31373D" /></svg>