<svg viewBox="0 0 20 20" fill="none" xmlns="http://www.w3.org/2000/svg"><path d="M13.1518 11.25L13.7946 15.0089L10.4286 13.2321L7.05357 15.0089L7.70536 11.25L4.97321 8.5982L8.74107 8.04463L10.4286 4.63391L12.1161 8.04463L15.8839 8.5982L13.1518 11.25ZM17.8571 8.06248C17.8571 7.79463 17.5714 7.68748 17.3571 7.65177L12.875 6.99998L10.8661 2.93748C10.7857 2.76784 10.6339 2.57141 10.4286 2.57141C10.2232 2.57141 10.0714 2.76784 9.99107 2.93748L7.98214 6.99998L3.5 7.65177C3.27679 7.68748 3 7.79463 3 8.06248C3 8.2232 3.11607 8.37498 3.22321 8.49105L6.47321 11.6518L5.70536 16.1161C5.69643 16.1786 5.6875 16.2321 5.6875 16.2946C5.6875 16.5268 5.80357 16.7411 6.0625 16.7411C6.1875 16.7411 6.30357 16.6964 6.41964 16.6339L10.4286 14.5268L14.4375 16.6339C14.5446 16.6964 14.6696 16.7411 14.7946 16.7411C15.0536 16.7411 15.1607 16.5357 15.1607 16.2946C15.1607 16.2321 15.1607 16.1786 15.1518 16.1161L14.3839 11.6518L17.625 8.49105C17.7411 8.37498 17.8571 8.2232 17.8571 8.06248Z" fill="#616161"/></svg>