<svg viewBox="0 0 20 20" fill="none" xmlns="http://www.w3.org/2000/svg"><path d="M13.5893 10.8303L13.1518 11.25L13.2589 11.8393L13.7947 15.0089L10.9554 13.5089L10.4286 13.2321V4.63391L11.8482 7.50891L12.1161 8.04463L12.7054 8.13391L15.8839 8.5982L13.5893 10.8303ZM17.625 8.49105C18.0179 8.10713 17.8929 7.73213 17.3572 7.65177L12.875 6.99998L10.8661 2.93748C10.7411 2.69641 10.5893 2.57141 10.4286 2.57141C10.2679 2.57141 10.1072 2.69641 9.99109 2.93748L7.98216 6.99998L3.50002 7.65177C2.9643 7.73213 2.8393 8.10713 3.22323 8.49105L6.47323 11.6518L5.70537 16.1161C5.64287 16.5089 5.78573 16.7411 6.06252 16.7411C6.16073 16.7411 6.28573 16.7053 6.41966 16.6339L10.4286 14.5268L14.4375 16.6339C14.5714 16.7053 14.6964 16.7411 14.7947 16.7411C15.0714 16.7411 15.2143 16.5089 15.1518 16.1161L14.3839 11.6518L17.625 8.49105Z" fill="#616161"/></svg>