<svg viewBox="0 0 20 20" fill="none" xmlns="http://www.w3.org/2000/svg"><path d="M17.7143 9.99716H2.28571C2.125 9.99716 2 10.1222 2 10.2829V10.8543C2 11.015 2.125 11.14 2.28571 11.14H17.7143C17.875 11.14 18 11.015 18 10.8543V10.2829C18 10.1222 17.875 9.99716 17.7143 9.99716ZM6.3125 9.42573H12.9464C12.7054 9.26501 12.4196 9.11323 12.0982 8.96144C11.4911 8.69359 10.9821 8.49716 10.5536 8.37216C9.28571 8.00609 8.45536 7.62216 8.0625 7.22037C7.66964 6.81859 7.47321 6.40787 7.47321 5.97037C7.47321 5.45251 7.66964 5.01501 8.07143 4.6668C8.47321 4.31859 9.01786 4.14001 9.69643 4.14001C10.4107 4.14001 11.0446 4.40787 11.5714 4.95251C11.875 5.27394 12.1875 5.88109 12.4911 6.78287L12.6161 6.80073L13.3661 6.8543L13.4732 6.82751C13.5 6.68466 13.5179 6.55073 13.5179 6.42573C13.5179 6.0418 13.4732 5.49716 13.3929 4.7918C13.3304 4.32751 13.2679 3.97037 13.2054 3.73823C12.5446 3.52394 12.0179 3.38109 11.625 3.30966C10.9643 3.20251 10.4732 3.14001 10.1339 3.14001C8.58929 3.14001 7.41964 3.51501 6.625 4.27394C5.83036 5.03287 5.42857 5.94359 5.42857 7.03287C5.42857 7.56859 5.57143 8.13109 5.85714 8.71144C5.99107 8.97037 6.14286 9.21144 6.3125 9.42573ZM10.8393 11.7114C11.4554 11.9614 11.8661 12.1757 12.0625 12.3454C12.5446 12.7829 12.7857 13.2472 12.7857 13.7472C12.7857 14.1579 12.6429 14.5418 12.3661 14.8989C12.0982 15.2561 11.7321 15.515 11.2768 15.6668C10.8304 15.8275 10.4107 15.9079 10.0357 15.9079C9.61607 15.9079 9.21429 15.8454 8.85714 15.7114C8.49107 15.5864 8.17857 15.4168 7.91964 15.2025C7.66071 14.9882 7.41964 14.7114 7.20536 14.3632C7.10714 14.2025 6.95536 13.7472 6.625 12.9882L5.71429 13.0061V13.3989C5.71429 13.5775 5.67857 13.89 5.69643 14.3364C5.73214 15.1936 5.71429 15.6579 5.71429 15.7293V15.8454C5.71429 15.9436 5.75 16.0061 5.78571 16.0418C5.875 16.1132 6.08036 16.1936 6.42857 16.2918L7.67857 16.6489C8.33929 16.8364 8.92857 16.8543 9.41964 16.8543C10.1607 16.8543 10.7589 16.7918 11.2321 16.6668C11.7054 16.5507 12.1518 16.3454 12.5982 16.0775C13.0357 15.8007 13.3571 15.5597 13.5714 15.3543C13.8661 15.0597 14.0714 14.7561 14.2054 14.4257C14.4554 13.8097 14.5714 13.1757 14.5714 12.5329C14.5714 12.2382 14.5536 11.9614 14.5089 11.7114H10.8393Z" fill="#616161"/></svg>
