<svg viewBox="0 0 20 20" fill="none" xmlns="http://www.w3.org/2000/svg"><path fill-rule="evenodd" clip-rule="evenodd" d="M7.9998 2.00006H6.9999C6.44788 2.00006 6.00001 2.44794 6 2.99994H4.5C3.67288 2.99994 3 3.6728 3 4.49992V17.5C3 18.3272 3.67288 19 4.5 19H15.5C16.3271 19 17 18.3272 17 17.5V4.49992C17 3.6728 16.3271 2.99994 15.5 2.99994H13.9999C13.9999 2.44792 13.552 2.00006 13 2.00006H12.0001C12.0001 0.895798 11.1043 0 10.0001 0C8.89581 0 8.00001 0.895798 8.00001 2.00006H7.9998ZM13.9999 4.00007C13.9998 4.55198 13.552 4.99976 13 4.99976H6.9999C6.44796 4.99976 6.00011 4.552 6 4.00007H4.5C4.22491 4.00007 4 4.22505 4 4.50014V17.5003C4 17.7754 4.22492 18.0003 4.5 18.0003H15.5C15.7751 18.0003 16 17.7754 16 17.5003V4.50014C16 4.22505 15.7751 4.00007 15.5 4.00007H13.9999ZM6.99969 3.5185V3.99986H12.9998V2.99996H11.4996C11.2225 2.99996 10.9995 2.77705 10.9995 2.4999V1.99983C10.9995 1.44783 10.5517 0.999932 9.99964 0.999932C9.44763 0.999932 8.99974 1.4478 8.99974 1.99983V2.4999C8.99974 2.77705 8.77682 2.99996 8.49967 2.99996H6.99969V3.48151C6.99992 3.48765 7.00003 3.49381 7.00003 3.50001C7.00003 3.5062 6.99992 3.51236 6.99969 3.5185ZM5.50007 8.00013C5.77515 8.00013 6.00013 7.77516 6.00013 7.50007C6.00013 7.22498 5.77516 7 5.50007 7C5.22498 7 5 7.22498 5 7.50007C5 7.77516 5.22498 8.00013 5.50007 8.00013ZM14.3846 8.00013H7.61543C7.27688 8.00013 7 7.77516 7 7.50007C7 7.22498 7.27688 7 7.61543 7H14.3846C14.7231 7 15 7.22498 15 7.50007C15 7.77516 14.7231 8.00013 14.3846 8.00013ZM14.3846 14.0001H7.61543C7.27688 14.0001 7 13.7752 7 13.5001C7 13.225 7.27688 13 7.61543 13H14.3846C14.7231 13 15 13.225 15 13.5001C15 13.7752 14.7231 14.0001 14.3846 14.0001ZM7.5385 10.0001H13.4615C13.7577 10.0001 14 9.77516 14 9.50007C14 9.22498 13.7577 9 13.4615 9H7.5385C7.24227 9 7 9.22498 7 9.50007C7 9.77516 7.24227 10.0001 7.5385 10.0001ZM14.3846 12.0001H7.61543C7.27688 12.0001 7 11.7752 7 11.5001C7 11.225 7.27688 11 7.61543 11H14.3846C14.7231 11 15 11.225 15 11.5001C15 11.7752 14.7231 12.0001 14.3846 12.0001ZM6.00013 9.50007C6.00013 9.77516 5.77515 10.0001 5.50007 10.0001C5.22498 10.0001 5 9.77516 5 9.50007C5 9.22498 5.22498 9 5.50007 9C5.77516 9 6.00013 9.22498 6.00013 9.50007ZM5.50007 12.0001C5.77515 12.0001 6.00013 11.7752 6.00013 11.5001C6.00013 11.225 5.77516 11 5.50007 11C5.22498 11 5 11.225 5 11.5001C5 11.7752 5.22498 12.0001 5.50007 12.0001ZM6.00013 13.5001C6.00013 13.7752 5.77515 14.0001 5.50007 14.0001C5.22498 14.0001 5 13.7752 5 13.5001C5 13.225 5.22498 13 5.50007 13C5.77516 13 6.00013 13.225 6.00013 13.5001ZM7.46157 16.0001H12.5384C12.7923 16.0001 13 15.7752 13 15.5001C13 15.225 12.7923 15 12.5384 15H7.46157C7.20766 15 7 15.225 7 15.5001C7 15.7752 7.20766 16.0001 7.46157 16.0001ZM6.00013 15.5001C6.00013 15.7752 5.77515 16.0001 5.50007 16.0001C5.22498 16.0001 5 15.7752 5 15.5001C5 15.225 5.22498 15 5.50007 15C5.77516 15 6.00013 15.225 6.00013 15.5001Z" fill="#616161"/></svg>