<svg viewBox="0 0 20 20" xmlns="http://www.w3.org/2000/svg"><path fill-rule="evenodd" clip-rule="evenodd" d="M0.300023 3.98899C0.305937 3.05517 1.06477 2.29999 1.99999 2.29999H6.29999H6.99999H13H13.7H18C18.9389 2.29999 19.7 3.0611 19.7 3.99999V5.99999V6.69999V16C19.7 16.9389 18.9389 17.7 18 17.7H13.7H13H6.99999H6.29999H1.99999C1.0611 17.7 0.299988 16.9389 0.299988 16V6.69999V5.99999V3.99999L0.300023 3.98899ZM1.69999 6.69999V16C1.69999 16.1657 1.8343 16.3 1.99999 16.3H6.29999V6.69999H1.69999ZM7.69999 6.69999V16.3H12.3V6.69999H7.69999ZM12.3 5.29999H7.69999V3.69999H12.3V5.29999ZM13.7 6.69999V16.3H18C18.1657 16.3 18.3 16.1657 18.3 16V6.69999H13.7ZM18.3 5.29999H13.7V3.69999H18C18.1657 3.69999 18.3 3.8343 18.3 3.99999V5.29999ZM6.29999 3.69999H1.99999C1.84466 3.69999 1.7169 3.81804 1.70154 3.96931C1.70051 3.9794 1.69999 3.98963 1.69999 3.99999V5.29999H6.29999V3.69999ZM2.79999 8.49996C2.79999 8.16859 3.06862 7.89996 3.39999 7.89996H4.59999C4.93136 7.89996 5.19999 8.16859 5.19999 8.49996C5.19999 8.83133 4.93136 9.09996 4.59999 9.09996H3.39999C3.06862 9.09996 2.79999 8.83133 2.79999 8.49996ZM3.39999 11.9C3.06862 11.9 2.79999 12.1686 2.79999 12.5C2.79999 12.8313 3.06862 13.1 3.39999 13.1H4.59999C4.93136 13.1 5.19999 12.8313 5.19999 12.5C5.19999 12.1686 4.93136 11.9 4.59999 11.9H3.39999ZM2.79999 10.5C2.79999 10.1686 3.06862 9.89996 3.39999 9.89996H4.59999C4.93136 9.89996 5.19999 10.1686 5.19999 10.5C5.19999 10.8313 4.93136 11.1 4.59999 11.1H3.39999C3.06862 11.1 2.79999 10.8313 2.79999 10.5ZM3.39999 13.9C3.06862 13.9 2.79999 14.1686 2.79999 14.5C2.79999 14.8313 3.06862 15.1 3.39999 15.1H4.59999C4.93136 15.1 5.19999 14.8313 5.19999 14.5C5.19999 14.1686 4.93136 13.9 4.59999 13.9H3.39999ZM14.8 8.49996C14.8 8.16859 15.0686 7.89996 15.4 7.89996H16.6C16.9314 7.89996 17.2 8.16859 17.2 8.49996C17.2 8.83133 16.9314 9.09996 16.6 9.09996H15.4C15.0686 9.09996 14.8 8.83133 14.8 8.49996ZM15.4 9.89996C15.0686 9.89996 14.8 10.1686 14.8 10.5C14.8 10.8313 15.0686 11.1 15.4 11.1H16.6C16.9314 11.1 17.2 10.8313 17.2 10.5C17.2 10.1686 16.9314 9.89996 16.6 9.89996H15.4ZM14.8 12.5C14.8 12.1686 15.0686 11.9 15.4 11.9H16.6C16.9314 11.9 17.2 12.1686 17.2 12.5C17.2 12.8313 16.9314 13.1 16.6 13.1H15.4C15.0686 13.1 14.8 12.8313 14.8 12.5ZM15.4 13.9C15.0686 13.9 14.8 14.1686 14.8 14.5C14.8 14.8313 15.0686 15.1 15.4 15.1H16.6C16.9314 15.1 17.2 14.8313 17.2 14.5C17.2 14.1686 16.9314 13.9 16.6 13.9H15.4ZM8.79999 8.49996C8.79999 8.16859 9.06862 7.89996 9.39999 7.89996H10.6C10.9314 7.89996 11.2 8.16859 11.2 8.49996C11.2 8.83133 10.9314 9.09996 10.6 9.09996H9.39999C9.06862 9.09996 8.79999 8.83133 8.79999 8.49996ZM9.39999 9.89996C9.06862 9.89996 8.79999 10.1686 8.79999 10.5C8.79999 10.8313 9.06862 11.1 9.39999 11.1H10.6C10.9314 11.1 11.2 10.8313 11.2 10.5C11.2 10.1686 10.9314 9.89996 10.6 9.89996H9.39999ZM8.79999 12.5C8.79999 12.1686 9.06862 11.9 9.39999 11.9H10.6C10.9314 11.9 11.2 12.1686 11.2 12.5C11.2 12.8313 10.9314 13.1 10.6 13.1H9.39999C9.06862 13.1 8.79999 12.8313 8.79999 12.5ZM9.39999 13.9C9.06862 13.9 8.79999 14.1686 8.79999 14.5C8.79999 14.8313 9.06862 15.1 9.39999 15.1H10.6C10.9314 15.1 11.2 14.8313 11.2 14.5C11.2 14.1686 10.9314 13.9 10.6 13.9H9.39999Z" fill="#616161"/></svg>
