<svg viewBox="0 0 20 20" xmlns="http://www.w3.org/2000/svg"><path d="M16.5,3 C16.9166687,3 17.2708319,3.14583187 17.5625,3.4375 C17.8541681,3.72916813 18,4.08333125 18,4.5 L18,15.5 C18,15.9166687 17.8541681,16.2708319 17.5625,16.5625 C17.2708319,16.8541681 16.9166687,17 16.5,17 L3.5,17 C3.08333125,17 2.72916813,16.8541681 2.4375,16.5625 C2.14583187,16.2708319 2,15.9166687 2,15.5 L2,4.5 C2,4.08333125 2.14583187,3.72916813 2.4375,3.4375 C2.72916813,3.14583187 3.08333125,3 3.5,3 L16.5,3 Z M9,15 L9,12 L4,12 L4,15 L9,15 Z M9,10 L9,7 L4,7 L4,10 L9,10 Z M16,15 L16,12 L11,12 L11,15 L16,15 Z M16,10 L16,7 L11,7 L11,10 L16,10 Z" fill="#31373D" fill-rule="evenodd"/></svg>