<svg viewBox="0 0 20 20" fill="none" xmlns="http://www.w3.org/2000/svg"><path d="M15.5 2H4.5C4.08333 2 3.72917 2.14583 3.4375 2.4375C3.14583 2.72917 3 3.08333 3 3.5V16.5C3 16.9167 3.14583 17.2708 3.4375 17.5625C3.72917 17.8542 4.08333 18 4.5 18H15.5C15.9167 18 16.2708 17.8542 16.5625 17.5625C16.8542 17.2708 17 16.9167 17 16.5V3.5C17 3.08333 16.8542 2.72917 16.5625 2.4375C16.2708 2.14583 15.9167 2 15.5 2ZM10 17C9.72917 17 9.48958 16.8958 9.28125 16.6875C9.09375 16.5 9 16.2708 9 16C9 15.7292 9.09375 15.5 9.28125 15.3125C9.48958 15.1042 9.72917 15 10 15C10.2708 15 10.5 15.1042 10.6875 15.3125C10.8958 15.5 11 15.7292 11 16C11 16.2708 10.8958 16.5 10.6875 16.6875C10.5 16.8958 10.2708 17 10 17ZM15.5 13.625C15.5 13.7292 15.4583 13.8229 15.375 13.9062C15.3125 13.9688 15.2292 14 15.125 14H4.875C4.77083 14 4.67708 13.9688 4.59375 13.9062C4.53125 13.8229 4.5 13.7292 4.5 13.625V3.875C4.5 3.77083 4.53125 3.6875 4.59375 3.625C4.67708 3.54167 4.77083 3.5 4.875 3.5H15.125C15.2292 3.5 15.3125 3.54167 15.375 3.625C15.4583 3.6875 15.5 3.77083 15.5 3.875V13.625Z" fill="#616161"/></svg>