<svg viewBox="0 0 20 20" xmlns="http://www.w3.org/2000/svg"><path d="M10,3 C5.029375,3 1,7.029375 1,12 C1,13.65 1.4453125,15.195625 2.220625,16.525 C2.3959375,16.825625 2.73,17 3.078125,17 L16.921875,17 C17.27,17 17.6040625,16.825625 17.779375,16.525 C18.5546875,15.195625 19,13.65 19,12 C19,7.029375 14.970625,3 10,3 Z M10,5 C10.4596875,5 10.830625,5.3165625 10.9475,5.7390625 C10.9128125,5.8096875 10.865,5.87125 10.8396875,5.9475 L10.5515625,6.8121875 C10.39125,6.92125 10.20875,7 10.0003125,7 C9.448125,7 9.0003125,6.5521875 9.0003125,6 C9.0003125,5.4478125 9.4478125,5 10,5 Z M4,14 C3.4478125,14 3,13.5521875 3,13 C3,12.4478125 3.4478125,12 4,12 C4.5521875,12 5,12.4478125 5,13 C5,13.5521875 4.5521875,14 4,14 Z M5.5,9 C4.9478125,9 4.5,8.5521875 4.5,8 C4.5,7.4478125 4.9478125,7 5.5,7 C6.0521875,7 6.5,7.4478125 6.5,8 C6.5,8.5521875 6.0521875,9 5.5,9 Z M13.2115625,6.7371875 L11.295,12.4871875 C11.7228125,12.8540625 12,13.391875 12,14 C12,14.36625 11.894375,14.7046875 11.7225,15 L8.2775,15 C8.105625,14.7046875 8,14.36625 8,14 C8,12.939375 8.828125,12.0803125 9.871875,12.0128125 L11.78875,6.2625 C11.9190625,5.87 12.3428125,5.6546875 12.7375,5.7884375 C13.1303125,5.919375 13.3421875,6.344375 13.2115625,6.7371875 Z M13.6696875,8.5246875 L14.1546875,7.07 C14.263125,7.0296875 14.3775,7.0003125 14.5,7.0003125 C15.0521875,7.0003125 15.5,7.448125 15.5,8.0003125 C15.5,8.5525 15.0521875,9.0003125 14.5,9.0003125 C14.144375,9 13.8471875,8.8040625 13.6696875,8.5246875 Z M16,14 C15.4478125,14 15,13.5521875 15,13 C15,12.4478125 15.4478125,12 16,12 C16.5521875,12 17,12.4478125 17,13 C17,13.5521875 16.5521875,14 16,14 Z" fill="#31373D" fill-rule="evenodd"/></svg>