<svg viewBox="0 0 20 20" xmlns="http://www.w3.org/2000/svg"><path d="M10,2 C4.47708333,2 0,6.47708333 0,12 C0,13.8333333 0.494791667,15.5506944 1.35625,17.0277778 C1.55104167,17.3618056 1.92222222,17.5555556 2.30902778,17.5555556 L17.6909722,17.5555556 C18.0777778,17.5555556 18.4489583,17.3618056 18.64375,17.0277778 C19.5052083,15.5506944 20,13.8333333 20,12 C20,6.47708333 15.5229167,2 10,2 Z M10,4.22222222 C10.5107639,4.22222222 10.9229167,4.57395833 11.0527778,5.04340278 C11.0142361,5.121875 10.9611111,5.19027778 10.9329861,5.275 L10.6128472,6.23576389 C10.4347222,6.35694444 10.2319444,6.44444444 10.0003472,6.44444444 C9.38680556,6.44444444 8.88923611,5.946875 8.88923611,5.33333333 C8.88923611,4.71979167 9.38645833,4.22222222 10,4.22222222 Z M3.33333333,14.2222222 C2.71979167,14.2222222 2.22222222,13.7246528 2.22222222,13.1111111 C2.22222222,12.4975694 2.71979167,12 3.33333333,12 C3.946875,12 4.44444444,12.4975694 4.44444444,13.1111111 C4.44444444,13.7246528 3.946875,14.2222222 3.33333333,14.2222222 Z M5,8.66666667 C4.38645833,8.66666667 3.88888889,8.16909722 3.88888889,7.55555556 C3.88888889,6.94201389 4.38645833,6.44444444 5,6.44444444 C5.61354167,6.44444444 6.11111111,6.94201389 6.11111111,7.55555556 C6.11111111,8.16909722 5.61354167,8.66666667 5,8.66666667 Z M13.5684028,6.15243056 L11.4388889,12.5413194 C11.9142361,12.9489583 12.2222222,13.5465278 12.2222222,14.2222222 C12.2222222,14.6291667 12.1048611,15.0052083 11.9138889,15.3333333 L8.08611111,15.3333333 C7.89513889,15.0052083 7.77777778,14.6291667 7.77777778,14.2222222 C7.77777778,13.04375 8.69791667,12.0892361 9.85763889,12.0142361 L11.9875,5.625 C12.1322917,5.18888889 12.603125,4.94965278 13.0416667,5.09826389 C13.478125,5.24375 13.7135417,5.71597222 13.5684028,6.15243056 Z M14.0774306,8.13854167 L14.6163194,6.52222222 C14.7368056,6.47743056 14.8638889,6.44479167 15,6.44479167 C15.6135417,6.44479167 16.1111111,6.94236111 16.1111111,7.55590278 C16.1111111,8.16944444 15.6135417,8.66701389 15,8.66701389 C14.6048611,8.66666667 14.2746528,8.44895833 14.0774306,8.13854167 Z M16.6666667,14.2222222 C16.053125,14.2222222 15.5555556,13.7246528 15.5555556,13.1111111 C15.5555556,12.4975694 16.053125,12 16.6666667,12 C17.2802083,12 17.7777778,12.4975694 17.7777778,13.1111111 C17.7777778,13.7246528 17.2802083,14.2222222 16.6666667,14.2222222 Z" fill="#31373D" fill-rule="evenodd"/></svg>