<svg viewBox="0 0 20 20" xmlns="http://www.w3.org/2000/svg"><path d="M17.5575521,17 C17.5575521,16.9179688 17.5666667,16.8450521 17.5666667,16.7630208 C17.5666667,16.5898438 17.5393229,16.4166667 17.5119792,16.2434896 C17.0835937,16.0794271 16.2450521,16.0247396 15.9442708,15.7877604 C15.8166667,15.6875 15.6890625,15.4140625 15.6252604,15.2682292 C15.1695312,14.3385417 14.8505208,13.3632812 14.4403646,12.4153646 C13.7476562,10.8111979 13.11875,9.1796875 12.4351562,7.56640625 L10.5666667,3.19140625 C10.5393229,3.12760417 10.5028646,3.06380208 10.4664062,3 L9.29973958,3 L6.74765625,9.59895833 L4.5875,15.2135417 C4.2046875,16.1979167 3.275,16.015625 2.41822917,16.2799479 L2.4,17 C2.97421875,17 3.53932292,16.9726562 4.11354167,16.8723958 C4.24114583,16.8541667 4.4234375,16.7994792 4.55104167,16.7994792 C5.60833333,16.7994792 6.67473958,16.9817708 7.73203125,16.9817708 C7.74114583,16.8997396 7.75026042,16.8177083 7.75026042,16.7356771 C7.75026042,16.5533854 7.75026042,16.3802083 7.74114583,16.2070312 C7.22161458,16.1341146 5.88177083,16.1067708 5.88177083,15.4049479 C5.88177083,15.0585938 6.80234375,12.6705729 7.03932292,12.1419271 L11.1408854,12.1601562 C11.2867187,12.5338542 12.4625,15.2408854 12.4625,15.5690104 C12.4625,15.90625 11.9794271,15.9700521 11.7333333,16.0247396 L10.5393229,16.2799479 C10.5119792,16.5169271 10.5028646,16.7539062 10.5028646,16.9908854 C11.696875,16.9544271 12.8908854,16.8541667 14.0848958,16.8541667 C15.2424479,16.8541667 16.4,17 17.5575521,17 Z M10.165625,11.0664062 C9.26328125,11.0664062 8.3609375,11.0390625 7.45859375,11.0299479 L9.00807292,6.92838542 C9.65520833,8.25 10.2111979,9.66276042 10.6851562,11.0481771 C10.5119792,11.0572917 10.3388021,11.0664062 10.165625,11.0664062 Z" fill="#31373D" fill-rule="evenodd"/></svg>