<svg viewBox="0 0 20 20" fill="none" xmlns="http://www.w3.org/2000/svg"><path d="M18.5 4H1.5C0.65625 4 0 4.6875 0 5.5V14.5C0 15.3438 0.65625 16 1.5 16H18.5C19.3125 16 20 15.3438 20 14.5V5.5C20 4.6875 19.3125 4 18.5 4ZM18.3125 14.5H1.6875C1.5625 14.5 1.5 14.4375 1.5 14.3125V5.6875C1.5 5.59375 1.5625 5.5 1.6875 5.5H18.3125C18.4062 5.5 18.5 5.59375 18.5 5.6875V14.3125C18.5 14.4375 18.4062 14.5 18.3125 14.5Z" fill="#616161"/><path fill-rule="evenodd" clip-rule="evenodd" d="M7.22252 12.6536L6.92382 11.8685H4.31026L4.01129 12.6714C3.88512 13.0099 3.77325 13.2515 3.6746 13.3842L3.67385 13.3852C3.55912 13.5356 3.37737 13.6 3.1557 13.6C2.95594 13.6 2.77928 13.5258 2.62957 13.3831C2.4805 13.2409 2.40002 13.0727 2.40002 12.8813C2.40002 12.7777 2.4173 12.6722 2.45075 12.5652C2.48271 12.4629 2.53463 12.3231 2.60568 12.147L4.33695 7.7519C4.38613 7.62587 4.44461 7.47505 4.51227 7.29974C4.58473 7.11702 4.66186 6.96184 4.74366 6.83751L4.74466 6.836C4.83349 6.70616 4.94812 6.60193 5.0873 6.52379C5.23508 6.43944 5.41161 6.39999 5.61216 6.39999C5.81491 6.39999 5.99173 6.4391 6.13702 6.52378C6.27839 6.60143 6.39326 6.70379 6.47946 6.8311C6.56362 6.951 6.63317 7.08041 6.68814 7.21915C6.74415 7.34992 6.81365 7.52453 6.89654 7.74248L8.66423 12.1086C8.80256 12.4407 8.87971 12.6992 8.87971 12.872C8.87971 13.0606 8.79912 13.2295 8.65187 13.3768C8.50361 13.525 8.3211 13.6 8.11018 13.6C7.99081 13.6 7.88235 13.5779 7.78843 13.5294C7.6991 13.4863 7.62306 13.4266 7.56148 13.3505L7.56006 13.3488C7.50078 13.272 7.44011 13.1624 7.37733 13.0242L7.3762 13.0218C7.31764 12.883 7.26676 12.7612 7.22352 12.6561L7.22252 12.6536ZM4.74305 10.6388H6.48038L5.60379 8.23904L4.74305 10.6388Z" fill="#616161"/></svg>
