<svg viewBox="0 0 20 20" fill="none" xmlns="http://www.w3.org/2000/svg"><path fill-rule="evenodd" clip-rule="evenodd" d="M18 4C18 3.447 17.552 3 17 3H10C9.448 3 9 3.447 9 4C9 4.553 9.69484 5 10 5H17C17.55 5 18 4.553 18 4ZM10 7H17C17.55 7 18 7.447 18 8C18 8.553 17.552 9 17 9H10C9.448 9 9 8.553 9 8C9 7.447 9.45 7.08026 10 7ZM18 12C18 11.447 17.55 11 17 11H3C2.45 11.0803 2 11.447 2 12C2 12.553 2.448 13 3 13H17C17.552 13 18 12.553 18 12ZM18 16C18 15.447 17.55 15 17 15H3C2.45 15.0803 2 15.447 2 16C2 16.553 2.448 17 3 17H17C17.552 17 18 16.553 18 16ZM5.09859 3.98592H6.40241C6.6063 3.98592 6.75922 3.94165 6.86117 3.85312C6.96311 3.7619 7.01408 3.64252 7.01408 3.49497C7.01408 3.34742 6.96311 3.22803 6.86117 3.13682C6.7619 3.04561 6.60899 3 6.40241 3H2.60362C2.40778 3 2.25755 3.04427 2.15292 3.1328C2.05097 3.22133 2 3.34205 2 3.49497C2 3.64252 2.04963 3.7619 2.14889 3.85312C2.24816 3.94165 2.39973 3.98592 2.60362 3.98592H3.90744V8.27163C3.90744 8.51576 3.96244 8.69819 4.07243 8.81891C4.18511 8.93964 4.32998 9 4.50704 9C4.68142 9 4.82361 8.94098 4.9336 8.82294C5.04359 8.70221 5.09859 8.51844 5.09859 8.27163V3.98592Z" fill="#616161"/></svg>
