<svg viewBox="0 0 20 20" xmlns="http://www.w3.org/2000/svg"><path d="M5.28571 6.2857C5.28571 6.5982 5.02679 6.85713 4.71429 6.85713C4.40179 6.85713 4.14286 6.5982 4.14286 6.2857C4.14286 5.9732 4.40179 5.71427 4.71429 5.71427C5.02679 5.71427 5.28571 5.9732 5.28571 6.2857ZM15.5714 11.4286C15.5714 12.0357 15.0268 12.5714 14.4286 12.5714H11.2857C11.2857 13.6161 12.1429 14.375 12.1429 15.4286C12.1429 16.4732 11.9375 17.1428 10.7143 17.1428C10.1429 16.5625 10.4375 15.1964 9.57143 14.2857C9.32143 14.0268 9.10714 13.75 8.88393 13.4732C8.48214 12.9553 7.41964 11.4286 6.71429 11.4286H6.42857V5.71427H6.71429C7.21429 5.71427 8.03571 5.39284 8.51786 5.2232C9.5 4.88392 10.5179 4.57142 11.5714 4.57142H12.7143C13.7054 4.57142 14.3661 5.01784 14.3661 6.06249C14.3661 6.23213 14.3482 6.40177 14.3214 6.56249C14.6964 6.76784 14.9018 7.27677 14.9018 7.68749C14.9018 7.90177 14.8482 8.11606 14.7411 8.30356C15.0446 8.58927 15.2143 8.94642 15.2143 9.36606C15.2143 9.65177 15.0893 10.0714 14.9018 10.2857C15.3214 10.2946 15.5714 11.0982 15.5714 11.4286ZM16.7143 11.4375C16.7143 10.9196 16.5625 10.4107 16.2768 9.98213C16.3304 9.7857 16.3571 9.57142 16.3571 9.36606C16.3571 8.91963 16.2411 8.4732 16.0179 8.08034C16.0357 7.95534 16.0446 7.82142 16.0446 7.69642C16.0446 7.12499 15.8571 6.55356 15.5089 6.10713V6.06249C15.5179 4.39284 14.3482 3.42856 12.7232 3.42856H11.7232C10.3482 3.42856 9.23214 3.76784 7.94643 4.21427C7.6875 4.30356 6.96429 4.57142 6.71429 4.57142H4.14286C3.50893 4.57142 3 5.08034 3 5.71427V11.4286C3 12.0625 3.50893 12.5714 4.14286 12.5714H6.58929C6.9375 12.8036 7.54464 13.6071 7.8125 13.9553C8.11607 14.3482 8.42857 14.7321 8.76786 15.0893C9.29464 15.6696 9.01786 17.0803 9.91071 17.9553C10.125 18.1607 10.4107 18.2857 10.7143 18.2857C11.6429 18.2857 12.5357 17.9553 12.9732 17.0893C13.25 16.5536 13.2857 16.0178 13.2857 15.4286C13.2857 14.8036 13.125 14.2678 12.8571 13.7143H14.4286C15.6607 13.7143 16.7143 12.6696 16.7143 11.4375Z" fill="#616161"/></svg>
