<svg viewBox="0 0 20 20" xmlns="http://www.w3.org/2000/svg"><path d="M5.28571 14.2857C5.28571 14.5982 5.02679 14.8571 4.71429 14.8571C4.40179 14.8571 4.14286 14.5982 4.14286 14.2857C4.14286 13.9732 4.40179 13.7143 4.71429 13.7143C5.02679 13.7143 5.28571 13.9732 5.28571 14.2857ZM15.5714 9.14285C15.5714 9.47321 15.3214 10.2768 14.9018 10.2857C15.0893 10.5 15.2143 10.9196 15.2143 11.2053C15.2143 11.625 15.0446 11.9821 14.7411 12.2678C14.8482 12.4553 14.9018 12.6696 14.9018 12.8839C14.9018 13.2946 14.6964 13.8036 14.3214 14.0089C14.3482 14.1696 14.3661 14.3393 14.3661 14.5089C14.3661 15.5982 13.6607 16 12.6518 16H11.5714C10.5179 16 9.5 15.6875 8.51786 15.3482C8.03571 15.1786 7.21429 14.8571 6.71429 14.8571H6.42857V9.14285H6.71429C7.41964 9.14285 8.48214 7.61606 8.88393 7.09821C9.10714 6.82142 9.32143 6.54463 9.57143 6.28571C10.4375 5.37499 10.1429 4.00892 10.7143 3.42856C11.9375 3.42856 12.1429 4.09821 12.1429 5.14285C12.1429 6.19642 11.2857 6.95535 11.2857 7.99999H14.4286C15.0268 7.99999 15.5714 8.53571 15.5714 9.14285ZM16.7143 9.13392C16.7143 7.90178 15.6607 6.85713 14.4286 6.85713H12.8571C13.125 6.30356 13.2857 5.76785 13.2857 5.14285C13.2857 4.54463 13.25 4.02678 12.9732 3.48213C12.5357 2.61606 11.6429 2.28571 10.7143 2.28571C10.4107 2.28571 10.125 2.41071 9.91071 2.61606C9.01786 3.49106 9.30357 4.90178 8.76786 5.47321C8.42857 5.83928 8.11607 6.22321 7.8125 6.61606C7.54464 6.96428 6.9375 7.76785 6.58929 7.99999H4.14286C3.50893 7.99999 3 8.50892 3 9.14285V14.8571C3 15.4911 3.50893 16 4.14286 16H6.71429C6.96429 16 7.6875 16.2678 7.94643 16.3571C9.125 16.7678 10.3036 17.1428 11.5714 17.1428H12.4018H12.7232C14.375 17.1428 15.5268 16.1518 15.5089 14.4643C15.8571 14.0178 16.0446 13.4464 16.0446 12.875C16.0446 12.75 16.0357 12.6161 16.0179 12.4911C16.2411 12.0982 16.3571 11.6518 16.3571 11.2053C16.3571 11 16.3304 10.7857 16.2768 10.5893C16.5625 10.1607 16.7143 9.65178 16.7143 9.13392Z" fill="#616161"/></svg>
