<svg viewBox="0 0 20 20" xmlns="http://www.w3.org/2000/svg"><path d="M9.75,10 C12.5117188,10 14.75,7.76171875 14.75,5 C14.75,2.23828125 12.5117188,0 9.75,0 C6.98828125,0 4.75,2.23828125 4.75,5 C4.75,7.76171875 6.98828125,10 9.75,10 Z M5.0625,16.5625 C5.0625,17.0820312 5.48046875,17.5 6,17.5 C6.51953125,17.5 6.9375,17.0820312 6.9375,16.5625 C6.9375,16.0429688 6.51953125,15.625 6,15.625 C5.48046875,15.625 5.0625,16.0429688 5.0625,16.5625 Z M13.5,11.2734375 L13.5,13.1875 C14.9257812,13.4765625 16,14.7421875 16,16.25 L16,17.8789062 C16,18.1757812 15.7890625,18.4335938 15.4960938,18.4921875 L14.2382813,18.7421875 C14.0703125,18.7773438 13.90625,18.6679688 13.8710938,18.4960938 L13.75,17.8828125 C13.7148438,17.7148438 13.8242188,17.546875 13.9960938,17.515625 L14.75,17.3632812 L14.75,16.25 C14.75,13.796875 11,13.7070312 11,16.3242188 L11,17.3671875 L11.7539063,17.5195312 C11.921875,17.5546875 12.03125,17.71875 12,17.8867188 L11.8789063,18.5 C11.84375,18.6679688 11.6796875,18.7773438 11.5117188,18.7460938 L10.2929688,18.5820312 C9.984375,18.5390625 9.75390625,18.2773438 9.75390625,17.9609375 L9.75390625,16.25 C9.75390625,14.7421875 10.828125,13.4804688 12.2539063,13.1875 L12.2539063,11.421875 C12.1679688,11.4492188 12.0820313,11.4648438 11.9960938,11.4960938 C11.2929688,11.7421875 10.5390625,11.8789063 9.75390625,11.8789063 C8.96875,11.8789063 8.21484375,11.7421875 7.51171875,11.4960938 C7.22265625,11.3945313 6.9296875,11.3320313 6.62890625,11.2929688 L6.62890625,14.4804688 C7.53125,14.75 8.19140625,15.578125 8.19140625,16.5664063 C8.19140625,17.7734375 7.2109375,18.7539063 6.00390625,18.7539063 C4.796875,18.7539063 3.81640625,17.7734375 3.81640625,16.5664063 C3.81640625,15.578125 4.4765625,14.75 5.37890625,14.4804688 L5.37890625,11.3398438 C2.89453125,11.7578125 1,13.8984375 1,16.5 L1,18.25 C1,19.2148438 1.78515625,20 2.75,20 L16.75,20 C17.7148438,20 18.5,19.2148438 18.5,18.25 L18.5,16.5 C18.5,13.6875 16.28125,11.4101562 13.5,11.2734375 Z" fill="#31373D" fill-rule="evenodd"/></svg>