<svg viewBox="0 0 20 20" xmlns="http://www.w3.org/2000/svg"><path d="M16.3333333,15.2395833 C16.3333333,15.9965278 16.1163194,16.6458333 15.6822917,17.1875 C15.2482639,17.7291667 14.7256944,18 14.1145833,18 L5.21875,18 C4.60763889,18 4.08506944,17.7291667 3.65104167,17.1875 C3.21701389,16.6458333 3,15.9965278 3,15.2395833 C3,14.6493056 3.02951389,14.0920139 3.08854167,13.5677083 C3.14756944,13.0434028 3.25694444,12.515625 3.41666667,11.984375 C3.57638889,11.453125 3.77951389,10.9982639 4.02604167,10.6197917 C4.27256944,10.2413194 4.59895833,9.93229167 5.00520833,9.69270833 C5.41145833,9.453125 5.87847222,9.33333333 6.40625,9.33333333 C7.31597222,10.2222222 8.40277778,10.6666667 9.66666667,10.6666667 C10.9305556,10.6666667 12.0173611,10.2222222 12.9270833,9.33333333 C13.4548611,9.33333333 13.921875,9.453125 14.328125,9.69270833 C14.734375,9.93229167 15.0607639,10.2413194 15.3072917,10.6197917 C15.5538194,10.9982639 15.7569444,11.453125 15.9166667,11.984375 C16.0763889,12.515625 16.1857639,13.0434028 16.2447917,13.5677083 C16.3038194,14.0920139 16.3333333,14.6493056 16.3333333,15.2395833 Z M13.6666667,6 C13.6666667,7.10416667 13.2760417,8.046875 12.4947917,8.828125 C11.7135417,9.609375 10.7708333,10 9.66666667,10 C8.5625,10 7.61979167,9.609375 6.83854167,8.828125 C6.05729167,8.046875 5.66666667,7.10416667 5.66666667,6 C5.66666667,4.89583333 6.05729167,3.953125 6.83854167,3.171875 C7.61979167,2.390625 8.5625,2 9.66666667,2 C10.7708333,2 11.7135417,2.390625 12.4947917,3.171875 C13.2760417,3.953125 13.6666667,4.89583333 13.6666667,6 Z" fill="#31373D" fill-rule="evenodd"/></svg>