<svg viewBox="0 0 20 20" xmlns="http://www.w3.org/2000/svg"><path d="M19.0801365,12.7635188 C19.1613951,12.3228473 19.1613951,11.8727999 19.0801365,11.4321284 L19.8864715,10.9664543 C19.9802314,10.9133237 20.0208607,10.8039372 19.9896074,10.7008013 C19.7802103,10.0257301 19.4207974,9.41316555 18.951998,8.90686218 C18.8801154,8.82872894 18.7644782,8.80997696 18.6707183,8.86310756 L17.8643833,9.32878166 C17.5237224,9.03812602 17.1330562,8.81310229 16.7111367,8.66308648 L16.7111367,7.73173829 C16.7111367,7.62547709 16.6361288,7.5317172 16.532993,7.5098399 C15.8360445,7.35357342 15.1265947,7.35982408 14.4640248,7.5098399 C14.360889,7.5317172 14.2858811,7.62547709 14.2858811,7.73173829 L14.2858811,8.66308648 C13.8639616,8.81310229 13.4732954,9.03812602 13.1326345,9.32878166 L12.3262995,8.86310756 C12.2356649,8.80997696 12.1169024,8.82872894 12.0450198,8.90686218 C11.5762204,9.41316555 11.2168075,10.0257301 11.0074104,10.7008013 C10.9761571,10.8039372 11.0199118,10.9133237 11.1105463,10.9664543 L11.9168813,11.4321284 C11.8356227,11.8727999 11.8356227,12.3228473 11.9168813,12.7635188 L11.1105463,13.2291928 C11.0167864,13.2823235 10.9761571,13.39171 11.0074104,13.4948459 C11.2168075,14.169917 11.5762204,14.7793563 12.0450198,15.288785 C12.1169024,15.3669182 12.2325396,15.3856702 12.3262995,15.3325396 L13.1326345,14.8668655 C13.4732954,15.1575211 13.8639616,15.3825449 14.2858811,15.5325607 L14.2858811,16.4639089 C14.2858811,16.5701701 14.360889,16.66393 14.4640248,16.6858073 C15.1609733,16.8420737 15.8704231,16.8358231 16.532993,16.6858073 C16.6361288,16.66393 16.7111367,16.5701701 16.7111367,16.4639089 L16.7111367,15.5325607 C17.1330562,15.3825449 17.5237224,15.1575211 17.8643833,14.8668655 L18.6707183,15.3325396 C18.7613529,15.3856702 18.8801154,15.3669182 18.951998,15.288785 C19.4207974,14.7824816 19.7802103,14.169917 19.9896074,13.4948459 C20.0208607,13.39171 19.977106,13.2823235 19.8864715,13.2291928 L19.0801365,12.7635188 Z M15.5016342,13.6136084 C14.6640459,13.6136084 13.9858494,12.9322865 13.9858494,12.0978236 C13.9858494,11.2633606 14.6671713,10.5820388 15.5016342,10.5820388 C16.3360972,10.5820388 17.017419,11.2633606 17.017419,12.0978236 C17.017419,12.9322865 16.3392225,13.6136084 15.5016342,13.6136084 Z M3.0003163,9.09750728 C4.10355761,9.09750728 5.00052717,8.20053771 5.00052717,7.09729641 C5.00052717,5.9940551 4.10355761,5.09708554 3.0003163,5.09708554 C1.897075,5.09708554 1.00010543,5.9940551 1.00010543,7.09729641 C1.00010543,8.20053771 1.897075,9.09750728 3.0003163,9.09750728 Z M10.0010543,10.0976127 C10.0604356,10.0976127 10.1166915,10.0819861 10.1760728,10.0788607 C10.4354751,9.40066423 10.8167653,8.76309702 11.3105674,8.22866568 C11.5418418,7.97863932 11.8700014,7.83487416 12.2137876,7.83487416 C12.4294353,7.83487416 12.6419578,7.8911301 12.8263522,8.00051663 L13.0732532,8.14428178 C13.0982559,8.12865514 13.1232585,8.11615382 13.1482611,8.10052717 C13.3670342,7.64422907 13.498298,7.13792569 13.498298,6.60036902 C13.498298,4.66579007 11.932508,3.1 9.99792901,3.1 C8.06335006,3.1 6.50068532,4.66266474 6.50068532,6.59724369 C6.50068532,8.53182264 8.06647539,10.0976127 10.0010543,10.0976127 Z M13.288901,16.1763786 C13.2170184,16.1388746 13.1451358,16.09512 13.0763786,16.0544907 C12.8201015,16.2045065 12.5982031,16.360773 12.2169129,16.360773 C11.876252,16.360773 11.5480924,16.2170078 11.3136927,15.9669815 C10.7417574,15.3481662 10.3042113,14.5949618 10.0573103,13.7917522 C9.72290002,12.7135135 10.8355173,12.2384634 10.8636453,12.2197114 C10.8605199,12.1384529 10.8605199,12.0571943 10.8636453,11.9759357 L10.6167442,11.8321706 C10.4979817,11.7634133 10.3979712,11.6759041 10.310462,11.5790189 C10.1760728,11.4321284 10.0573103,11.2597046 10.0573103,11.0977181 L7.60392663,11.0977181 C5.61309175,11.0977181 4.00042174,12.7103882 4.00042174,14.6980977 L4.00042174,15.5981926 C4.00042174,16.4264049 4.67236757,17.0983507 5.50057989,17.0983507 L13.4826714,17.0983507 C13.3670342,16.910831 13.288901,16.6983086 13.288901,16.4639089 L13.288901,16.1763786 Z M5.40994533,10.678924 C5.04740711,10.3195111 4.55047973,10.0976127 4.00042174,10.0976127 L2.00021087,10.0976127 C0.896969561,10.0976127 0,10.9945823 0,12.0978236 L0,13.097929 C0,13.6511123 0.446922116,14.0980344 1.00010543,14.0980344 L3.05969756,14.0980344 C3.25659332,12.6166283 4.15043755,11.3696218 5.40994533,10.678924 Z" fill="#31373D" fill-rule="evenodd"/></svg>