<svg viewBox="0 0 20 20" xmlns="http://www.w3.org/2000/svg"><path d="M18.6666667,16.5494792 C18.6666667,17.4956597 18.3953993,18.3072917 17.8528646,18.984375 C17.3103299,19.6614583 16.6571181,20 15.8932292,20 L4.7734375,20 C4.00954861,20 3.35633681,19.6614583 2.81380208,18.984375 C2.27126736,18.3072917 2,17.4956597 2,16.5494792 C2,15.8116319 2.03689236,15.1150174 2.11067708,14.4596354 C2.18446181,13.8042535 2.32118056,13.1445312 2.52083333,12.4804688 C2.72048611,11.8164062 2.97439236,11.2478299 3.28255208,10.7747396 C3.59071181,10.3016493 3.99869792,9.91536458 4.50651042,9.61588542 C5.01432292,9.31640625 5.59809028,9.16666667 6.2578125,9.16666667 C7.39496528,10.2777778 8.75347222,10.8333333 10.3333333,10.8333333 C11.9131944,10.8333333 13.2717014,10.2777778 14.4088542,9.16666667 C15.0685764,9.16666667 15.6523438,9.31640625 16.1601563,9.61588542 C16.6679688,9.91536458 17.0759549,10.3016493 17.3841146,10.7747396 C17.6922743,11.2478299 17.9461806,11.8164062 18.1458333,12.4804688 C18.3454861,13.1445312 18.4822049,13.8042535 18.5559896,14.4596354 C18.6297743,15.1150174 18.6666667,15.8116319 18.6666667,16.5494792 Z M15.3333333,5 C15.3333333,6.38020833 14.8450521,7.55859375 13.8684896,8.53515625 C12.8919271,9.51171875 11.7135417,10 10.3333333,10 C8.953125,10 7.77473958,9.51171875 6.79817708,8.53515625 C5.82161458,7.55859375 5.33333333,6.38020833 5.33333333,5 C5.33333333,3.61979167 5.82161458,2.44140625 6.79817708,1.46484375 C7.77473958,0.48828125 8.953125,0 10.3333333,0 C11.7135417,0 12.8919271,0.48828125 13.8684896,1.46484375 C14.8450521,2.44140625 15.3333333,3.61979167 15.3333333,5 Z" fill="#31373D" fill-rule="evenodd"/></svg>