<svg viewBox="0 0 20 20" xmlns="http://www.w3.org/2000/svg">
<path d="M6.5 10.8125C8.50586 10.8125 10.1562 9.1875 10.1562 7.15625C10.1562 5.15039 8.50586 3.5 6.5 3.5C4.46875 3.5 2.84375 5.15039 2.84375 7.15625C2.84375 9.1875 4.46875 10.8125 6.5 10.8125ZM6.5 12.0312C2.87985 12.0312 0 12.6497 0 16.5H13C13 12.6527 10.1176 12.0312 6.5 12.0312Z" fill="#31373D"/>
<path d="M17.5938 7.59375C17.5938 9.3125 16.1973 10.6875 14.5001 10.6875C12.7813 10.6875 11.4063 9.3125 11.4063 7.59375C11.4063 5.89648 12.7813 4.5 14.5001 4.5C16.1973 4.5 17.5938 5.89648 17.5938 7.59375Z" fill="#31373D"/>
<path d="M11.6623 11.9876C12.4882 11.7793 13.4579 11.7188 14.5001 11.7188C17.5611 11.7188 20.0001 12.2446 20.0001 15.5H13.9363C13.8462 14.8298 13.6598 14.2295 13.3711 13.7C12.9565 12.9397 12.3627 12.3837 11.6623 11.9876Z" fill="#31373D"/>
</svg>
