<svg viewBox="0 0 20 20" fill="none" xmlns="http://www.w3.org/2000/svg"><path fill-rule="evenodd" clip-rule="evenodd" d="M10 2.25C12.2094 2.25 14 4.04063 14 6.25C14 8.39242 12.3163 10.1411 10.1997 10.2451L10 10.25C7.79063 10.25 6 8.45937 6 6.25C6 4.10758 7.68375 2.35891 9.80034 2.25489L10 2.25ZM16.9948 14.7413C16.8884 12.5859 15.1522 10.8729 12.9937 10.77H7.00625L6.79872 10.7849C4.66873 10.9905 3 12.7685 3 14.9513V16.2513L3.00687 16.3957C3.07958 17.1561 3.72059 17.7513 4.5 17.7513H15.5L15.6444 17.7444C16.4048 17.6717 17 17.0307 17 16.2513V14.9513L16.9948 14.7413ZM7.04 11.77L12.9937 11.7708L13.1705 11.7843C14.7496 11.9512 16 13.3076 16 14.952V16.252L15.9919 16.3418C15.9495 16.5749 15.7452 16.752 15.5 16.752H4.5L4.4102 16.7439C4.17711 16.7015 4 16.4972 4 16.252V14.952L4.0051 14.7705C4.09313 13.2088 5.31048 11.945 6.8722 11.7833L7.04 11.77ZM7 6.25C7 4.59291 8.34291 3.25 10 3.25C11.6571 3.25 13 4.59291 13 6.25C13 7.90709 11.6571 9.25 10 9.25C8.34291 9.25 7 7.90709 7 6.25Z" fill="#616161"/></svg>