<svg viewBox="0 0 20 20" xmlns="http://www.w3.org/2000/svg"><path d="M19.0801365,12.3354646 L19.8864715,11.8697905 C19.9802314,11.8166599 20.0208607,11.7072734 19.9896074,11.6041375 C19.7802103,10.9290663 19.4207974,10.3165018 18.951998,9.81019837 C18.8801154,9.73206514 18.7644782,9.71331316 18.6707183,9.76644376 L17.8643833,10.2321179 C17.5237224,9.94146221 17.1330562,9.71643849 16.7111367,9.56642267 L16.7111367,8.63507449 C16.7111367,8.52881329 16.6361288,8.4350534 16.532993,8.4131761 C15.8360445,8.25690962 15.1265947,8.26316028 14.4640248,8.4131761 C14.360889,8.4350534 14.2858811,8.52881329 14.2858811,8.63507449 L14.2858811,9.56642267 C13.8639616,9.71643849 13.4732954,9.94146221 13.1326345,10.2321179 L12.3262995,9.76644376 C12.2356649,9.71331316 12.1169024,9.73206514 12.0450198,9.81019837 C11.5762204,10.3165018 11.2168075,10.9290663 11.0074104,11.6041375 C10.9761571,11.7072734 11.0199118,11.8166599 11.1105463,11.8697905 L11.9168813,12.3354646 C11.8356227,12.7761361 11.8356227,13.2261835 11.9168813,13.666855 L11.1105463,14.132529 C11.0167864,14.1856596 10.9761571,14.2950462 11.0074104,14.3981821 C11.2168075,15.0732532 11.5762204,15.6826925 12.0450198,16.1921212 C12.1169024,16.2702544 12.2325396,16.2890064 12.3262995,16.2358758 L13.1326345,15.7702017 C13.4732954,16.0608573 13.8639616,16.2858811 14.2858811,16.4358969 L14.2858811,17.3672451 C14.2858811,17.4735063 14.360889,17.5672661 14.4640248,17.5891435 C15.1609733,17.7454099 15.8704231,17.7391593 16.532993,17.5891435 C16.6361288,17.5672661 16.7111367,17.4735063 16.7111367,17.3672451 L16.7111367,16.4358969 C17.1330562,16.2858811 17.5237224,16.0608573 17.8643833,15.7702017 L18.6707183,16.2358758 C18.7613529,16.2890064 18.8801154,16.2702544 18.951998,16.1921212 C19.4207974,15.6858178 19.7802103,15.0732532 19.9896074,14.3981821 C20.0208607,14.2950462 19.977106,14.1856596 19.8864715,14.132529 L19.0801365,13.666855 C19.1613951,13.2261835 19.1613951,12.7761361 19.0801365,12.3354646 Z M15.5016342,14.5169446 C14.6640459,14.5169446 13.9858494,13.8356227 13.9858494,13.0011598 C13.9858494,12.1666968 14.6671713,11.485375 15.5016342,11.485375 C16.3360972,11.485375 17.017419,12.1666968 17.017419,13.0011598 C17.017419,13.8356227 16.3392225,14.5169446 15.5016342,14.5169446 Z M7.00073804,10.0008435 C9.21034598,10.0008435 11.0011598,8.21002968 11.0011598,6.00042174 C11.0011598,3.79081379 9.21034598,2 7.00073804,2 C4.7911301,2 3.0003163,3.79081379 3.0003163,6.00042174 C3.0003163,8.21002968 4.7911301,10.0008435 7.00073804,10.0008435 Z M13.288901,17.0797147 C13.2170184,17.0422108 13.1451358,16.9984562 13.0763786,16.9578269 L12.8294775,17.1015921 C12.6419578,17.2078533 12.4294353,17.2672345 12.2169129,17.2672345 C11.876252,17.2672345 11.5480924,17.1234694 11.3136927,16.873443 C10.7417574,16.2546278 10.3042113,15.5014234 10.0573103,14.6982137 C9.88541715,14.1450304 10.1166915,13.5605938 10.6167442,13.2699381 L10.8636453,13.126173 C10.8605199,13.0449144 10.8605199,12.9636558 10.8636453,12.8823973 L10.6167442,12.7386321 C10.1166915,12.4511018 9.88541715,11.8635398 10.0573103,11.3103565 C10.0854382,11.219722 10.1843229,11.0915835 10.2155762,11.0009489 L4.20044282,11.0009489 C1.88144835,11.0009489 0,12.8823973 0,15.2013917 L0,16.5015288 C0,17.3297411 0.671945839,18.0016869 1.50015815,18.0016869 L12.5013179,18.0016869 C12.8169762,18.0016869 13.1107572,17.9016764 13.3514075,17.7360339 C13.3139036,17.6172714 13.288901,17.4953836 13.288901,17.3672451 L13.288901,17.0797147 Z" fill="#31373D" fill-rule="evenodd"/></svg>