<svg viewBox="0 0 20 20" xmlns="http://www.w3.org/2000/svg"><path d="M3,9 C4.103125,9 5,8.103125 5,7 C5,5.896875 4.103125,5 3,5 C1.896875,5 1,5.896875 1,7 C1,8.103125 1.896875,9 3,9 Z M17,9 C18.103125,9 19,8.103125 19,7 C19,5.896875 18.103125,5 17,5 C15.896875,5 15,5.896875 15,7 C15,8.103125 15.896875,9 17,9 Z M18,10 L16,10 C15.45,10 14.953125,10.221875 14.590625,10.58125 C15.85,11.271875 16.74375,12.51875 16.9375,14 L19,14 C19.553125,14 20,13.553125 20,13 L20,12 C20,10.896875 19.103125,10 18,10 Z M10,10 C11.934375,10 13.5,8.434375 13.5,6.5 C13.5,4.565625 11.934375,3 10,3 C8.065625,3 6.5,4.565625 6.5,6.5 C6.5,8.434375 8.065625,10 10,10 Z M12.4,11 L7.6,11 C5.6125,11 4,12.6125 4,14.6 L4,15.5 C4,16.328125 4.671875,17 5.5,17 L14.5,17 C15.328125,17 16,16.328125 16,15.5 L16,14.6 C16,12.6125 14.3875,11 12.4,11 Z M5.409375,10.58125 C5.046875,10.221875 4.55,10 4,10 L2,10 C0.896875,10 0,10.896875 0,12 L0,13 C0,13.553125 0.446875,14 1,14 L3.059375,14 C3.25625,12.51875 4.15,11.271875 5.409375,10.58125 Z" fill="#31373D" fill-rule="evenodd"/></svg>