<svg viewBox="0 0 20 20" xmlns="http://www.w3.org/2000/svg"><path d="M13.7109375,11.296875 L9.75,15.2578125 L5.7890625,11.296875 C3.109375,11.5351562 1,13.7578125 1,16.5 L1,18.125 C1,19.1601562 1.83984375,20 2.875,20 L16.625,20 C17.6601562,20 18.5,19.1601562 18.5,18.125 L18.5,16.5 C18.5,13.7578125 16.390625,11.5351562 13.7109375,11.296875 Z M2.25,7.5 C3.31640625,7.5 4.2734375,7.05078125 4.953125,6.33984375 C5.54296875,8.4453125 7.453125,10 9.75,10 C12.5117188,10 14.75,7.76171875 14.75,5 C14.75,2.23828125 12.5117188,0 9.75,0 C7.78125,0 6.09375,1.1484375 5.27734375,2.8046875 C4.59765625,1.8671875 3.5,1.25 2.25,1.25 C2.25,2.5546875 2.91796875,3.703125 3.93359375,4.375 C2.91796875,5.046875 2.25,6.1953125 2.25,7.5 Z M7.875,3.75 L11.625,3.75 C12.3164062,3.75 12.875,4.30859375 12.875,5 L6.625,5 C6.625,4.30859375 7.18359375,3.75 7.875,3.75 Z" fill="#31373D" fill-rule="evenodd"/></svg>