<svg viewBox="0 0 20 20" xmlns="http://www.w3.org/2000/svg"><path d="M13.16875,11.0375 L10,14.20625 L6.83125,11.0375 C4.6875,11.228125 3,13.00625 3,15.2 L3,16.5 C3,17.328125 3.671875,18 4.5,18 L15.5,18 C16.328125,18 17,17.328125 17,16.5 L17,15.2 C17,13.00625 15.3125,11.228125 13.16875,11.0375 Z M4,8 C4.853125,8 5.61875,7.640625 6.1625,7.071875 C6.634375,8.75625 8.1625,10 10,10 C12.209375,10 14,8.209375 14,6 C14,3.790625 12.209375,2 10,2 C8.425,2 7.075,2.91875 6.421875,4.24375 C5.878125,3.49375 5,3 4,3 C4,4.04375 4.534375,4.9625 5.346875,5.5 C4.534375,6.0375 4,6.95625 4,8 Z M8.5,5 L11.5,5 C12.053125,5 12.5,5.446875 12.5,6 L7.5,6 C7.5,5.446875 7.946875,5 8.5,5 Z" fill="#31373D" fill-rule="evenodd"/></svg>