<svg viewBox="0 0 20 20" xmlns="http://www.w3.org/2000/svg"><path d="M10,10 C12.209375,10 14,8.209375 14,6 C14,3.790625 12.209375,2 10,2 C7.790625,2 6,3.790625 6,6 C6,8.209375 7.790625,10 10,10 Z M6.25,15.25 C6.25,15.665625 6.584375,16 7,16 C7.415625,16 7.75,15.665625 7.75,15.25 C7.75,14.834375 7.415625,14.5 7,14.5 C6.584375,14.5 6.25,14.834375 6.25,15.25 Z M13,12.55 C14.140625,12.78125 15,13.79375 15,15 L15,16.303125 C15,16.540625 14.83125,16.746875 14.596875,16.79375 L13.590625,16.99375 C13.45625,17.021875 13.325,16.934375 13.296875,16.796875 L13.2,16.30625 C13.171875,16.171875 13.259375,16.0375 13.396875,16.0125 L14,15.890625 L14,15 C14,13.0375 11,12.965625 11,15.059375 L11,15.89375 L11.603125,16.015625 C11.7375,16.04375 11.825,16.175 11.8,16.309375 L11.703125,16.8 C11.675,16.934375 11.54375,17.021875 11.409375,16.996875 L10.434375,16.865625 C10.1875,16.83125 10.003125,16.621875 10.003125,16.36875 L10.003125,15 C10.003125,13.79375 10.8625,12.784375 12.003125,12.55 L12.003125,11.01875 L7.503125,11.01875 L7.503125,13.584375 C8.225,13.8 8.753125,14.4625 8.753125,15.253125 C8.753125,16.21875 7.96875,17.003125 7.003125,17.003125 C6.0375,17.003125 5.253125,16.21875 5.253125,15.253125 C5.253125,14.4625 5.78125,13.8 6.503125,13.584375 L6.503125,11.071875 C4.515625,11.40625 3,13.11875 3,15.2 L3,16.6 C3,17.371875 3.628125,18 4.4,18 L15.6,18 C16.371875,18 17,17.371875 17,16.6 L17,15.2 C17,12.95 15.225,11.128125 13,11.01875 L13,12.55 Z" fill="#31373D" fill-rule="evenodd"/></svg>