<svg viewBox="0 0 20 20" xmlns="http://www.w3.org/2000/svg"><path d="M9.75,10 C12.5117188,10 14.75,7.76171875 14.75,5 C14.75,2.23828125 12.5117188,0 9.75,0 C6.98828125,0 4.75,2.23828125 4.75,5 C4.75,7.76171875 6.98828125,10 9.75,10 Z M13.4921875,11.2734375 L11.625,18.75 L10.375,13.4375 L11.625,11.25 L7.875,11.25 L9.125,13.4375 L7.875,18.75 L6.0078125,11.2734375 C3.22265625,11.40625 1,13.6835938 1,16.5 L1,18.125 C1,19.1601562 1.83984375,20 2.875,20 L16.625,20 C17.6601562,20 18.5,19.1601562 18.5,18.125 L18.5,16.5 C18.5,13.6835937 16.2773438,11.40625 13.4921875,11.2734375 Z" fill="#31373D" fill-rule="evenodd"/></svg>