<svg viewBox="0 0 20 20" xmlns="http://www.w3.org/2000/svg">
<path d="M19.5 9H17.5V7C17.5 6.75 17.25 6.5 17 6.5H16C15.7188 6.5 15.5 6.75 15.5 7V9H13.5C13.2188 9 13 9.25 13 9.5V10.5C13 10.7812 13.2188 11 13.5 11H15.5V13C15.5 13.2812 15.7188 13.5 16 13.5H17C17.25 13.5 17.5 13.2812 17.5 13V11H19.5C19.75 11 20 10.7812 20 10.5V9.5C20 9.25 19.75 9 19.5 9Z" fill="#31373D"/>
<path d="M8 11C10.4688 11 12.5 9 12.5 6.5C12.5 4.03125 10.4688 2 8 2C5.5 2 3.5 4.03125 3.5 6.5C3.5 9 5.5 11 8 11ZM8 12.5C3.54443 12.5 0 13.2612 0 18H16C16 13.2649 12.4524 12.5 8 12.5Z" fill="#31373D"/>
</svg>
