<svg viewBox="0 0 20 20" xmlns="http://www.w3.org/2000/svg"><path d="M7.00027345,10.0003125 C9.20973476,10.0003125 11.0004297,8.20961756 11.0004297,6.00015626 C11.0004297,3.79069495 9.20973476,2 7.00027345,2 C4.79081214,2 3.00011719,3.79069495 3.00011719,6.00015626 C3.00011719,8.20961756 4.79081214,10.0003125 7.00027345,10.0003125 Z M4.20016407,11.0003516 C1.88132349,11.0003516 0,12.8816751 0,15.2005156 L0,16.5005664 C0,17.3287238 0.671901246,18.000625 1.5000586,18.000625 L10.0910192,18.000625 C10.0160163,17.7881167 9.98476503,17.5631079 10.009766,17.334974 L10.2222743,15.4317747 L10.2597758,15.0848861 L10.5066604,14.8380015 L12.9223798,12.4222821 C12.1567249,11.5566233 11.0473065,11.0003516 9.80038283,11.0003516 L4.20016407,11.0003516 Z M11.0035548,17.4474784 C10.9691785,17.7662409 11.237939,18.0350014 11.5535763,17.9974999 L13.4567757,17.7849916 L17.766319,13.4754483 L15.5256065,11.2347357 L11.2160631,15.541154 L11.0035548,17.4474784 Z M18.5976015,9.21903199 C18.3069651,8.92839564 17.8319466,8.92839564 17.5413102,9.21903199 L16.3600141,10.4003281 L16.2318841,10.5284581 L18.4757217,12.7691707 L19.7820227,11.4628696 C20.0726591,11.1691082 20.0726591,10.6972147 19.7820227,10.4034533 L18.5976015,9.21903199 Z" fill="#31373D" fill-rule="evenodd"/></svg>