<svg viewBox="0 0 20 20" xmlns="http://www.w3.org/2000/svg"><path d="M17.5,3 C18.3284271,3 19,3.67157288 19,4.5 L19,15.5 C19,16.3284271 18.3284271,17 17.5,17 L2.5,17 C1.67157288,17 1,16.3284271 1,15.5 L1,4.5 C1,3.67157288 1.67157288,3 2.5,3 L17.5,3 Z M17.75,14.5 L16.75,14.5 C16.4738576,14.5 16.25,14.7238576 16.25,15 L16.25,15 L16.25,15.25 C16.25,15.5261424 16.4738576,15.75 16.75,15.75 L16.75,15.75 L17.75,15.75 C18.0261424,15.75 18.25,15.5261424 18.25,15.25 L18.25,15.25 L18.25,15 C18.25,14.7238576 18.0261424,14.5 17.75,14.5 L17.75,14.5 Z M14.5,4.25 L5.5,4.25 C4.94771525,4.25 4.5,4.69771525 4.5,5.25 L4.5,5.25 L4.5,14.75 C4.5,15.3022847 4.94771525,15.75 5.5,15.75 L5.5,15.75 L14.5,15.75 C15.0522847,15.75 15.5,15.3022847 15.5,14.75 L15.5,14.75 L15.5,5.25 C15.5,4.69771525 15.0522847,4.25 14.5,4.25 L14.5,4.25 Z M3.25,14.5 L2.25,14.5 C1.97385763,14.5 1.75,14.7238576 1.75,15 L1.75,15 L1.75,15.25 C1.75,15.5261424 1.97385763,15.75 2.25,15.75 L2.25,15.75 L3.25,15.75 C3.52614237,15.75 3.75,15.5261424 3.75,15.25 L3.75,15.25 L3.75,15 C3.75,14.7238576 3.52614237,14.5 3.25,14.5 L3.25,14.5 Z M7.98046875,7.00636889 C8.11328125,6.98683764 8.234375,7.01222826 8.34375,7.08254076 L8.34375,7.08254076 L12.46875,9.52004076 C12.59375,9.59035326 12.6777344,9.68800951 12.7207031,9.81300951 C12.7636719,9.93800951 12.7636719,10.0630095 12.7207031,10.1880095 C12.6777344,10.3130095 12.59375,10.4106658 12.46875,10.4809783 L12.46875,10.4809783 L8.34375,12.9184783 C8.2265625,12.9887908 8.1015625,13.0122283 7.96875,12.9887908 C7.8359375,12.9653533 7.72460938,12.9028533 7.63476562,12.8012908 C7.54492188,12.6997283 7.5,12.5786345 7.5,12.4380095 L7.5,12.4380095 L7.5,7.56300951 C7.5,7.40675951 7.546875,7.27980639 7.640625,7.18215014 C7.734375,7.08449389 7.84765625,7.02590014 7.98046875,7.00636889 Z M17.75,11.1 L16.75,11.1 C16.4738576,11.1 16.25,11.3238576 16.25,11.6 L16.25,11.6 L16.25,11.85 C16.25,12.1261424 16.4738576,12.35 16.75,12.35 L16.75,12.35 L17.75,12.35 C18.0261424,12.35 18.25,12.1261424 18.25,11.85 L18.25,11.85 L18.25,11.6 C18.25,11.3238576 18.0261424,11.1 17.75,11.1 L17.75,11.1 Z M3.25,11.1 L2.25,11.1 C1.97385763,11.1 1.75,11.3238576 1.75,11.6 L1.75,11.6 L1.75,11.85 C1.75,12.1261424 1.97385763,12.35 2.25,12.35 L2.25,12.35 L3.25,12.35 C3.52614237,12.35 3.75,12.1261424 3.75,11.85 L3.75,11.85 L3.75,11.6 C3.75,11.3238576 3.52614237,11.1 3.25,11.1 L3.25,11.1 Z M17.75,7.65 L16.75,7.65 C16.4738576,7.65 16.25,7.87385763 16.25,8.15 L16.25,8.15 L16.25,8.4 C16.25,8.67614237 16.4738576,8.9 16.75,8.9 L16.75,8.9 L17.75,8.9 C18.0261424,8.9 18.25,8.67614237 18.25,8.4 L18.25,8.4 L18.25,8.15 C18.25,7.87385763 18.0261424,7.65 17.75,7.65 L17.75,7.65 Z M3.25,7.65 L2.25,7.65 C1.97385763,7.65 1.75,7.87385763 1.75,8.15 L1.75,8.15 L1.75,8.4 C1.75,8.67614237 1.97385763,8.9 2.25,8.9 L2.25,8.9 L3.25,8.9 C3.52614237,8.9 3.75,8.67614237 3.75,8.4 L3.75,8.4 L3.75,8.15 C3.75,7.87385763 3.52614237,7.65 3.25,7.65 L3.25,7.65 Z M17.75,4.25 L16.75,4.25 C16.4738576,4.25 16.25,4.47385763 16.25,4.75 L16.25,4.75 L16.25,5 C16.25,5.27614237 16.4738576,5.5 16.75,5.5 L16.75,5.5 L17.75,5.5 C18.0261424,5.5 18.25,5.27614237 18.25,5 L18.25,5 L18.25,4.75 C18.25,4.47385763 18.0261424,4.25 17.75,4.25 L17.75,4.25 Z M3.25,4.25 L2.25,4.25 C1.97385763,4.25 1.75,4.47385763 1.75,4.75 L1.75,4.75 L1.75,5 C1.75,5.27614237 1.97385763,5.5 2.25,5.5 L2.25,5.5 L3.25,5.5 C3.52614237,5.5 3.75,5.27614237 3.75,5 L3.75,5 L3.75,4.75 C3.75,4.47385763 3.52614237,4.25 3.25,4.25 L3.25,4.25 Z" fill="#31373D" fill-rule="evenodd"/></svg>