<svg viewBox="0 0 20 20" fill="none" xmlns="http://www.w3.org/2000/svg"><path fill-rule="evenodd" clip-rule="evenodd" d="M9.9995 13.2C8.23276 13.2 6.7995 11.7667 6.7995 10C6.7995 8.23326 8.23276 6.8 9.9995 6.8C11.7662 6.8 13.1995 8.23326 13.1995 10C13.1995 11.7667 11.7662 13.2 9.9995 13.2ZM7.9995 10C7.9995 11.104 8.8955 12 9.9995 12C11.1035 12 11.9995 11.104 11.9995 10C11.9995 8.896 11.1035 8 9.9995 8C8.8955 8 7.9995 8.896 7.9995 10ZM17.9285 9.628C17.8365 9.399 15.6115 4 9.9995 4C4.3875 4 2.1625 9.399 2.0705 9.628C1.9765 9.867 1.9765 10.133 2.0705 10.372C2.1625 10.601 4.3875 16 9.9995 16C15.6115 16 17.8365 10.601 17.9285 10.372C18.0225 10.133 18.0225 9.867 17.9285 9.628ZM16.783 10C16.654 9.70548 16.1373 8.61183 15.1512 7.54099C14.0355 6.32932 12.3749 5.2 9.9995 5.2C7.62414 5.2 5.9635 6.32932 4.84775 7.54099C3.86169 8.61183 3.34497 9.70549 3.21597 10C3.34497 10.2945 3.86169 11.3882 4.84775 12.459C5.9635 13.6707 7.62414 14.8 9.9995 14.8C12.3749 14.8 14.0355 13.6707 15.1512 12.459C16.1373 11.3882 16.654 10.2945 16.783 10Z" fill="#616161"/></svg>